<svg id="Layer_1" data-name="Layer 1" xmlns="http://www.w3.org/2000/svg" viewBox="0 0 800 500"><defs><style>.cls-1{fill:#f9e8d4;}.cls-2{fill:#584f49;}.cls-3,.cls-7{fill:#282d3c;}.cls-4{fill:#798ea4;}.cls-5{fill:none;stroke:#282d3c;}.cls-5,.cls-6,.cls-7{stroke-miterlimit:10;}.cls-6{fill:#fff;stroke:#e6e7e8;}.cls-7{stroke:#000;stroke-width:0.25px;}</style></defs><title>mainia</title><path class="cls-1" d="M83.35,83.15c0-14.77,11.23-26.75,25.08-26.75s25.09,12,25.09,26.75l-.08-1.31c.83,8.42,0,17.53.08,25.51a64,64,0,0,1-.2,7.06,20.62,20.62,0,0,1-1.71,6.69,19.74,19.74,0,0,1-2.87,4.33c-1.12,1.32-2.36,2.55-3.58,3.75a49.69,49.69,0,0,1-7,6A14.79,14.79,0,0,1,110,138h-3.15a14.79,14.79,0,0,1-8.16-2.79,49.13,49.13,0,0,1-7-6c-1.23-1.2-2.46-2.43-3.58-3.75a19.74,19.74,0,0,1-2.87-4.33,20.62,20.62,0,0,1-1.71-6.69,61.6,61.6,0,0,1-.2-7.06c.08-8-.76-17.09.07-25.51"/><path class="cls-1" d="M83.54,103.79a5.08,5.08,0,0,1,0-10.15"/><path class="cls-1" d="M133.59,93.64a5.08,5.08,0,1,1,0,10.15"/><path class="cls-1" d="M471.54,85.54a25.07,25.07,0,0,1,50.14,0h-.26q.38,4.84.66,9.7t.46,9.7a56.42,56.42,0,0,1,0,6,20.34,20.34,0,0,1-1.16,5.77,20,20,0,0,1-2.41,4.45,49.48,49.48,0,0,1-3.19,4,73.85,73.85,0,0,1-5.15,5.46,31.61,31.61,0,0,1-5.95,4.47,21,21,0,0,1-7.06,2.52h-1.32a21,21,0,0,1-7.07-2.52,31.94,31.94,0,0,1-6-4.47,71.67,71.67,0,0,1-5.14-5.46,47.5,47.5,0,0,1-3.2-4,20,20,0,0,1-2.41-4.45,20.69,20.69,0,0,1-1.16-5.77,59.24,59.24,0,0,1,0-6c.12-3.24.28-6.47.46-9.7Z"/><circle class="cls-2" cx="487.54" cy="98.55" r="2.33"/><circle class="cls-2" cx="505.73" cy="98.55" r="2.33"/><path class="cls-1" d="M472.22,103.22a4.67,4.67,0,1,1,0-9.33"/><path class="cls-1" d="M521.68,93.89a4.67,4.67,0,0,1,0,9.33"/><path class="cls-1" d="M669.38,86.67c0-12.9,9.92-23.35,22.16-23.35s22.17,10.45,22.17,23.35v0l-.2,12.63-.19,12.63c0,1.14,0,2.29-.13,3.44a17.41,17.41,0,0,1-.54,3.37,17.88,17.88,0,0,1-1.72,4.11c-.73,1.3-1.57,2.55-2.4,3.78a57.31,57.31,0,0,1-5,6.64,18.69,18.69,0,0,1-6.43,4.77H686a18.69,18.69,0,0,1-6.43-4.77,57.39,57.39,0,0,1-5-6.64c-.83-1.23-1.66-2.48-2.39-3.78a18.36,18.36,0,0,1-1.73-4.11,19.09,19.09,0,0,1-.54-3.37c-.08-1.15-.1-2.3-.12-3.44l-.2-12.63-.19-12.63"/><path class="cls-3" d="M716.54,95.63c.77-5,1.54-10.14.75-15.17S706.9,62.71,699.5,62.62c-2,0-20.9.05-22.73.78a12.89,12.89,0,0,0-3.5,2.24,32.51,32.51,0,0,0-11.6,26.25c.09,1.69,5.35,9.39,6.84,10.3s-1.18-5.47.29-6.6-1.51,1.08,0,0c3.4-2.44,12.25-5.82,16.26-4.49s7.7,3.53,11.81,4.55c6.28,1.55,10.13,2.75,16.56,3.5"/><path class="cls-1" d="M670.17,107.8a4.67,4.67,0,1,1,0-9.33"/><path class="cls-1" d="M712.2,98.47a4.67,4.67,0,0,1,0,9.33"/><circle class="cls-4" cx="682.45" cy="103.13" r="2.33"/><circle class="cls-4" cx="700.64" cy="103.13" r="2.33"/><path class="cls-3" d="M81.6,95.68c-1.28-9.77-2.31-20.7,2.94-28.63,5.75-8.66,16.59-10.21,26.2-11,4-.34,8.16-.67,12,.77,5.87,2.22,10,8.38,11.93,15s1.94,13.66,1.92,20.6c0,1.31-.23,3-1.37,3.28-.94.26-1.79-.64-2.45-1.42a32.75,32.75,0,0,0-14.51-9.93c2-1.86-31.41-1.51-33.36,5.09-.41,1.38-.33,2.89-.77,4.25s-1.81,2.58-3,2"/><path class="cls-1" d="M277.71,83.55a26.21,26.21,0,0,1,52.41,0l-.8-5a92,92,0,0,1,1.47,22.65c-.58,7.49-2.5,14.71-6.56,21a40.23,40.23,0,0,1-2.62,3.63c-.93,1.16-1.91,2.29-2.92,3.39a42.26,42.26,0,0,1-5.73,5.38,19.79,19.79,0,0,1-6.89,3.46l-4.31-.22a19.6,19.6,0,0,1-6.89-3.45,42.26,42.26,0,0,1-5.73-5.38c-1-1.1-2-2.23-2.92-3.4a40.09,40.09,0,0,1-2.62-3.62c-4.06-6.32-6-13.54-6.56-21a92,92,0,0,1,1.47-22.64"/><path class="cls-1" d="M277.58,104.71a5.08,5.08,0,1,1,0-10.15"/><path class="cls-1" d="M330.3,94.56a5.08,5.08,0,0,1,0,10.15"/><path class="cls-3" d="M276.22,96.93c-1.31-10-2.38-21.09,3-29.16,5.91-8.83,17.06-10.41,26.95-11.25,4.13-.35,8.39-.68,12.31.78,6,2.26,10.3,8.54,12.27,15.26s2,13.92,2,21c0,1.33-.24,3-1.41,3.34-1,.27-1.84-.65-2.53-1.44a33.65,33.65,0,0,0-14.91-10.12c2.1-1.9-34.66,8.13-35.12,9.52s-1.85,2.62-3.06,2"/><circle class="cls-2" cx="313.91" cy="101.42" r="3"/><circle class="cls-2" cx="293.91" cy="101.42" r="3"/><circle class="cls-3" cx="303.67" cy="124.55" r="2.33"/><circle class="cls-2" cx="99.47" cy="98.55" r="2.33"/><circle class="cls-2" cx="117.66" cy="98.55" r="2.33"/><path class="cls-3" d="M469.12,97.25c-1.27-9.79-2.31-20.74,2.95-28.68,5.76-8.68,16.62-10.23,26.25-11,4-.35,8.17-.68,12,.77,5.88,2.22,10,8.39,11.94,15s2,13.69,1.93,20.64c0,1.3-.24,3-1.37,3.28-.94.26-1.79-.63-2.46-1.42a32.87,32.87,0,0,0-14.53-10c2.05-1.86-31.46-1.51-33.42,5.1-.41,1.38-.33,2.9-.78,4.26s-1.8,2.58-3,2"/><path class="cls-5" d="M115.64,121.15c0,1.64-3.36,3-7.5,3s-7.5-1.33-7.5-3"/><rect class="cls-3" x="83.5" y="243.52" width="16.92" height="186.12"/><rect class="cls-3" x="116.36" y="243.52" width="16.92" height="186.12"/><rect class="cls-1" x="98.28" y="135.37" width="20.3" height="10.15"/><path class="cls-3" d="M131.8,424h-9.31a6.74,6.74,0,0,0-2.62.53,6.93,6.93,0,0,0-2.16,1.46,6.73,6.73,0,0,0-2,4.78v6.76a6.73,6.73,0,0,0,2,4.78,6.93,6.93,0,0,0,2.16,1.46,6.74,6.74,0,0,0,2.62.53h37.23a6.79,6.79,0,0,0,6.23-4.14,6.58,6.58,0,0,0,.54-2.63v-3.38Z"/><path class="cls-3" d="M84.32,424h9.31a6.68,6.68,0,0,1,4.78,2,6.94,6.94,0,0,1,1.46,2.15,6.79,6.79,0,0,1,.53,2.63v6.76a6.75,6.75,0,0,1-.53,2.63,6.94,6.94,0,0,1-1.46,2.15,6.68,6.68,0,0,1-4.78,2H56.41a6.76,6.76,0,0,1-6.77-6.77v-3.38Z"/><polygon class="cls-3" points="104.54 247.58 122.09 273.24 139.64 273.24 139.64 207.62 139.64 142.01 122.09 142.01 122.09 142.01 104.54 207.62 104.54 247.58"/><polygon class="cls-3" points="112.64 247.58 95.09 273.24 77.54 273.24 77.54 207.62 77.54 142.01 95.09 142.01 95.09 142.01 112.64 207.62 112.64 247.58"/><rect class="cls-3" x="105.93" y="140.68" width="5" height="52.5"/><polygon class="cls-6" points="104.43 146.18 94.43 146.18 94.43 140.18 108.43 140.18 104.43 146.18"/><polygon class="cls-6" points="112.43 146.18 122.43 146.18 122.43 140.18 108.43 140.18 112.43 146.18"/><rect class="cls-3" x="279.38" y="243.52" width="16.92" height="186.12"/><rect class="cls-3" x="312.24" y="243.52" width="16.92" height="186.12"/><rect class="cls-1" x="294.16" y="135.37" width="20.3" height="10.15"/><path class="cls-3" d="M327.68,424h-9.31a6.68,6.68,0,0,0-4.78,2,6.94,6.94,0,0,0-1.46,2.15,6.79,6.79,0,0,0-.53,2.63v6.76a6.75,6.75,0,0,0,.53,2.63,6.94,6.94,0,0,0,1.46,2.15,6.68,6.68,0,0,0,4.78,2h37.22a6.76,6.76,0,0,0,6.77-6.77v-3.38Z"/><path class="cls-3" d="M280.2,424h9.31a6.74,6.74,0,0,1,2.62.53,6.93,6.93,0,0,1,2.16,1.46,6.73,6.73,0,0,1,2,4.78v6.76a6.73,6.73,0,0,1-2,4.78,6.93,6.93,0,0,1-2.16,1.46,6.74,6.74,0,0,1-2.62.53H252.28a6.79,6.79,0,0,1-6.23-4.14,6.58,6.58,0,0,1-.54-2.63v-3.38Z"/><rect class="cls-1" x="254.46" y="263.47" width="13.54" height="22.45" rx="4"/><rect class="cls-1" x="340.8" y="263.47" width="13.54" height="22.45" rx="4"/><path class="cls-3" d="M354.17,241.2V155.1a5.64,5.64,0,0,0-5.68-5.56h-2.24a5.63,5.63,0,0,0-5.68,5.56V260.63a5.42,5.42,0,0,0,.4,2v3.56h13.6v-25Z"/><path class="cls-3" d="M267.83,241.2V155.1a5.64,5.64,0,0,0-5.68-5.56h-2.24a5.63,5.63,0,0,0-5.68,5.56V260.63a5.41,5.41,0,0,0,.39,2v3.56h13.61v-25Z"/><polygon class="cls-3" points="300.41 247.58 317.96 273.24 335.51 273.24 335.51 207.62 335.51 142.01 317.96 142.01 317.96 142.01 300.41 207.62 300.41 247.58"/><polygon class="cls-3" points="308.51 247.58 290.96 273.24 273.41 273.24 273.41 207.62 273.41 142.01 290.96 142.01 290.96 142.01 308.51 207.62 308.51 247.58"/><rect class="cls-3" x="301.81" y="140.68" width="5" height="52.5"/><polygon class="cls-6" points="300.31 146.18 290.31 146.18 290.31 140.18 304.31 140.18 300.31 146.18"/><polygon class="cls-6" points="308.31 146.18 318.31 146.18 318.31 140.18 304.31 140.18 308.31 146.18"/><rect class="cls-3" x="472.38" y="243.52" width="16.92" height="186.12"/><rect class="cls-3" x="505.24" y="243.52" width="16.92" height="186.12"/><rect class="cls-1" x="487.16" y="135.37" width="20.3" height="10.15"/><path class="cls-3" d="M520.68,424h-9.31a6.68,6.68,0,0,0-4.78,2,6.94,6.94,0,0,0-1.46,2.15,6.79,6.79,0,0,0-.53,2.63v6.76a6.75,6.75,0,0,0,.53,2.63,6.94,6.94,0,0,0,1.46,2.15,6.68,6.68,0,0,0,4.78,2h37.22a6.76,6.76,0,0,0,6.77-6.77v-3.38Z"/><path class="cls-3" d="M473.2,424h9.31a6.74,6.74,0,0,1,2.62.53,6.93,6.93,0,0,1,2.16,1.46,6.73,6.73,0,0,1,2,4.78v6.76a6.73,6.73,0,0,1-2,4.78,6.93,6.93,0,0,1-2.16,1.46,6.74,6.74,0,0,1-2.62.53H445.28a6.79,6.79,0,0,1-6.23-4.14,6.58,6.58,0,0,1-.54-2.63v-3.38Z"/><rect class="cls-1" x="447.46" y="263.47" width="13.54" height="22.45" rx="4"/><rect class="cls-1" x="533.8" y="263.47" width="13.54" height="22.45" rx="4"/><path class="cls-3" d="M547.17,241.2V155.1a5.64,5.64,0,0,0-5.68-5.56h-2.24a5.63,5.63,0,0,0-5.68,5.56V260.63a5.42,5.42,0,0,0,.4,2v3.56h13.6v-25Z"/><path class="cls-3" d="M460.83,241.2V155.1a5.64,5.64,0,0,0-5.68-5.56h-2.24a5.63,5.63,0,0,0-5.68,5.56V260.63a5.41,5.41,0,0,0,.39,2v3.56h13.61v-25Z"/><polygon class="cls-3" points="493.41 247.58 510.96 273.24 528.51 273.24 528.51 207.62 528.51 142.01 510.96 142.01 510.96 142.01 493.41 207.62 493.41 247.58"/><polygon class="cls-3" points="501.51 247.58 483.96 273.24 466.41 273.24 466.41 207.62 466.41 142.01 483.96 142.01 483.96 142.01 501.51 207.62 501.51 247.58"/><rect class="cls-3" x="494.81" y="140.68" width="5" height="52.5"/><polygon class="cls-6" points="493.31 146.18 483.31 146.18 483.31 140.18 497.31 140.18 493.31 146.18"/><polygon class="cls-6" points="501.31 146.18 511.31 146.18 511.31 140.18 497.31 140.18 501.31 146.18"/><rect class="cls-3" x="667.38" y="243.52" width="16.92" height="186.12"/><rect class="cls-3" x="700.24" y="243.52" width="16.92" height="186.12"/><rect class="cls-1" x="682.16" y="135.37" width="20.3" height="10.15"/><path class="cls-7" d="M715.68,424h-9.31a6.68,6.68,0,0,0-4.78,2,6.94,6.94,0,0,0-1.46,2.15,6.79,6.79,0,0,0-.53,2.63v6.76a6.75,6.75,0,0,0,.53,2.63,6.94,6.94,0,0,0,1.46,2.15,6.68,6.68,0,0,0,4.78,2h37.22a6.76,6.76,0,0,0,6.77-6.77v-3.38Z"/><path class="cls-7" d="M668.2,424h9.31a6.74,6.74,0,0,1,2.62.53,6.93,6.93,0,0,1,2.16,1.46,6.73,6.73,0,0,1,2,4.78v6.76a6.73,6.73,0,0,1-2,4.78,6.93,6.93,0,0,1-2.16,1.46,6.74,6.74,0,0,1-2.62.53H640.28a6.79,6.79,0,0,1-6.23-4.14,6.58,6.58,0,0,1-.54-2.63v-3.38Z"/><rect class="cls-1" x="642.46" y="263.47" width="13.54" height="22.45" rx="4"/><rect class="cls-1" x="728.8" y="263.47" width="13.54" height="22.45" rx="4"/><path class="cls-3" d="M742.17,241.2V155.1a5.64,5.64,0,0,0-5.68-5.56h-2.24a5.63,5.63,0,0,0-5.68,5.56V260.63a5.42,5.42,0,0,0,.4,2v3.56h13.6v-25Z"/><path class="cls-3" d="M655.83,241.2V155.1a5.64,5.64,0,0,0-5.68-5.56h-2.24a5.63,5.63,0,0,0-5.68,5.56V260.63a5.41,5.41,0,0,0,.39,2v3.56h13.61v-25Z"/><polygon class="cls-3" points="688.41 247.58 705.96 273.24 723.51 273.24 723.51 207.62 723.51 142.01 705.96 142.01 705.96 142.01 688.41 207.62 688.41 247.58"/><polygon class="cls-3" points="696.51 247.58 678.96 273.24 661.41 273.24 661.41 207.62 661.41 142.01 678.96 142.01 678.96 142.01 696.51 207.62 696.51 247.58"/><rect class="cls-3" x="689.81" y="140.68" width="5" height="52.5"/><polygon class="cls-6" points="688.31 146.18 678.31 146.18 678.31 140.18 692.31 140.18 688.31 146.18"/><polygon class="cls-6" points="696.31 146.18 706.31 146.18 706.31 140.18 692.31 140.18 696.31 146.18"/><line class="cls-5" x1="488.64" y1="123.72" x2="504.64" y2="123.72"/><path class="cls-5" d="M699.64,123.15c0,1.64-3.36,3-7.5,3s-7.5-1.33-7.5-3"/><rect class="cls-1" x="142.93" y="262.47" width="13.54" height="22.45" rx="4"/><path class="cls-3" d="M152.64,149.22h-6a4,4,0,0,0-4,4v112h14v-112A4,4,0,0,0,152.64,149.22Z"/><rect class="cls-1" x="60.93" y="262.47" width="13.54" height="22.45" rx="4"/><path class="cls-3" d="M70.64,149.22h-6a4,4,0,0,0-4,4v112h14v-112A4,4,0,0,0,70.64,149.22Z"/></svg>