<svg id="Layer_1" data-name="Layer 1" xmlns="http://www.w3.org/2000/svg" viewBox="0 0 800 500"><defs><style>.cls-1,.cls-2{fill:#55c6a9;}.cls-1,.cls-10,.cls-11,.cls-9{stroke:#edd59e;stroke-width:0.25px;}.cls-1,.cls-10,.cls-11,.cls-5,.cls-6,.cls-9{stroke-miterlimit:10;}.cls-3{fill:#282d3c;}.cls-4{fill:#f9e8d4;}.cls-5{fill:#fff;stroke:#282d3c;}.cls-5,.cls-6{stroke-width:0.5px;}.cls-6{fill:none;stroke:#000;}.cls-7{fill:#edd59e;}.cls-8{fill:#b89b72;}.cls-9{fill:#00758f;}.cls-10{fill:#fa7a35;}.cls-11{fill:#cd212a;}.cls-12{fill:#4e4a65;}</style></defs><title>psychedelia</title><rect class="cls-1" x="83.94" y="245.58" width="16.92" height="186.12"/><rect class="cls-1" x="116.8" y="245.58" width="16.92" height="186.12"/><polygon class="cls-1" points="148.07 335.77 126.08 335.77 109.08 335.77 92.08 335.77 70.08 335.77 75.08 288.77 75.08 241.77 75.08 194.77 75.08 152.77 92.08 147.77 109.08 147.77 126.08 147.77 143.07 152.77 143.07 194.77 143.07 241.77 143.07 288.77 148.07 335.77"/><rect class="cls-2" x="98.68" y="137.44" width="20.3" height="10.15"/><path class="cls-3" d="M132.24,426h-9.31a6.62,6.62,0,0,0-2.63.54,6.85,6.85,0,0,0-2.15,1.45,6.74,6.74,0,0,0-1.45,2.15,6.62,6.62,0,0,0-.54,2.63v6.77a6.62,6.62,0,0,0,.54,2.63,6.79,6.79,0,0,0,3.6,3.6,6.62,6.62,0,0,0,2.63.54h37.23a6.53,6.53,0,0,0,2.62-.54,6.77,6.77,0,0,0,3.61-3.6,6.79,6.79,0,0,0,.53-2.63v-3.39Z"/><path class="cls-3" d="M80.05,97c-2.34,3.67-.18,8.6,1.76,12.5s3.45,7,6.59,10c1.25,1.2,3.08,2.49,4.55,1.57,1.13-.71,1.25-2.29,1.24-3.63l-.18-24c0-1.4-.11-3-1.21-3.85A4.21,4.21,0,0,0,90,89"/><path class="cls-3" d="M137.62,97c2.34,3.67.18,8.6-1.77,12.5s-3.45,7-6.59,10c-1.25,1.2-3.07,2.49-4.54,1.57-1.14-.71-1.26-2.29-1.25-3.63l.18-24c0-1.4.12-3,1.22-3.85a4.2,4.2,0,0,1,2.79-.62"/><path class="cls-4" d="M84.38,85.68c0-14.78,11.23-26.76,25.08-26.76s25.09,12,25.09,26.76l-.08-1.31c.83,8.42,0,17.53.08,25.5a64,64,0,0,1-.2,7.06,20.67,20.67,0,0,1-1.71,6.7,19.68,19.68,0,0,1-2.87,4.32c-1.12,1.33-2.36,2.55-3.58,3.76a49.62,49.62,0,0,1-7,6,14.8,14.8,0,0,1-8.16,2.8h-3.15a14.8,14.8,0,0,1-8.16-2.8,49.06,49.06,0,0,1-7-6c-1.23-1.21-2.46-2.43-3.58-3.76a19.68,19.68,0,0,1-2.87-4.32,20.67,20.67,0,0,1-1.71-6.7,61.6,61.6,0,0,1-.2-7.06c.08-8-.75-17.08.07-25.5"/><path class="cls-3" d="M79.72,102.4C79,89.71,78.51,75.59,84.38,64.49a17.87,17.87,0,0,1,3-4.39,16.3,16.3,0,0,1,5.43-3.3,49.58,49.58,0,0,1,17.57-3.75,16.63,16.63,0,0,1,8,1.33c2.46,1.23,3.68,7.12,3.78,10,.27-2.38,3.94-7,6.11-6.3s9.23,7.09,10,9.35c2.27,7,.51,34.11-1.59,34-3.92-.26-5.14-5.56-7.12-9.15-3.3-6-10.86-8.79-13-15.35-.77,2.78-3.36,4.59-6,5.4s-5.41.9-8.07,1.57"/><path class="cls-4" d="M81.3,106.32a5.08,5.08,0,0,1,0-10.15"/><path class="cls-4" d="M136.35,96.17a5.08,5.08,0,0,1,0,10.15"/><path class="cls-3" d="M84.11,94.56a158.09,158.09,0,0,0-.37,16.86c.28,5.6,1.25,11.22,3,14.44.42-12.82.43-25.72,0-38.55-1.13.09-2.23,1.33-3,3.41"/><path class="cls-3" d="M135.16,94.56a155.5,155.5,0,0,1,.37,16.86c-.28,5.6-1.25,11.22-3,14.44-.41-12.82-.42-25.72,0-38.55,1.12.09,2.22,1.33,3,3.41"/><circle class="cls-5" cx="99.95" cy="101.65" r="5.83"/><circle class="cls-5" cx="117.53" cy="101.65" r="5.83"/><path class="cls-3" d="M101.12,124.44a4.1,4.1,0,0,1,5.4-5.22.78.78,0,0,0,1-.27.76.76,0,0,0-.27-1,5.58,5.58,0,0,0-7.6,6.91.77.77,0,0,0,.92.52.75.75,0,0,0,.52-.92Z"/><path class="cls-3" d="M118.53,124.84a5.59,5.59,0,0,0-7.61-6.91.75.75,0,0,0-.26,1,.76.76,0,0,0,1,.27,4.1,4.1,0,0,1,5.4,5.22.76.76,0,0,0,.52.92.78.78,0,0,0,.93-.52Z"/><line class="cls-6" x1="106.72" y1="101.65" x2="110.76" y2="101.65"/><path class="cls-3" d="M84.76,426h9.31a6.62,6.62,0,0,1,2.63.54A6.85,6.85,0,0,1,98.85,428a6.74,6.74,0,0,1,1.45,2.15,6.62,6.62,0,0,1,.54,2.63v6.77a6.62,6.62,0,0,1-.54,2.63,6.79,6.79,0,0,1-3.6,3.6,6.62,6.62,0,0,1-2.63.54H56.84a6.53,6.53,0,0,1-2.62-.54,6.77,6.77,0,0,1-3.61-3.6,6.79,6.79,0,0,1-.53-2.63v-3.39Z"/><rect class="cls-7" x="106.48" y="142.77" width="4" height="140"/><rect class="cls-4" x="59.36" y="261.53" width="13.54" height="22.45" rx="4"/><polygon class="cls-1" points="75.08 268.77 72.2 268.77 71.33 268.77 70.45 268.77 69.58 268.77 68.7 268.77 67.83 268.77 66.95 268.77 66.08 268.77 65.2 268.77 64.33 268.77 63.45 268.77 62.58 268.77 61.7 268.77 60.83 268.77 59.95 268.77 57.08 268.77 59.08 261.52 59.08 254.27 59.08 247.02 59.08 239.77 59.08 232.52 59.08 225.27 59.08 218.02 59.08 210.77 59.08 203.52 59.08 196.27 59.08 189.02 59.08 181.77 59.08 174.52 59.08 167.27 59.08 160.02 59.08 152.77 59.95 152.77 60.83 152.77 61.7 152.77 62.58 152.77 63.45 152.77 64.33 152.77 65.2 152.77 66.08 152.77 66.95 152.77 67.83 152.77 68.7 152.77 69.58 152.77 70.45 152.77 71.33 152.77 72.2 152.77 73.08 152.77 73.08 160.02 73.08 167.27 73.08 174.52 73.08 181.77 73.08 189.02 73.08 196.27 73.08 203.52 73.08 210.77 73.08 218.02 73.08 225.27 73.08 232.52 73.08 239.77 73.08 247.02 73.08 254.27 73.08 261.52 75.08 268.77"/><rect class="cls-1" x="55.98" y="148.84" width="20.3" height="8.46" rx="2"/><rect class="cls-7" x="59.36" y="249.37" width="13.54" height="10.15"/><rect class="cls-7" x="85.39" y="161.77" width="46" height="4"/><circle class="cls-8" cx="129.98" cy="163.77" r="3"/><circle class="cls-8" cx="86.98" cy="163.77" r="3"/><rect class="cls-7" x="89.39" y="194.77" width="38" height="4"/><circle class="cls-8" cx="126.98" cy="196.77" r="3"/><circle class="cls-8" cx="89.98" cy="196.77" r="3"/><rect class="cls-7" x="91.39" y="211.27" width="34" height="4"/><circle class="cls-8" cx="124.98" cy="213.27" r="3"/><circle class="cls-8" cx="91.98" cy="213.27" r="3"/><rect class="cls-7" x="93.39" y="227.77" width="30" height="4"/><circle class="cls-8" cx="122.98" cy="229.77" r="3"/><circle class="cls-8" cx="93.98" cy="229.77" r="3"/><rect class="cls-7" x="87.89" y="178.27" width="42" height="4"/><circle class="cls-8" cx="87.48" cy="180.27" r="3"/><circle class="cls-8" cx="129.48" cy="180.27" r="3"/><rect class="cls-4" x="145.36" y="261.53" width="13.54" height="22.45" rx="4"/><polygon class="cls-1" points="161.07 268.77 158.2 268.77 157.32 268.77 156.45 268.77 155.57 268.77 154.7 268.77 153.82 268.77 152.95 268.77 152.07 268.77 151.2 268.77 150.32 268.77 149.45 268.77 148.57 268.77 147.7 268.77 146.82 268.77 145.95 268.77 143.07 268.77 145.07 261.52 145.07 254.27 145.07 247.02 145.07 239.77 145.07 232.52 145.07 225.27 145.07 218.02 145.07 210.77 145.07 203.52 145.07 196.27 145.07 189.02 145.07 181.77 145.07 174.52 145.07 167.27 145.07 160.02 145.07 152.77 145.95 152.77 146.82 152.77 147.7 152.77 148.57 152.77 149.45 152.77 150.32 152.77 151.2 152.77 152.07 152.77 152.95 152.77 153.82 152.77 154.7 152.77 155.57 152.77 156.45 152.77 157.32 152.77 158.2 152.77 159.07 152.77 159.07 160.02 159.07 167.27 159.07 174.52 159.07 181.77 159.07 189.02 159.07 196.27 159.07 203.52 159.07 210.77 159.07 218.02 159.07 225.27 159.07 232.52 159.07 239.77 159.07 247.02 159.07 254.27 159.07 261.52 161.07 268.77"/><rect class="cls-1" x="141.98" y="148.84" width="20.3" height="8.46" rx="2"/><rect class="cls-7" x="145.36" y="249.37" width="13.54" height="10.15"/><rect class="cls-9" x="278.94" y="245.58" width="16.92" height="186.12"/><rect class="cls-9" x="311.8" y="245.58" width="16.92" height="186.12"/><polygon class="cls-9" points="343.07 335.77 321.07 335.77 304.07 335.77 287.07 335.77 265.07 335.77 270.07 288.77 270.07 241.77 270.07 194.77 270.07 152.77 287.07 147.77 304.07 147.77 321.07 147.77 338.07 152.77 338.07 194.77 338.07 241.77 338.07 288.77 343.07 335.77"/><rect class="cls-9" x="293.68" y="137.44" width="20.3" height="10.15"/><path class="cls-3" d="M327.24,426h-9.31a6.62,6.62,0,0,0-2.63.54,6.85,6.85,0,0,0-2.15,1.45,6.74,6.74,0,0,0-1.45,2.15,6.62,6.62,0,0,0-.54,2.63v6.77a6.62,6.62,0,0,0,.54,2.63,6.79,6.79,0,0,0,3.6,3.6,6.62,6.62,0,0,0,2.63.54h37.23a6.53,6.53,0,0,0,2.62-.54,6.77,6.77,0,0,0,3.61-3.6,6.79,6.79,0,0,0,.53-2.63v-3.39Z"/><path class="cls-3" d="M279.76,426h9.31a6.62,6.62,0,0,1,2.63.54,6.85,6.85,0,0,1,2.15,1.45,6.74,6.74,0,0,1,1.45,2.15,6.62,6.62,0,0,1,.54,2.63v6.77a6.62,6.62,0,0,1-.54,2.63,6.79,6.79,0,0,1-3.6,3.6,6.62,6.62,0,0,1-2.63.54H251.84a6.53,6.53,0,0,1-2.62-.54,6.77,6.77,0,0,1-3.61-3.6,6.79,6.79,0,0,1-.53-2.63v-3.39Z"/><rect class="cls-7" x="301.48" y="142.77" width="4" height="140"/><rect class="cls-4" x="254.36" y="261.53" width="13.54" height="22.45" rx="4"/><polygon class="cls-9" points="270.07 268.77 267.2 268.77 266.32 268.77 265.45 268.77 264.57 268.77 263.7 268.77 262.82 268.77 261.95 268.77 261.07 268.77 260.2 268.77 259.32 268.77 258.45 268.77 257.57 268.77 256.7 268.77 255.82 268.77 254.95 268.77 252.07 268.77 254.07 261.52 254.07 254.27 254.07 247.02 254.07 239.77 254.07 232.52 254.07 225.27 254.07 218.02 254.07 210.77 254.07 203.52 254.07 196.27 254.07 189.02 254.07 181.77 254.07 174.52 254.07 167.27 254.07 160.02 254.07 152.77 254.95 152.77 255.82 152.77 256.7 152.77 257.57 152.77 258.45 152.77 259.32 152.77 260.2 152.77 261.07 152.77 261.95 152.77 262.82 152.77 263.7 152.77 264.57 152.77 265.45 152.77 266.32 152.77 267.2 152.77 268.07 152.77 268.07 160.02 268.07 167.27 268.07 174.52 268.07 181.77 268.07 189.02 268.07 196.27 268.07 203.52 268.07 210.77 268.07 218.02 268.07 225.27 268.07 232.52 268.07 239.77 268.07 247.02 268.07 254.27 268.07 261.52 270.07 268.77"/><rect class="cls-9" x="250.98" y="148.84" width="20.3" height="8.46" rx="2"/><rect class="cls-7" x="254.36" y="249.37" width="13.54" height="10.15"/><rect class="cls-7" x="280.39" y="161.77" width="46" height="4"/><circle class="cls-8" cx="324.98" cy="163.77" r="3"/><circle class="cls-8" cx="281.98" cy="163.77" r="3"/><rect class="cls-7" x="284.39" y="194.77" width="38" height="4"/><circle class="cls-8" cx="321.98" cy="196.77" r="3"/><circle class="cls-8" cx="284.98" cy="196.77" r="3"/><rect class="cls-7" x="286.39" y="211.27" width="34" height="4"/><circle class="cls-8" cx="319.98" cy="213.27" r="3"/><circle class="cls-8" cx="286.98" cy="213.27" r="3"/><rect class="cls-7" x="288.39" y="227.77" width="30" height="4"/><circle class="cls-8" cx="317.98" cy="229.77" r="3"/><circle class="cls-8" cx="288.98" cy="229.77" r="3"/><rect class="cls-7" x="282.89" y="178.27" width="42" height="4"/><circle class="cls-8" cx="282.48" cy="180.27" r="3"/><circle class="cls-8" cx="324.48" cy="180.27" r="3"/><rect class="cls-4" x="340.36" y="261.53" width="13.54" height="22.45" rx="4"/><polygon class="cls-9" points="356.07 268.77 353.2 268.77 352.32 268.77 351.45 268.77 350.57 268.77 349.7 268.77 348.82 268.77 347.95 268.77 347.07 268.77 346.2 268.77 345.32 268.77 344.45 268.77 343.57 268.77 342.7 268.77 341.82 268.77 340.95 268.77 338.07 268.77 340.07 261.52 340.07 254.27 340.07 247.02 340.07 239.77 340.07 232.52 340.07 225.27 340.07 218.02 340.07 210.77 340.07 203.52 340.07 196.27 340.07 189.02 340.07 181.77 340.07 174.52 340.07 167.27 340.07 160.02 340.07 152.77 340.95 152.77 341.82 152.77 342.7 152.77 343.57 152.77 344.45 152.77 345.32 152.77 346.2 152.77 347.07 152.77 347.95 152.77 348.82 152.77 349.7 152.77 350.57 152.77 351.45 152.77 352.32 152.77 353.2 152.77 354.07 152.77 354.07 160.02 354.07 167.27 354.07 174.52 354.07 181.77 354.07 189.02 354.07 196.27 354.07 203.52 354.07 210.77 354.07 218.02 354.07 225.27 354.07 232.52 354.07 239.77 354.07 247.02 354.07 254.27 354.07 261.52 356.07 268.77"/><rect class="cls-9" x="336.98" y="148.84" width="20.3" height="8.46" rx="2"/><rect class="cls-7" x="340.36" y="249.37" width="13.54" height="10.15"/><path class="cls-4" d="M277,86.08a26.21,26.21,0,1,1,52.41,0l-.8-5a91.61,91.61,0,0,1,1.47,22.65c-.58,7.49-2.5,14.72-6.55,21a42.4,42.4,0,0,1-2.63,3.63c-.93,1.17-1.91,2.29-2.92,3.4a42.19,42.19,0,0,1-5.73,5.37,19.62,19.62,0,0,1-6.89,3.46l-4.31-.21a19.88,19.88,0,0,1-6.89-3.46,42.86,42.86,0,0,1-5.73-5.38c-1-1.1-2-2.23-2.92-3.39a42.29,42.29,0,0,1-2.62-3.63c-4.06-6.32-6-13.54-6.56-21a92.06,92.06,0,0,1,1.47-22.65"/><path class="cls-4" d="M276.89,107.23a5.08,5.08,0,0,1,0-10.15"/><path class="cls-4" d="M329.61,97.08a5.08,5.08,0,0,1,0,10.15"/><path class="cls-3" d="M297.36,120c-.78-1.24.63-2.3,1.7-2.66a7.09,7.09,0,0,1,4.37,0c.46.15.65-.57.2-.72a7.62,7.62,0,0,0-5.2.17c-1.39.59-2.66,2.09-1.71,3.6.25.41.9,0,.64-.38Z"/><path class="cls-3" d="M309.74,120.34c.94-1.51-.33-3-1.71-3.6a7.62,7.62,0,0,0-5.2-.17c-.46.15-.26.87.2.72a7.09,7.09,0,0,1,4.37,0c1.06.36,2.47,1.42,1.69,2.66-.26.41.39.79.65.38Z"/><path class="cls-3" d="M272.41,100.5c-1.46-10-2.65-21.15,3.36-29.25,6.57-8.85,19-10.43,29.94-11.27,4.59-.35,9.32-.69,13.68.78C326.1,63,330.83,69.32,333,76.06s2.22,14,2.2,21c0,1.33-.27,3-1.57,3.35-1.07.27-2-.65-2.8-1.45a37.9,37.9,0,0,0-16.58-10.15,15,15,0,0,0,4.91-7.42,18.85,18.85,0,0,0-18.72,5.82c.6-2.4.43-6-2-6.14-1.85-.14-2.94,1.93-4.17,3.32-4.69,5.32-15.87,2.88-18.11,9.62-.46,1.41-.37,3-.88,4.35s-2.06,2.63-3.4,2"/><path class="cls-3" d="M275.47,89.94c-.15,2.36-.14-.55,0,1.81s.46,10,.91,12.28a53.17,53.17,0,0,0,1.77,6.7c.73,2.16-.27.19.73,2.16"/><path class="cls-3" d="M331.25,89.94c.15,2.36.15-.55,0,1.81s-.46,10-.91,12.28a53.17,53.17,0,0,1-1.77,6.7c-.72,2.16.27.19-.72,2.16"/><circle class="cls-3" cx="313.64" cy="104.05" r="3.13"/><circle class="cls-3" cx="292.8" cy="104.05" r="3.13"/><rect class="cls-10" x="472.94" y="244.58" width="16.92" height="186.12"/><rect class="cls-10" x="505.8" y="244.58" width="16.92" height="186.12"/><polygon class="cls-10" points="537.08 334.77 515.08 334.77 498.07 334.77 481.07 334.77 459.07 334.77 464.07 287.77 464.07 240.77 464.07 193.77 464.07 151.77 481.07 146.77 498.07 146.77 515.08 146.77 532.08 151.77 532.08 193.77 532.08 240.77 532.08 287.77 537.08 334.77"/><rect class="cls-10" x="487.68" y="136.44" width="20.3" height="10.15"/><path class="cls-3" d="M521.24,425h-9.31a6.62,6.62,0,0,0-2.63.54,6.85,6.85,0,0,0-2.15,1.45,6.74,6.74,0,0,0-1.45,2.15,6.62,6.62,0,0,0-.54,2.63v6.77a6.62,6.62,0,0,0,.54,2.63,6.79,6.79,0,0,0,3.6,3.6,6.62,6.62,0,0,0,2.63.54h37.23a6.53,6.53,0,0,0,2.62-.54,6.77,6.77,0,0,0,3.61-3.6,6.79,6.79,0,0,0,.53-2.63v-3.39Z"/><path class="cls-3" d="M473.76,425h9.31a6.62,6.62,0,0,1,2.63.54,6.85,6.85,0,0,1,2.15,1.45,6.74,6.74,0,0,1,1.45,2.15,6.62,6.62,0,0,1,.54,2.63v6.77a6.62,6.62,0,0,1-.54,2.63,6.79,6.79,0,0,1-3.6,3.6,6.62,6.62,0,0,1-2.63.54H445.84a6.53,6.53,0,0,1-2.62-.54,6.77,6.77,0,0,1-3.61-3.6,6.79,6.79,0,0,1-.53-2.63v-3.39Z"/><rect class="cls-7" x="495.48" y="141.77" width="4" height="140"/><rect class="cls-4" x="448.36" y="260.53" width="13.54" height="22.45" rx="4"/><polygon class="cls-10" points="464.07 267.77 461.2 267.77 460.32 267.77 459.45 267.77 458.57 267.77 457.7 267.77 456.82 267.77 455.95 267.77 455.07 267.77 454.2 267.77 453.32 267.77 452.45 267.77 451.57 267.77 450.7 267.77 449.82 267.77 448.95 267.77 446.07 267.77 448.07 260.52 448.07 253.27 448.07 246.02 448.07 238.77 448.07 231.52 448.07 224.27 448.07 217.02 448.07 209.77 448.07 202.52 448.07 195.27 448.07 188.02 448.07 180.77 448.07 173.52 448.07 166.27 448.07 159.02 448.07 151.77 448.95 151.77 449.82 151.77 450.7 151.77 451.57 151.77 452.45 151.77 453.32 151.77 454.2 151.77 455.07 151.77 455.95 151.77 456.82 151.77 457.7 151.77 458.57 151.77 459.45 151.77 460.32 151.77 461.2 151.77 462.07 151.77 462.07 159.02 462.07 166.27 462.07 173.52 462.07 180.77 462.07 188.02 462.07 195.27 462.07 202.52 462.07 209.77 462.07 217.02 462.07 224.27 462.07 231.52 462.07 238.77 462.07 246.02 462.07 253.27 462.07 260.52 464.07 267.77"/><rect class="cls-10" x="444.98" y="147.84" width="20.3" height="8.46" rx="2"/><rect class="cls-7" x="448.36" y="248.37" width="13.54" height="10.15"/><rect class="cls-7" x="474.39" y="160.77" width="46" height="4"/><circle class="cls-8" cx="518.98" cy="162.77" r="3"/><circle class="cls-8" cx="475.98" cy="162.77" r="3"/><rect class="cls-7" x="478.39" y="193.77" width="38" height="4"/><circle class="cls-8" cx="515.98" cy="195.77" r="3"/><circle class="cls-8" cx="478.98" cy="195.77" r="3"/><rect class="cls-7" x="480.39" y="210.27" width="34" height="4"/><circle class="cls-8" cx="513.98" cy="212.27" r="3"/><circle class="cls-8" cx="480.98" cy="212.27" r="3"/><rect class="cls-7" x="482.39" y="226.77" width="30" height="4"/><circle class="cls-8" cx="511.98" cy="228.77" r="3"/><circle class="cls-8" cx="482.98" cy="228.77" r="3"/><rect class="cls-7" x="476.89" y="177.27" width="42" height="4"/><circle class="cls-8" cx="476.48" cy="179.27" r="3"/><circle class="cls-8" cx="518.48" cy="179.27" r="3"/><rect class="cls-4" x="534.36" y="260.53" width="13.54" height="22.45" rx="4"/><polygon class="cls-10" points="550.08 267.77 547.2 267.77 546.33 267.77 545.45 267.77 544.58 267.77 543.7 267.77 542.83 267.77 541.95 267.77 541.08 267.77 540.2 267.77 539.33 267.77 538.45 267.77 537.58 267.77 536.7 267.77 535.83 267.77 534.95 267.77 532.08 267.77 534.08 260.52 534.08 253.27 534.08 246.02 534.08 238.77 534.08 231.52 534.08 224.27 534.08 217.02 534.08 209.77 534.08 202.52 534.08 195.27 534.08 188.02 534.08 180.77 534.08 173.52 534.08 166.27 534.08 159.02 534.08 151.77 534.95 151.77 535.83 151.77 536.7 151.77 537.58 151.77 538.45 151.77 539.33 151.77 540.2 151.77 541.08 151.77 541.95 151.77 542.83 151.77 543.7 151.77 544.58 151.77 545.45 151.77 546.33 151.77 547.2 151.77 548.08 151.77 548.08 159.02 548.08 166.27 548.08 173.52 548.08 180.77 548.08 188.02 548.08 195.27 548.08 202.52 548.08 209.77 548.08 217.02 548.08 224.27 548.08 231.52 548.08 238.77 548.08 246.02 548.08 253.27 548.08 260.52 550.08 267.77"/><rect class="cls-10" x="530.98" y="147.84" width="20.3" height="8.46" rx="2"/><rect class="cls-7" x="534.36" y="248.37" width="13.54" height="10.15"/><path class="cls-4" d="M472,88.07a25.07,25.07,0,0,1,50.14,0h-.25q.38,4.84.66,9.69c.18,3.23.34,6.47.46,9.7a59.24,59.24,0,0,1,0,6,20.62,20.62,0,0,1-1.16,5.77,20.25,20.25,0,0,1-2.41,4.46,49,49,0,0,1-3.2,4,69.84,69.84,0,0,1-5.14,5.46,32.43,32.43,0,0,1-5.95,4.48,21.06,21.06,0,0,1-7.07,2.51h-1.32a20.93,20.93,0,0,1-7.06-2.51,32.1,32.1,0,0,1-6-4.48,71.91,71.91,0,0,1-5.15-5.46c-1.11-1.28-2.21-2.6-3.19-4a18.51,18.51,0,0,1-3.57-10.23,56.42,56.42,0,0,1,0-6c.12-3.23.27-6.47.46-9.7Z"/><path class="cls-3" d="M476.27,115.65c.75-1.08-.08-2.68-1.26-3.26a10.39,10.39,0,0,0-3.86-.61,12.91,12.91,0,0,1-4.85-1.37,5,5,0,0,1-2.58-2.49,2.32,2.32,0,0,1,1.27-3c-3-1.37-6.57-3.69-6.06-7,.23-1.46,1.25-2.64,2-3.91,2.59-4.38,2-9.86,2.67-14.92a30.77,30.77,0,0,1,12.15-20.72A30,30,0,0,1,499,53.2a64.43,64.43,0,0,1-2.82,28.25A8.13,8.13,0,0,1,494,85.26c-1.44,1.22-3.45,1.35-5.29,1.64a24.52,24.52,0,0,0-16.94,11.52,3.75,3.75,0,0,0-.67,1.86c0,1.47,1.45,2.43,2.56,3.38A10.32,10.32,0,0,1,477,113.2"/><path class="cls-3" d="M518.5,115.65c-.76-1.08.07-2.68,1.25-3.26a10.44,10.44,0,0,1,3.87-.61,12.91,12.91,0,0,0,4.85-1.37,5,5,0,0,0,2.57-2.49,2.3,2.3,0,0,0-1.26-3c3-1.37,6.57-3.69,6.05-7-.22-1.46-1.24-2.64-2-3.91-2.59-4.38-2-9.86-2.67-14.92A30.77,30.77,0,0,0,519,58.36a30,30,0,0,0-23.24-5.16,64.43,64.43,0,0,0,2.83,28.25,8.13,8.13,0,0,0,2.16,3.81c1.43,1.22,3.44,1.35,5.29,1.64A24.52,24.52,0,0,1,523,98.42a3.75,3.75,0,0,1,.67,1.86c0,1.47-1.45,2.43-2.56,3.38a10.3,10.3,0,0,0-3.35,9.54"/><path class="cls-3" d="M491.05,124.11a9.25,9.25,0,0,1,.1-2.23,5.19,5.19,0,0,1,.61-1.84,1.29,1.29,0,0,1,.47-.46,2.36,2.36,0,0,1,.87-.17l2.38-.2a.75.75,0,0,0,0-1.5c-.89.08-1.79.14-2.68.23a3.39,3.39,0,0,0-1.36.36,2.85,2.85,0,0,0-.88.85,5.64,5.64,0,0,0-.84,2.23,10.85,10.85,0,0,0-.17,2.73.78.78,0,0,0,.75.75.75.75,0,0,0,.75-.75Z"/><path class="cls-3" d="M507.34,123.93a11,11,0,0,0-.18-2.74,5.59,5.59,0,0,0-.83-2.23,3,3,0,0,0-.85-.82,3.26,3.26,0,0,0-1.39-.39c-.9-.09-1.79-.15-2.68-.22a.75.75,0,0,0-.75.75.77.77,0,0,0,.75.75l2.37.2a2.14,2.14,0,0,1,.87.17,1.24,1.24,0,0,1,.48.46,4.93,4.93,0,0,1,.6,1.84,9.76,9.76,0,0,1,.11,2.23.76.76,0,0,0,.75.75.78.78,0,0,0,.75-.75Z"/><circle class="cls-3" cx="487.98" cy="101.08" r="2.33"/><circle class="cls-3" cx="506.17" cy="101.08" r="2.33"/><path class="cls-4" d="M469.65,105.74a4.67,4.67,0,0,1,0-9.33"/><path class="cls-4" d="M525.11,96.41a4.67,4.67,0,1,1,0,9.33"/><rect class="cls-11" x="666.94" y="246.58" width="16.92" height="186.12"/><rect class="cls-11" x="699.8" y="246.58" width="16.92" height="186.12"/><polygon class="cls-11" points="731.08 336.77 709.08 336.77 692.08 336.77 675.08 336.77 653.08 336.77 658.08 289.77 658.08 242.77 658.08 195.77 658.08 153.77 675.08 148.77 692.08 148.77 709.08 148.77 726.08 153.77 726.08 195.77 726.08 242.77 726.08 289.77 731.08 336.77"/><rect class="cls-11" x="681.68" y="138.44" width="20.3" height="10.15"/><path class="cls-3" d="M715.24,427h-9.31a6.62,6.62,0,0,0-2.63.54,6.85,6.85,0,0,0-2.15,1.45,6.74,6.74,0,0,0-1.45,2.15,6.62,6.62,0,0,0-.54,2.63v6.77a6.62,6.62,0,0,0,.54,2.63,6.79,6.79,0,0,0,3.6,3.6,6.62,6.62,0,0,0,2.63.54h37.23a6.53,6.53,0,0,0,2.62-.54,6.77,6.77,0,0,0,3.61-3.6,6.79,6.79,0,0,0,.53-2.63v-3.39Z"/><path class="cls-3" d="M667.76,427h9.31a6.62,6.62,0,0,1,2.63.54,6.85,6.85,0,0,1,2.15,1.45,6.74,6.74,0,0,1,1.45,2.15,6.62,6.62,0,0,1,.54,2.63v6.77a6.62,6.62,0,0,1-.54,2.63,6.79,6.79,0,0,1-3.6,3.6,6.62,6.62,0,0,1-2.63.54H639.84a6.53,6.53,0,0,1-2.62-.54,6.77,6.77,0,0,1-3.61-3.6,6.79,6.79,0,0,1-.53-2.63v-3.39Z"/><rect class="cls-7" x="689.48" y="143.77" width="4" height="140"/><rect class="cls-4" x="642.36" y="262.53" width="13.54" height="22.45" rx="4"/><polygon class="cls-11" points="658.08 269.77 655.2 269.77 654.33 269.77 653.45 269.77 652.58 269.77 651.7 269.77 650.83 269.77 649.95 269.77 649.08 269.77 648.2 269.77 647.33 269.77 646.45 269.77 645.58 269.77 644.7 269.77 643.83 269.77 642.95 269.77 640.08 269.77 642.08 262.52 642.08 255.27 642.08 248.02 642.08 240.77 642.08 233.52 642.08 226.27 642.08 219.02 642.08 211.77 642.08 204.52 642.08 197.27 642.08 190.02 642.08 182.77 642.08 175.52 642.08 168.27 642.08 161.02 642.08 153.77 642.95 153.77 643.83 153.77 644.7 153.77 645.58 153.77 646.45 153.77 647.33 153.77 648.2 153.77 649.08 153.77 649.95 153.77 650.83 153.77 651.7 153.77 652.58 153.77 653.45 153.77 654.33 153.77 655.2 153.77 656.08 153.77 656.08 161.02 656.08 168.27 656.08 175.52 656.08 182.77 656.08 190.02 656.08 197.27 656.08 204.52 656.08 211.77 656.08 219.02 656.08 226.27 656.08 233.52 656.08 240.77 656.08 248.02 656.08 255.27 656.08 262.52 658.08 269.77"/><rect class="cls-11" x="638.98" y="149.84" width="20.3" height="8.46" rx="2"/><rect class="cls-7" x="642.36" y="250.37" width="13.54" height="10.15"/><rect class="cls-7" x="668.39" y="162.77" width="46" height="4"/><circle class="cls-8" cx="712.98" cy="164.77" r="3"/><circle class="cls-8" cx="669.98" cy="164.77" r="3"/><rect class="cls-7" x="672.39" y="195.77" width="38" height="4"/><circle class="cls-8" cx="709.98" cy="197.77" r="3"/><circle class="cls-8" cx="672.98" cy="197.77" r="3"/><rect class="cls-7" x="674.39" y="212.27" width="34" height="4"/><circle class="cls-8" cx="707.98" cy="214.27" r="3"/><circle class="cls-8" cx="674.98" cy="214.27" r="3"/><rect class="cls-7" x="676.39" y="228.77" width="30" height="4"/><circle class="cls-8" cx="705.98" cy="230.77" r="3"/><circle class="cls-8" cx="676.98" cy="230.77" r="3"/><rect class="cls-7" x="670.89" y="179.27" width="42" height="4"/><circle class="cls-8" cx="670.48" cy="181.27" r="3"/><circle class="cls-8" cx="712.48" cy="181.27" r="3"/><rect class="cls-4" x="728.36" y="262.53" width="13.54" height="22.45" rx="4"/><polygon class="cls-11" points="744.08 269.77 741.2 269.77 740.33 269.77 739.45 269.77 738.58 269.77 737.7 269.77 736.83 269.77 735.95 269.77 735.08 269.77 734.2 269.77 733.33 269.77 732.45 269.77 731.58 269.77 730.7 269.77 729.83 269.77 728.95 269.77 726.08 269.77 728.08 262.52 728.08 255.27 728.08 248.02 728.08 240.77 728.08 233.52 728.08 226.27 728.08 219.02 728.08 211.77 728.08 204.52 728.08 197.27 728.08 190.02 728.08 182.77 728.08 175.52 728.08 168.27 728.08 161.02 728.08 153.77 728.95 153.77 729.83 153.77 730.7 153.77 731.58 153.77 732.45 153.77 733.33 153.77 734.2 153.77 735.08 153.77 735.95 153.77 736.83 153.77 737.7 153.77 738.58 153.77 739.45 153.77 740.33 153.77 741.2 153.77 742.08 153.77 742.08 161.02 742.08 168.27 742.08 175.52 742.08 182.77 742.08 190.02 742.08 197.27 742.08 204.52 742.08 211.77 742.08 219.02 742.08 226.27 742.08 233.52 742.08 240.77 742.08 248.02 742.08 255.27 742.08 262.52 744.08 269.77"/><rect class="cls-11" x="724.98" y="149.84" width="20.3" height="8.46" rx="2"/><rect class="cls-7" x="728.36" y="250.37" width="13.54" height="10.15"/><path class="cls-4" d="M669.81,89.19c0-12.89,9.93-23.35,22.17-23.35s22.17,10.46,22.17,23.35v0l-.2,12.63-.19,12.63c0,1.15,0,2.3-.13,3.44a18.21,18.21,0,0,1-.54,3.37,17.91,17.91,0,0,1-1.73,4.11c-.72,1.31-1.56,2.55-2.39,3.78a56.47,56.47,0,0,1-5,6.64,18.44,18.44,0,0,1-6.43,4.77H686.45a18.44,18.44,0,0,1-6.43-4.77,57.59,57.59,0,0,1-5-6.64c-.83-1.23-1.67-2.47-2.39-3.78a17.91,17.91,0,0,1-1.73-4.11,19.09,19.09,0,0,1-.54-3.37c-.09-1.14-.11-2.29-.12-3.44l-.2-12.63-.2-12.63"/><path d="M717,98.16c.77-5,1.54-10.15.75-15.17s-10.39-17.76-17.8-17.84c-2,0-20.9,0-22.73.77a13.24,13.24,0,0,0-3.49,2.24A32.53,32.53,0,0,0,662.1,94.41c.09,1.69,5.36,9.39,6.84,10.3s-1.18-5.47.29-6.59-1.5,1.08,0,0c3.41-2.45,12.26-5.83,16.27-4.5s7.7,3.53,11.81,4.55c6.27,1.56,10.13,2.75,16.56,3.5"/><path class="cls-4" d="M670.61,110.32a4.67,4.67,0,0,1,0-9.33"/><path class="cls-4" d="M712.64,101a4.66,4.66,0,0,1,4.66,4.67,4.64,4.64,0,0,1-4.66,4.66"/><path d="M710.39,98.07a22,22,0,0,1-.23,9.76,59.47,59.47,0,0,1-3.11,9,20,20,0,0,0,6.59-1.1,6.17,6.17,0,0,0-1.51-2,8.27,8.27,0,0,0,1.92-1.56c-.24-.36-.66-.46-.91-.81a2.88,2.88,0,0,1-.14-2.12,36.2,36.2,0,0,0-.15-13.37"/><path d="M709.66,98.27c1.41,6.35-1,12.59-3.33,18.4a.75.75,0,0,0,.72,1,21.76,21.76,0,0,0,6.79-1.12.77.77,0,0,0,.45-1.11,7.64,7.64,0,0,0-1.63-2.19l-.16,1.18a10.49,10.49,0,0,0,2.08-1.68.76.76,0,0,0,0-1.06c-.47-.52-1-.8-.94-1.6s.22-1.44.32-2.16a34.85,34.85,0,0,0,.32-3.95,37.54,37.54,0,0,0-.7-8.26c-.19-1-1.63-.55-1.45.4a36.45,36.45,0,0,1,.58,9.44c-.11,1.47-.42,2.91-.56,4.37a3,3,0,0,0,.2,1.61c.27.55.77.78,1.17,1.21v-1.06a8.72,8.72,0,0,1-1.77,1.44.75.75,0,0,0-.15,1.18,6.17,6.17,0,0,1,1.39,1.89l.45-1.1a20.44,20.44,0,0,1-6.39,1.07l.72.94c2.48-6.09,4.81-12.54,3.34-19.19-.21-.94-1.66-.55-1.45.4Z"/><path d="M672.49,94c-.74,3.16-.08,10.64.64,13.8a59.47,59.47,0,0,0,3.11,9,20,20,0,0,1-6.59-1.1,6.17,6.17,0,0,1,1.51-2,8.27,8.27,0,0,1-1.92-1.56c.25-.36.66-.46.91-.81a2.88,2.88,0,0,0,.14-2.12c-.78-4.39-2.17-10.86-1.3-15.21"/><path d="M671.77,93.83c-.75,3.42-.35,7.22.07,10.66a48.52,48.52,0,0,0,3.68,12.57l.72-.94a20.39,20.39,0,0,1-6.39-1.07l.45,1.1a6.65,6.65,0,0,1,1.39-1.89.75.75,0,0,0-.15-1.18,8.72,8.72,0,0,1-1.77-1.44v1.06c.44-.48,1-.73,1.24-1.39a3.9,3.9,0,0,0,.06-2c-.25-1.62-.59-3.22-.86-4.83-.56-3.34-1.13-6.93-.49-10.3.17-1-1.27-1.35-1.45-.4a27.75,27.75,0,0,0,.15,8.91c.22,1.55.49,3.09.77,4.63.13.69.27,1.38.38,2.07a3.06,3.06,0,0,1,.09,1.09c-.13.53-.61.75-.95,1.11a.76.76,0,0,0,0,1.06,10.49,10.49,0,0,0,2.08,1.68l-.16-1.18a7.6,7.6,0,0,0-1.62,2.19.76.76,0,0,0,.44,1.11,21.76,21.76,0,0,0,6.79,1.12.75.75,0,0,0,.72-1,48.23,48.23,0,0,1-3.62-12.18c-.41-3.29-.84-7-.12-10.26.2-1-1.24-1.35-1.45-.4Z"/><circle cx="682.89" cy="105.66" r="2.33"/><circle cx="701.08" cy="105.66" r="2.33"/><path class="cls-12" d="M681.35,124.85c-.37-2,1-4,2.81-4.91a12.47,12.47,0,0,1,5.91-1,2.19,2.19,0,0,1-.25,3.32,4.62,4.62,0,0,1-2.19.42,13.53,13.53,0,0,0-7.07,2.45"/><path class="cls-12" d="M702.62,124.85c.38-2-1-4-2.8-4.91a12.47,12.47,0,0,0-5.91-1,2.19,2.19,0,0,0,.25,3.32,4.62,4.62,0,0,0,2.19.42,13.53,13.53,0,0,1,7.07,2.45"/></svg>