<svg id="Layer_1" data-name="Layer 1" xmlns="http://www.w3.org/2000/svg" viewBox="0 0 800 600"><defs><style>.cls-1{fill:#f9e8d4;}.cls-2{fill:#798ea4;}.cls-15,.cls-3{fill:#282d3c;}.cls-19,.cls-4,.cls-5,.cls-9{fill:none;}.cls-4{stroke:#392d48;}.cls-10,.cls-13,.cls-15,.cls-19,.cls-4,.cls-5,.cls-7,.cls-8,.cls-9{stroke-miterlimit:10;}.cls-10,.cls-15,.cls-19,.cls-4,.cls-7{stroke-width:0.25px;}.cls-5{stroke:#e8a798;}.cls-6,.cls-7{fill:#eee;}.cls-10,.cls-19,.cls-7{stroke:#e6e7e8;}.cls-10,.cls-8{fill:#fff;}.cls-13,.cls-15,.cls-8,.cls-9{stroke:#000;}.cls-13,.cls-8,.cls-9{stroke-width:0.5px;}.cls-11{fill:#584f49;}.cls-12{fill:#00758f;}.cls-13{opacity:0.1;}.cls-14{fill:#8a837f;}.cls-16{opacity:0.7;}.cls-17{fill:#392d48;}.cls-18{fill:#e8a798;}.cls-20{fill:#b97e64;}.cls-21{fill:#9b4722;}</style></defs><title>resurgence</title><path class="cls-1" d="M669.73,139.8c0-11.87,9.93-21.5,22.17-21.5s22.17,9.63,22.17,21.5v0l-.2,11.63-.2,11.63c0,1,0,2.11-.12,3.17a16.23,16.23,0,0,1-.54,3.1,15.81,15.81,0,0,1-1.73,3.79c-.72,1.2-1.56,2.35-2.39,3.48a55.44,55.44,0,0,1-5,6.12,18.69,18.69,0,0,1-6.43,4.39H686.37a18.69,18.69,0,0,1-6.43-4.39,54.33,54.33,0,0,1-5-6.12c-.83-1.13-1.67-2.28-2.39-3.48a15.81,15.81,0,0,1-1.73-3.79,15.48,15.48,0,0,1-.54-3.1c-.09-1.06-.11-2.12-.13-3.17l-.19-11.63-.2-11.63"/><path class="cls-1" d="M670.19,156.88a4.68,4.68,0,0,1-4.67-4.67,4.68,4.68,0,0,1,4.67-4.67"/><path class="cls-1" d="M712.22,147.54a4.67,4.67,0,0,1,0,9.34"/><circle class="cls-2" cx="685.46" cy="156.21" r="2"/><circle class="cls-2" cx="697.65" cy="156.21" r="2"/><path class="cls-3" d="M672,187.36a12.36,12.36,0,0,1,.57-6,48.71,48.71,0,0,1,2.53-5.9,33.79,33.79,0,0,0,2.36-5.85,10.53,10.53,0,0,0,.06-5.89,10.3,10.3,0,0,0-1.06-2.34,22,22,0,0,0-1.48-2.14c-.53-.69-1.08-1.38-1.6-2.08A17.89,17.89,0,0,1,672,155a6.67,6.67,0,0,1-.76-2.36,7.9,7.9,0,0,1,0-2.52,7.71,7.71,0,0,1,.83-2.36,6.13,6.13,0,0,1,1.57-1.86,11.88,11.88,0,0,1,2.93-1.66,12.43,12.43,0,0,1,3.29-.79,8.71,8.71,0,0,1,3.16.27,5.8,5.8,0,0,1,2.57,1.49c1.25,1.28,2.38,1.42,3.35.84a6.72,6.72,0,0,0,2.32-3.52,17.89,17.89,0,0,0,.92-5.37,10.44,10.44,0,0,0-.82-4.75c.36,1.12.74,2.51,1.08,4s.66,3.2.9,4.87a45.12,45.12,0,0,1,.45,4.89,18.65,18.65,0,0,1-.27,4.12,11.78,11.78,0,0,0,3.16-3.61,26.21,26.21,0,0,0,2.23-5,49.8,49.8,0,0,0,1.45-5.48c.37-1.8.64-3.54.83-5.05a9.33,9.33,0,0,1,.54,3.57,45.19,45.19,0,0,1-.3,4.87c-.18,1.71-.42,3.42-.62,4.94s-.38,2.84-.43,3.76c.38-.68,1-1.76,1.59-3.05s1.39-2.76,2.13-4.24,1.47-3,2.12-4.25,1.21-2.37,1.6-3l1,11.74-2,11.73,2.94,11.73-1,11.74c0,.46,3.39-.28,4-1.77s1.37-3.72,2.14-6.25,1.54-5.34,2.12-8a36.28,36.28,0,0,0,1-7c0-1.07,0-2.14,0-3.21s-.11-2.14-.2-3.21-.21-2.13-.36-3.19-.34-2.11-.56-3.16c-.14-.65-.25-1.37-.35-2.13s-.2-1.53-.32-2.3-.25-1.53-.42-2.24a9.39,9.39,0,0,0-.68-1.9c-.78-1.51-1.39-2.94-1.94-4.31s-1.06-2.68-1.63-3.93a19.12,19.12,0,0,0-2-3.55,15.41,15.41,0,0,0-3.2-3.21,18,18,0,0,0-5-2.53,35.26,35.26,0,0,0-6.31-1.49,43.22,43.22,0,0,0-6.54-.47,28.15,28.15,0,0,0-5.67.57,19.87,19.87,0,0,0-6.86,3,27.08,27.08,0,0,0-5.6,5.12,40.53,40.53,0,0,0-4.4,6.55,54.16,54.16,0,0,0-3.24,7.24,51.5,51.5,0,0,0-1.6,5.16,33.63,33.63,0,0,0-.91,5.32,23.19,23.19,0,0,0,.11,5.27,17.49,17.49,0,0,0,1.48,5,25.41,25.41,0,0,0,2.55,4.13c1,1.33,2,2.62,2.94,3.93a22.71,22.71,0,0,1,2.43,4.06,10.81,10.81,0,0,1,1,4.49"/><line class="cls-4" x1="680.65" y1="151.3" x2="686.65" y2="148.3"/><line class="cls-4" x1="701.65" y1="151.3" x2="695.65" y2="148.3"/><line class="cls-5" x1="683.98" y1="171.5" x2="699.98" y2="171.5"/><path class="cls-1" d="M82.88,135.23c0-14.77,11.23-26.75,25.08-26.75s25.08,12,25.08,26.75l-.07-1.31c.83,8.42,0,17.53.08,25.51a64,64,0,0,1-.2,7.06,20.62,20.62,0,0,1-1.71,6.69,19.74,19.74,0,0,1-2.87,4.33c-1.12,1.32-2.36,2.55-3.58,3.75a49,49,0,0,1-7,6,14.75,14.75,0,0,1-8.16,2.8h-3.15a14.72,14.72,0,0,1-8.16-2.8,48.42,48.42,0,0,1-7-6c-1.23-1.2-2.47-2.43-3.59-3.75a20.07,20.07,0,0,1-2.86-4.33,20.62,20.62,0,0,1-1.71-6.69,61.6,61.6,0,0,1-.2-7.06c.08-8-.76-17.09.07-25.51"/><path class="cls-1" d="M83.54,155.87a5.05,5.05,0,0,1-5.07-5.07,5.07,5.07,0,0,1,5.07-5.08"/><path class="cls-1" d="M133.59,145.72a5.08,5.08,0,1,1,0,10.15"/><rect class="cls-3" x="83.5" y="295.6" width="16.92" height="186.12"/><polygon class="cls-1" points="116.64 197.3 108.64 210.3 100.64 197.3 100.64 192.3 100.64 187.3 108.64 187.3 116.64 187.3 116.64 192.3 116.64 197.3"/><path class="cls-6" d="M131.8,476.06h-9.31a6.74,6.74,0,0,0-2.62.53,6.74,6.74,0,0,0-3.61,3.61,6.74,6.74,0,0,0-.53,2.62v6.77a6.73,6.73,0,0,0,2,4.78,6.93,6.93,0,0,0,2.16,1.46,6.74,6.74,0,0,0,2.62.53h37.23a6.79,6.79,0,0,0,6.23-4.14,6.62,6.62,0,0,0,.54-2.63v-3.38Z"/><path class="cls-6" d="M84.32,476.06h9.31a6.73,6.73,0,0,1,4.78,2,7.1,7.1,0,0,1,1.46,2.16,6.74,6.74,0,0,1,.53,2.62v6.77a6.79,6.79,0,0,1-.53,2.63,6.94,6.94,0,0,1-1.46,2.15,6.68,6.68,0,0,1-4.78,2H56.41a6.76,6.76,0,0,1-6.77-6.77v-3.38Z"/><rect class="cls-1" x="60.58" y="315.55" width="13.54" height="22.45" rx="4" ry="4"/><rect class="cls-1" x="141.93" y="315.55" width="13.54" height="22.45" rx="4" ry="4"/><path class="cls-7" d="M155.3,293.28v-86.1a5.65,5.65,0,0,0-5.69-5.57h-2.23a5.65,5.65,0,0,0-5.69,5.57V312.71a5.42,5.42,0,0,0,.4,2v3.56h13.6v-25Z"/><path class="cls-7" d="M74,293.28v-86.1a5.64,5.64,0,0,0-5.68-5.57H66a5.65,5.65,0,0,0-5.68,5.57V312.71a5.42,5.42,0,0,0,.4,2v3.56h13.6v-25Z"/><polygon class="cls-7" points="138.28 488.72 111.36 488.72 116.36 302.6 133.28 302.6 138.28 488.72"/><polygon class="cls-7" points="105.28 488.72 78.36 488.72 83.36 302.6 100.28 302.6 105.28 488.72"/><polygon class="cls-7" points="112.64 299.65 95.09 325.31 77.54 325.31 77.54 259.7 77.54 199.09 95.14 193.8 112.64 259.7 112.64 299.65"/><circle class="cls-8" cx="99.34" cy="151.18" r="5.83"/><circle class="cls-8" cx="116.91" cy="151.18" r="5.83"/><line class="cls-9" x1="105.14" y1="150.8" x2="111.14" y2="150.8"/><polygon class="cls-7" points="103.54 299.65 121.09 325.31 138.64 325.31 138.64 259.7 138.64 199.09 121.04 193.8 103.54 259.7 103.54 299.65"/><polygon class="cls-10" points="111.49 197.55 118.33 190.26 122.71 194.37 113.13 204.58 111.49 197.55"/><polygon class="cls-10" points="104.71 197.55 97.86 190.26 93.49 194.37 103.07 204.58 104.71 197.55"/><path class="cls-1" d="M276.57,132.63a26.21,26.21,0,0,1,52.41,0l-.8-5a92,92,0,0,1,1.47,22.65c-.59,7.49-2.5,14.71-6.56,21a43.91,43.91,0,0,1-2.62,3.63c-.93,1.16-1.91,2.29-2.92,3.39a42.34,42.34,0,0,1-5.74,5.38,19.56,19.56,0,0,1-6.88,3.45l-4.32-.21a19.41,19.41,0,0,1-6.88-3.46,41.61,41.61,0,0,1-5.73-5.37q-1.51-1.65-2.93-3.4a42.9,42.9,0,0,1-2.62-3.63c-4.05-6.31-6-13.53-6.55-21a92,92,0,0,1,1.46-22.64"/><path class="cls-1" d="M276.2,153.79a5.08,5.08,0,0,1,0-10.16"/><path class="cls-1" d="M328.92,143.63a5.08,5.08,0,0,1,0,10.16"/><circle class="cls-11" cx="311.54" cy="149.5" r="3"/><circle class="cls-11" cx="293.54" cy="149.5" r="3"/><rect class="cls-3" x="278.13" y="295.6" width="16.92" height="186.12"/><polygon class="cls-1" points="310.26 197.3 303.26 207.3 295.26 197.3 295.26 190.8 295.26 184.3 302.76 184.3 310.26 184.3 310.26 190.8 310.26 197.3"/><path class="cls-6" d="M326.43,476.06h-9.31a6.73,6.73,0,0,0-4.78,2,6.9,6.9,0,0,0-1.45,2.16,6.57,6.57,0,0,0-.54,2.62v6.77a6.62,6.62,0,0,0,.54,2.63,6.74,6.74,0,0,0,6.23,4.14h37.22a6.76,6.76,0,0,0,6.77-6.77v-3.38Z"/><path class="cls-6" d="M279,476.06h9.31a6.74,6.74,0,0,1,2.62.53,6.74,6.74,0,0,1,3.61,3.61,6.74,6.74,0,0,1,.53,2.62v6.77a6.73,6.73,0,0,1-2,4.78,6.93,6.93,0,0,1-2.16,1.46,6.74,6.74,0,0,1-2.62.53H251a6.79,6.79,0,0,1-6.23-4.14,6.62,6.62,0,0,1-.54-2.63v-3.38Z"/><rect class="cls-1" x="256.21" y="315.55" width="13.54" height="22.45" rx="4" ry="4"/><rect class="cls-1" x="336.55" y="315.55" width="13.54" height="22.45" rx="4" ry="4"/><path class="cls-12" d="M349.92,293.28v-86.1a5.65,5.65,0,0,0-5.68-5.57H342a5.65,5.65,0,0,0-5.68,5.57V312.71a5.42,5.42,0,0,0,.4,2v3.56h13.6v-25Z"/><path class="cls-12" d="M269.58,293.28v-86.1a5.65,5.65,0,0,0-5.68-5.57h-2.24a5.64,5.64,0,0,0-5.68,5.57V312.71a5.62,5.62,0,0,0,.39,2v3.56H270v-25Z"/><polygon class="cls-12" points="332.91 488.72 305.99 488.72 310.99 302.6 327.91 302.6 332.91 488.72"/><polygon class="cls-12" points="299.91 488.72 272.99 488.72 277.99 302.6 294.91 302.6 299.91 488.72"/><polygon class="cls-12" points="307.26 299.65 289.71 325.31 272.16 325.31 272.16 259.7 272.16 199.09 289.76 193.8 307.26 259.7 307.26 299.65"/><polygon class="cls-12" points="298.16 299.65 315.71 325.31 333.26 325.31 333.26 259.7 333.26 199.09 315.66 193.8 298.16 259.7 298.16 299.65"/><path class="cls-3" d="M301.76,109.71c1.2,2.3-.61,20.94-3,22.1-3.68,1.79-15.64,3.73-16,7.68s-1.77,9.36-1,13.38-1.77,13.56-1,15.44.61,4.19,2,5.76c1.61,1.81,0,4.56,1,6.73,0,0-3.65.64-4.41-.37a6.5,6.5,0,0,1-.75-1.89,13.82,13.82,0,0,0-2.11-3.1c-2.51-3.35-3.23-7.64-3.32-11.76s.41-8.27,0-12.38-1.69-8.38-.94-12.52a26.5,26.5,0,0,1,2.25-6.2,162.11,162.11,0,0,1,9-15.64C286.76,111.64,298.76,104,301.76,109.71Z"/><path class="cls-3" d="M300.76,109.79c0,1.12-.45,13.2.23,14.09s1.5,15.14,2.77,15.22c4.69.28,17.84-2,18.7-.19.64,1.39,1.75,2.54,2.41,3.92A14.27,14.27,0,0,1,326,147.5c.83,7.26-1.75,21.85-3.19,29-2.11,10.56,8,0,7.75-6.89-.06-1.6,1.23-3,1.58-4.53a25.41,25.41,0,0,0,.5-4.61l.53-11.32a16,16,0,0,0-.44-5.82,36.73,36.73,0,0,0-1.71-3.59c-1.34-2.92-1.65-6.2-2.05-9.39a36.17,36.17,0,0,0-2.71-10.86,15,15,0,0,0-7.72-7.8c-3.37-1.32-5.13-4.28-8.73-3.92-2.67.26-4.33-.27-7,0Z"/><path class="cls-13" d="M303.52,169.8h3l7,3s4,1,6-1a4.16,4.16,0,0,0,3.51-1l-.39.64-.39.61-.38.59-.35.55-.33.5-.29.44-.25.36-.21.26a1.84,1.84,0,0,1-.17.22l-.18.22-.18.22-.17.21-.18.22-.18.21-.19.21-.18.22-.18.21-.19.21-.18.21-.19.21-.18.21-.19.21-.19.2-.19.21-.33.36-.33.36-.34.36-.34.35c-.12.12-.23.24-.35.35l-.34.35-.36.35-.35.34-.36.34-.36.33-.37.33-.37.32-.38.32-.38.31-.38.31-.39.29c-.13.1-.26.2-.4.29l-.39.29-.41.27-.4.26-.41.26-.42.25-.42.23-.43.23-.43.21-.44.21-.44.19-.45.18-.45.17-.46.15-.47.14-.47.13-.27,0h-.54l-.27,0h-2.1l-.27,0h-.54l-.27,0-.47-.13-.46-.14-.46-.15-.46-.17-.44-.18-.45-.19-.43-.21-.44-.21-.42-.23-.42-.23-.42-.25-.41-.26-.41-.26-.4-.27-.4-.29-.39-.29-.39-.29-.39-.31-.38-.31-.37-.32c-.13-.1-.25-.21-.37-.32l-.37-.33-.36-.33c-.13-.11-.24-.23-.36-.34l-.36-.34-.35-.35c-.12-.11-.23-.23-.35-.35s-.23-.23-.34-.35-.23-.24-.35-.35l-.33-.36-.34-.36-.33-.36-.19-.21-.18-.2-.19-.21-.19-.21-.18-.21-.19-.21-.18-.21-.19-.21-.18-.22-.18-.21-.18-.21-.18-.22-.18-.21-.18-.22-.17-.22-.18-.22-.2-.26-.25-.36-.3-.44-.32-.5c-.12-.17-.24-.36-.36-.55l-.37-.59-.39-.61-.4-.64a4.18,4.18,0,0,0,3.51,1c2,2,6,1,6,1l7-3h4.5Z"/><ellipse class="cls-1" cx="303.26" cy="174.3" rx="5" ry="1"/><polygon class="cls-10" points="306.12 197.55 312.96 190.26 317.33 194.37 307.75 204.58 306.12 197.55"/><polygon class="cls-10" points="299.33 197.55 292.49 190.26 288.12 194.37 297.7 204.58 299.33 197.55"/><path class="cls-11" d="M489.77,126.33c-.63,4.47,2.2,8.55,4.86,12,4,5.19,8.26,10.57,14,13,3.13,1.33,7,2.06,8.51,5.34,1.69,3.55-.34,8.21,1.28,11.79a3.43,3.43,0,0,1,.52,1.78,2.37,2.37,0,0,1-1.13,1.48,35.28,35.28,0,0,1-6.4,3.69c-.32,2-1.83,3.9-1.44,5.93.33,1.68,1.83,2.71,3.2,3.54a14.39,14.39,0,0,0,4.21,2,4.7,4.7,0,0,0,4.33-1l.15-.23a11,11,0,0,0,7.34-3.38c1.84-1.89,3.13-4.45,5.27-5.88a3.46,3.46,0,0,0,1.37-1.23c.49-1-.2-2.21-.82-3.13a50,50,0,0,1-4.82-9,5,5,0,0,1-.54-2.83,14.35,14.35,0,0,0,.38-1.43c.14-1.27-.91-2.26-1.67-3.23-3.7-4.71-1.55-12.2-3.65-18-.85-2.35-2.42-4.52-2.33-7,.08-2.26,1.52-4.47.9-6.63l.18.21c.14-1.38-1.18-2.28-2.07-3.25-2.57-2.8-2-7.65-4-11-1.78-3-5.19-4.13-8.34-4.9-5.36-1.3-11-2.1-16.25-.28a4.47,4.47,0,0,0-2.27,1.44,6.21,6.21,0,0,0-.76,3.67l0,17.33"/><path class="cls-1" d="M472.07,137.62a25.07,25.07,0,0,1,50.14,0H522q.38,4.84.66,9.69c.19,3.24.34,6.47.46,9.71a59,59,0,0,1,0,5.95,20.34,20.34,0,0,1-1.16,5.78,20,20,0,0,1-2.41,4.45c-1,1.4-2.08,2.71-3.19,4a71.77,71.77,0,0,1-5.15,5.45,31.24,31.24,0,0,1-5.95,4.48,21,21,0,0,1-7.06,2.52h-1.32a21,21,0,0,1-7.07-2.52,31.56,31.56,0,0,1-5.95-4.48,69.7,69.7,0,0,1-5.14-5.45,49.16,49.16,0,0,1-3.2-4,20,20,0,0,1-2.41-4.45,20.69,20.69,0,0,1-1.16-5.78,59,59,0,0,1,0-5.95c.12-3.24.27-6.47.46-9.71Z"/><circle class="cls-11" cx="487.92" cy="150.63" r="2.33"/><circle class="cls-11" cx="506.11" cy="150.63" r="2.33"/><path class="cls-1" d="M472.59,155.3a4.67,4.67,0,1,1,0-9.33"/><path class="cls-1" d="M522.05,146a4.67,4.67,0,0,1,0,9.33"/><polygon class="cls-1" points="510.98 194.3 496.98 210.3 483.98 194.3 489.98 194.3 489.98 187.3 497.48 187.3 504.98 187.3 504.98 194.3 510.98 194.3"/><path class="cls-6" d="M521.05,476.06h-9.31a6.74,6.74,0,0,0-2.62.53,6.74,6.74,0,0,0-3.61,3.61,6.74,6.74,0,0,0-.53,2.62v6.77a6.73,6.73,0,0,0,2,4.78,6.93,6.93,0,0,0,2.16,1.46,6.74,6.74,0,0,0,2.62.53H549a6.79,6.79,0,0,0,6.23-4.14,6.62,6.62,0,0,0,.54-2.63v-3.38Z"/><path class="cls-6" d="M473.57,476.06h9.31a6.73,6.73,0,0,1,4.78,2,6.9,6.9,0,0,1,1.45,2.16,6.57,6.57,0,0,1,.54,2.62v6.77a6.62,6.62,0,0,1-.54,2.63,6.74,6.74,0,0,1-6.23,4.14H445.66a6.76,6.76,0,0,1-6.77-6.77v-3.38Z"/><rect class="cls-1" x="447.83" y="315.55" width="13.54" height="22.45" rx="4" ry="4"/><rect class="cls-1" x="534.18" y="315.55" width="13.54" height="22.45" rx="4" ry="4"/><path class="cls-2" d="M547.55,293.28v-86.1a5.65,5.65,0,0,0-5.69-5.57h-2.24a5.65,5.65,0,0,0-5.68,5.57V312.71a5.42,5.42,0,0,0,.4,2v3.56h13.6v-25Z"/><path class="cls-2" d="M461.2,293.28v-86.1a5.64,5.64,0,0,0-5.68-5.57h-2.24a5.65,5.65,0,0,0-5.68,5.57V312.71a5.42,5.42,0,0,0,.4,2v3.56h13.6v-25Z"/><polygon class="cls-2" points="497.01 306.3 511.34 325.31 522.01 298.3 528.89 259.7 528.89 199.09 511.34 194.09 511.34 194.09 497.01 210.3 497.01 306.3"/><polygon class="cls-2" points="497.01 306.3 484.34 325.31 472.01 298.3 466.79 259.7 466.79 199.09 484.34 194.09 484.34 194.09 497.01 210.3 497.01 306.3"/><polygon class="cls-12" points="526.66 484.72 499.74 484.72 504.74 298.6 521.66 298.6 526.66 484.72"/><polygon class="cls-12" points="493.66 484.72 466.74 484.72 471.74 298.6 488.66 298.6 493.66 484.72"/><polygon class="cls-2" points="500.87 197.55 507.71 190.26 512.09 194.37 502.5 204.58 500.87 197.55"/><polygon class="cls-2" points="494.08 197.55 487.24 190.26 482.87 194.37 492.45 204.58 494.08 197.55"/><rect class="cls-12" x="472.01" y="298.3" width="50" height="20"/><path class="cls-11" d="M531.38,150.55c-3.7-4.25-1.55-11-3.65-16.25-.85-2.12-2.42-4.08-2.33-6.36.08-2,1.52-4,.9-6l.18.19c.14-1.24-1.18-2.06-2.07-2.94-2.57-2.53-2-6.91-4-9.91-1.78-2.7-5.19-3.73-8.34-4.43-5.36-1.17-11-1.89-16.25-.25a4.51,4.51,0,0,0-2.27,1.3,5.17,5.17,0,0,0-.76,3.32l0,15.66"/><path class="cls-11" d="M529.38,152.55c-3.7-4.25-1.56-11-3.65-16.25-.85-2.12-2.42-4.08-2.33-6.36.08-2,1.52-4,.9-6l.18.19c.14-1.24-1.18-2.06-2.07-2.94-2.57-2.53-2-6.91-4-9.91-1.78-2.7-5.19-3.73-8.34-4.43-5.35-1.17-11-1.89-16.25-.25a4.51,4.51,0,0,0-2.27,1.3,5.17,5.17,0,0,0-.76,3.32c0,5.22.26,10.85.25,16.07l-.22-.14c-.77,3.7,2.67,7.08,5.9,9.93,4.86,4.3,10,8.76,17,10.79,2.4.7,13,3.41,15.26,4.4Z"/><path class="cls-14" d="M499,168.26a.86.86,0,0,0,.22,1.06,2.5,2.5,0,0,0,1.08.46l2.39.58a6.3,6.3,0,0,1,1.48.5c.45.25.84.6,1.28.88a1.9,1.9,0,0,0,1.47.32,2.38,2.38,0,0,0-.2-1.93,2.3,2.3,0,0,0-.78-.55c-2.09-1.08-4.3-2.19-6.65-2.08-.24,0-.53.08-.59.31s.06.45-.12.52"/><path class="cls-14" d="M495.55,168.26a.84.84,0,0,1-.21,1.06,2.61,2.61,0,0,1-1.08.46l-2.39.58a6.37,6.37,0,0,0-1.49.5c-.45.25-.83.6-1.27.88a1.9,1.9,0,0,1-1.47.32,2.34,2.34,0,0,1,.19-1.93,2.4,2.4,0,0,1,.78-.55c2.09-1.08,4.3-2.19,6.65-2.08.24,0,.54.08.59.31s-.05.45.13.52"/><path class="cls-11" d="M520.07,145.2c.94,3.19.57,6.83.9,10.14.41,4.15.83,8.3,1,12.46.1,1.92,3.1,1.93,3,0-.23-4.55-.77-9.07-1.16-13.61-.27-3.24,0-6.65-.89-9.79-.54-1.85-3.44-1.06-2.89.8Z"/><polygon class="cls-1" points="697.46 197.6 692.31 206.6 687.16 197.6 687.16 192.53 687.16 187.45 692.31 187.45 697.46 187.45 697.46 192.53 697.46 197.6"/><path class="cls-15" d="M715.68,476.06h-9.31a6.73,6.73,0,0,0-4.78,2,7.1,7.1,0,0,0-1.46,2.16,6.74,6.74,0,0,0-.53,2.62v6.77a6.79,6.79,0,0,0,.53,2.63,6.94,6.94,0,0,0,1.46,2.15,6.68,6.68,0,0,0,4.78,2h37.22a6.76,6.76,0,0,0,6.77-6.77v-3.38Z"/><path class="cls-15" d="M668.2,476.06h9.31a6.74,6.74,0,0,1,2.62.53,6.74,6.74,0,0,1,3.61,3.61,6.74,6.74,0,0,1,.53,2.62v6.77a6.73,6.73,0,0,1-2,4.78,6.93,6.93,0,0,1-2.16,1.46,6.74,6.74,0,0,1-2.62.53H640.28a6.79,6.79,0,0,1-6.23-4.14,6.62,6.62,0,0,1-.54-2.63v-3.38Z"/><rect class="cls-1" x="642.46" y="315.55" width="13.54" height="22.45" rx="4" ry="4"/><rect class="cls-1" x="728.8" y="315.55" width="13.54" height="22.45" rx="4" ry="4"/><path class="cls-3" d="M742.17,293.28v-86.1a5.65,5.65,0,0,0-5.68-5.57h-2.24a5.64,5.64,0,0,0-5.68,5.57V312.71a5.42,5.42,0,0,0,.4,2v3.56h13.6v-25Z"/><path class="cls-3" d="M655.83,293.28v-86.1a5.65,5.65,0,0,0-5.68-5.57h-2.24a5.64,5.64,0,0,0-5.68,5.57V312.71a5.41,5.41,0,0,0,.39,2v3.56h13.61v-25Z"/><polygon class="cls-3" points="688.41 343.89 705.96 380.3 723.51 380.3 723.51 287.19 723.51 199.09 705.96 194.09 705.96 194.09 688.41 287.19 688.41 343.89"/><polygon class="cls-3" points="696.51 343.89 678.96 380.3 661.41 380.3 661.41 287.19 661.41 199.09 678.96 194.09 678.96 194.09 696.51 287.19 696.51 343.89"/><g class="cls-16"><path class="cls-17" d="M683.74,172.32a9.37,9.37,0,0,1,5.07-.88c1,0,1-1.47,0-1.5A10.84,10.84,0,0,0,683,171a.75.75,0,0,0,.76,1.3Z"/><path class="cls-17" d="M698.74,171a10.79,10.79,0,0,0-5.82-1.08c-1,0-1,1.53,0,1.5a9.35,9.35,0,0,1,5.06.88.75.75,0,0,0,.76-1.3Z"/></g><ellipse class="cls-18" cx="690.64" cy="174.8" rx="5.5" ry="0.5"/><polygon class="cls-10" points="695.49 197.55 702.34 190.26 706.71 194.37 697.13 204.58 695.49 197.55"/><polygon class="cls-10" points="688.71 197.55 681.87 190.26 677.49 194.37 687.07 204.58 688.71 197.55"/><line class="cls-19" x1="692.64" y1="206.3" x2="693.64" y2="259.3"/><polygon class="cls-3" points="722.28 484.72 695.36 484.72 700.36 298.6 717.28 298.6 722.28 484.72"/><polygon class="cls-3" points="689.28 484.72 662.36 484.72 667.36 298.6 684.28 298.6 689.28 484.72"/><path class="cls-20" d="M108.76,172.39h3.18l7.43,3.7s4.24,1.23,6.36-1.24a4.06,4.06,0,0,0,3.72-1.21c-.14.26-.28.52-.41.78l-.42.76c-.13.25-.27.49-.39.73l-.38.68-.35.61-.31.54-.27.44-.21.33-.19.27-.18.27a2.48,2.48,0,0,0-.19.26l-.19.27-.19.26-.19.27c-.07.08-.13.17-.2.26l-.19.26-.19.26-.2.26c-.07.09-.13.18-.2.26l-.19.26c-.07.09-.14.17-.2.26s-.13.17-.2.26l-.2.25-.2.26c-.12.14-.23.29-.35.44l-.36.44c-.11.15-.23.3-.35.44s-.24.3-.37.44l-.36.43-.37.44-.37.42-.38.42-.38.42-.39.41-.39.41-.39.4-.4.39-.4.38-.41.38-.41.36-.42.36-.42.35-.43.33-.43.33-.44.32-.44.3-.45.29-.45.28c-.15.09-.3.18-.46.26l-.46.25a5.21,5.21,0,0,1-.47.24l-.48.22c-.16.08-.32.14-.48.21l-.48.19-.5.18-.5.15-.28,0-.29,0h-.28l-.29,0-.29,0h-1.66l-.28,0-.29,0h-.29l-.28,0-.29,0-.5-.15-.49-.18-.49-.19c-.16-.07-.32-.13-.48-.21l-.47-.22a4.16,4.16,0,0,1-.47-.24l-.47-.25-.45-.26-.46-.28-.44-.29-.45-.3-.43-.32-.44-.33-.42-.33-.42-.35-.42-.36L98,189l-.41-.38-.4-.38-.4-.39-.4-.4L96,187c-.13-.13-.25-.27-.38-.41l-.38-.42-.38-.42-.37-.42-.37-.44c-.13-.14-.25-.28-.37-.43l-.36-.44-.36-.44c-.12-.14-.24-.29-.35-.44l-.35-.44c-.07-.09-.14-.17-.2-.26l-.2-.25-.2-.26-.2-.26-.2-.26-.19-.26c-.07-.08-.13-.17-.2-.26l-.19-.26-.2-.26-.19-.26-.19-.27a2.48,2.48,0,0,1-.19-.26l-.19-.27-.19-.26-.19-.27-.18-.27a3.76,3.76,0,0,1-.22-.33l-.26-.44-.32-.54-.34-.61-.38-.68-.4-.73-.41-.76-.42-.78a4.08,4.08,0,0,0,3.72,1.21c2.13,2.47,6.37,1.24,6.37,1.24l7.42-3.7h4.78Z"/><ellipse class="cls-1" cx="107.96" cy="177.3" rx="5" ry="1"/><path class="cls-21" d="M81,192.84c2.11,2.26,6.26,1,7.75-1.74s1-6.08.07-9-2.28-5.84-2.42-8.93c-.13-2.82.76-5.57,1.6-8.27s1.62-5.49,1.3-8.29-.67-7.08-.67-7.08c-.29-3.35,4.29-4.69,4-8-.14-1.63,2.4-4.51,3-6a14.28,14.28,0,0,1,6-7c2-1.14,1.62-6.89,3-9s7-6.67,6-9l-8-1a10.87,10.87,0,0,0-6.15-.35c-6.77,1.36-13.95,8.17-15.8,14.84-1.36,4.88-1.51,10-1.9,15.07-.42,5.31-1.15,10.76-3.73,15.41-1,1.82-2.29,3.51-2.83,5.51-1.47,5.42,2.84,10.67,3.35,16.26.43,4.79-2,9.41-2,14.23a3.86,3.86,0,0,0,.59,2.23c1.79,2.61,5.53.4,8.47.92"/><path class="cls-21" d="M129.1,151.67c1.53,1.87,1.83,9.49.89,11.72-2.68,6.38-6.28,14.14-3.35,20.41a20.62,20.62,0,0,1,1,4.08c.14.75-2.23,6.41-2,7.14.63,2,7.58.53,9-1l3,1c2.11-.06,1.48-7.64,1.36-9.79s-.9-4.33-.33-6.4a31.68,31.68,0,0,1,1.52-3.3c1.7-4.05-.24-8.65-.39-13.05-.25-7.09,1.1-13.81-1.16-20.51-2-5.87-5.45-9.71-7.19-15.65-.61-2.08-.58-4.29-1-6.42a14.82,14.82,0,0,0-4.95-8.39,8.15,8.15,0,0,0-3.69-1.92c-1.3-.24-9.87-1.52-11.17-1.29-5.82,1-6,0-10.24,4.53l.85-.54c-1.58,3.48.11,13.51,3.39,15.39,2.71,1.56,3.56-.94,6,1,4.45,3.59,4.67,8.23,8,12.87,1.4,1.92,3.58,3.05,5.68,4.11"/><path class="cls-11" d="M500.89,116c-4,6.48-2.32,15.21-4.42,22.66a7.22,7.22,0,0,1-1.16,2.55,8.21,8.21,0,0,1-3.09,2.05,52.8,52.8,0,0,0-7.44,4.33,13.14,13.14,0,0,0-4.77,5c-.54,1.15-.79,2.44-1.37,3.56-.93,1.83-2.63,3.11-3.59,4.92-1.42,2.66-1.05,6,0,8.86s2.77,5.35,4,8.11,2,6,1.11,8.86c-.53,1.66-1.86,3.24-3.49,3.16a5.08,5.08,0,0,1-1.63-.48l-12.61-5.38c-1.38-.59-3-1.47-3.11-3a6.8,6.8,0,0,0,2.94-1.4,2.74,2.74,0,0,0,.66-3.13c-.7-1.23-2.34-1.22-3.68-1-.43-1.05.56-2.18,1.57-2.55s2.17-.36,3.07-1a4.65,4.65,0,0,0,1.6-2.59,11.75,11.75,0,0,0-.55-8,10.72,10.72,0,0,0-1.74,4.31c-.56-3.34,1.43-6.86.4-10.08a33.84,33.84,0,0,0-1.85-3.59,14,14,0,0,1-1-6.09c.14-10,4.42-19.29,8.61-28.21,1.45-3.08,3.09-6.37,6-7.87,1.61-.84,3.55-1.08,4.8-2.45.42-.46.74-1,1.2-1.45,1.88-1.73,4.84-.11,7.23-.84l-1.37,1.37a24.45,24.45,0,0,1,5.4-2,10.1,10.1,0,0,1,5.61,0,5.37,5.37,0,0,1,3.63,4.25c.3,2.72-1.82,5.11-2,7.83"/><ellipse class="cls-1" cx="499" cy="176" rx="5" ry="1"/></svg>