<svg id="Layer_1" data-name="Layer 1" xmlns="http://www.w3.org/2000/svg" viewBox="0 0 800 600"><defs><style>.cls-1,.cls-2{fill:#55c6a9;}.cls-1,.cls-10,.cls-11,.cls-8{stroke:#edd59e;}.cls-1,.cls-10,.cls-11,.cls-3,.cls-5,.cls-6,.cls-8{stroke-miterlimit:10;}.cls-1,.cls-10,.cls-11,.cls-3,.cls-8{stroke-width:0.25px;}.cls-3,.cls-5,.cls-6{stroke:#000;}.cls-4{fill:#f9e8d4;}.cls-5{fill:#fff;}.cls-5,.cls-6{stroke-width:0.5px;}.cls-6{fill:none;}.cls-7{fill:#edd59e;}.cls-8,.cls-9{fill:#00758f;}.cls-10{fill:orange;}.cls-11{fill:#cd212a;}.cls-12{fill:#4e4a65;}</style></defs><title>Artboard 1</title><rect class="cls-1" x="83.86" y="295.81" width="16.92" height="186.12"/><rect class="cls-1" x="116.73" y="295.81" width="16.92" height="186.12"/><rect class="cls-2" x="98.6" y="187.67" width="20.3" height="10.15"/><path class="cls-3" d="M132.16,476.27h-9.3a6.79,6.79,0,0,0-2.63.53,6.94,6.94,0,0,0-2.15,1.46,6.68,6.68,0,0,0-2,4.78v6.77a6.7,6.7,0,0,0,.53,2.62,6.93,6.93,0,0,0,1.46,2.16,6.73,6.73,0,0,0,4.78,2h37.22a6.73,6.73,0,0,0,4.78-2,7.1,7.1,0,0,0,1.46-2.16,6.7,6.7,0,0,0,.53-2.62v-3.39Z"/><path d="M80,147.23c-2.34,3.68-.18,8.6,1.77,12.51s3.45,7,6.59,10c1.25,1.2,3.07,2.48,4.54,1.57,1.14-.71,1.25-2.29,1.24-3.63l-.18-24c0-1.4-.11-3-1.21-3.85a4.21,4.21,0,0,0-2.8-.62"/><path d="M79.65,147.05c-2.76,5.64,1.06,12,3.87,17,1.4,2.44,5.75,9.87,9.54,7.64,1.87-1.09,1.41-4.11,1.42-5.8,0-4.31-.07-8.63-.1-12.94,0-4.67,2.24-13.78-4.46-14.08-.48,0-.48.72,0,.75,5.23.24,3.7,11.84,3.72,15.18,0,3.65,1,8.55.09,12-2.29,8.63-8.77-1.65-10.26-4.45-2.37-4.42-5.63-9.87-3.17-14.91.21-.43-.44-.81-.65-.37Z"/><path d="M136.54,147.23c2.34,3.68.18,8.6-1.76,12.51s-3.45,7-6.59,10c-1.25,1.2-3.08,2.48-4.55,1.57-1.14-.71-1.25-2.29-1.24-3.63l.18-24c0-1.4.11-3,1.21-3.85a4.21,4.21,0,0,1,2.8-.62"/><path d="M135.89,147.61c2.38,4.88-.88,10.25-3.17,14.53-1.46,2.75-7.34,12.31-9.56,4.64-1-3.27.06-8.55.09-12,0-3.09-1.45-14.59,3.34-14.81,1,0,1-1.54,0-1.5-7,.32-4.79,9.51-4.83,14.46,0,4.31-.12,8.63-.1,12.94,0,1.88-.42,4.94,1.6,6.13,4.06,2.38,8.58-5.19,10-7.78,2.9-5.06,6.71-11.55,3.88-17.34-.42-.87-1.72-.11-1.3.75Z"/><path class="cls-4" d="M84.31,135.91c0-14.78,11.23-26.76,25.08-26.76s25.08,12,25.08,26.76l-.07-1.32c.83,8.42,0,17.53.08,25.51a64,64,0,0,1-.21,7.06,20.24,20.24,0,0,1-1.71,6.7,19.29,19.29,0,0,1-2.86,4.32c-1.12,1.32-2.36,2.55-3.59,3.75a49,49,0,0,1-7,6,14.91,14.91,0,0,1-8.17,2.8h-3.15a14.91,14.91,0,0,1-8.16-2.8,49,49,0,0,1-7-6c-1.22-1.2-2.46-2.43-3.58-3.75a19.29,19.29,0,0,1-2.86-4.32,20.5,20.5,0,0,1-1.72-6.7,66.51,66.51,0,0,1-.2-7.06c.08-8-.75-17.09.08-25.51"/><path d="M79.53,151.88c-.7-12.3-1.16-26,4.53-36.76A17.46,17.46,0,0,1,87,110.86a15.89,15.89,0,0,1,5.26-3.2,48.23,48.23,0,0,1,17-3.64,16.25,16.25,0,0,1,7.75,1.29c2.39,1.2,3.57,6.9,3.67,9.69.25-2.31,3.82-6.79,5.92-6.1s9,6.87,9.67,9.06c2.2,6.77.5,33.08-1.54,33-3.81-.25-5-5.4-6.91-8.88-3.2-5.83-10.52-8.53-12.64-14.88-.75,2.69-3.26,4.44-5.81,5.23s-5.24.87-7.82,1.53"/><path d="M79.91,151.88c-.68-12.21-1.62-26.39,4.9-37.33,4.16-7,13.32-9.15,21-9.93,2.91-.3,7-.81,9.67.45,3.86,1.81,4.61,6.15,4.86,9.93a.38.38,0,0,0,.74.1c.61-2.56,3.11-6.4,6.21-5.46,1.45.43,2.88,2.1,4,3.09,2.3,2,4.47,4.08,5.1,7.17,1.22,6,.68,12.7.27,18.77a71.21,71.21,0,0,1-1,8.74c-.1.53-.15,1.89-.54,2.3-1.78,1.86-4.19-2.17-5.07-3.89-1.56-3-2.78-5.74-5.22-8.18-3.41-3.41-7.41-5.92-9.28-10.59a.38.38,0,0,0-.73,0c-2.29,5.69-8.44,5.44-13.36,6.5-.47.1-.27.82.2.72,3.83-.82,8.36-.79,11.49-3.47,2.58-2.2,1.33-3.07,3.59,0s5.46,5.1,8,7.81c2.94,3.09,3.63,7,6.18,10.29,2.13,2.71,4.27,3.26,5.17-.05,1.41-5.18,1.41-11,1.53-16.37.11-4.58.84-11-1.29-15.27-1.35-2.71-7.1-9-10.5-8.78-1.81.14-3.43,2.2-4.31,3.58a14.69,14.69,0,0,1-1,1.92c.14-.1.67.6.38-.41-.45-1.53-.5-3.13-1.07-4.66-2.4-6.5-10.14-5.63-15.92-4.81-5.14.72-11,2.09-15.34,5-3.53,2.35-5.41,6.4-6.84,10.27-3.8,10.31-3.21,21.74-2.61,32.51,0,.48.78.48.75,0Z"/><path class="cls-4" d="M81.23,156.55a5.08,5.08,0,0,1,0-10.16"/><path class="cls-4" d="M136.28,146.39a5.08,5.08,0,0,1,0,10.16"/><path d="M83.62,145.06a153.61,153.61,0,0,0-.37,16.48c.28,5.47,1.22,11,3,14.11.41-12.52.42-25.14,0-37.67-1.1.08-2.18,1.3-3,3.33"/><path d="M82.87,145.06c-.58,10-1.84,21.67,2.7,31,.35.7,1.38.32,1.4-.38q.59-18.83,0-37.67a.76.76,0,0,0-1-.73c-1.87.62-2.57,1.89-3.39,3.68-.4.87.89,1.63,1.29.75,2.12-4.58,1.71,2.47,1.74,4.22q.09,5,.09,9.92,0,9.93-.31,19.83l1.4-.37c-4.4-9-3.06-20.53-2.5-30.22,0-1-1.45-1-1.5,0Z"/><path d="M133.51,145.06a153.6,153.6,0,0,1,.36,16.48c-.27,5.47-1.22,11-3,14.11-.41-12.52-.41-25.14,0-37.67,1.09.08,2.17,1.3,2.94,3.33"/><path d="M132.76,145.06c.56,9.69,1.9,21.21-2.51,30.22l1.4.37c-.2-6.6-.32-13.21-.31-19.83q0-4.45.08-8.93c0-1.49-.31-3.49.1-4.95.46-1.66.33-3.12,1.65-.26.41.88,1.7.12,1.3-.75-.83-1.79-1.53-3.06-3.39-3.68a.76.76,0,0,0-1,.73q-.56,18.84,0,37.67c0,.7,1.06,1.09,1.4.38,4.54-9.3,3.28-21,2.71-31-.06-1-1.56-1-1.5,0Z"/><circle class="cls-5" cx="99.88" cy="151.88" r="5.83"/><circle class="cls-5" cx="117.45" cy="151.88" r="5.83"/><path d="M101.05,174.67a4.15,4.15,0,0,1,5.57-5.14c.9.35,1.29-1.1.4-1.45a5.64,5.64,0,0,0-7.42,7c.29.92,1.74.53,1.45-.39Z"/><path d="M118.45,175.06a5.64,5.64,0,0,0-7.42-7c-.89.35-.5,1.8.4,1.45a4.14,4.14,0,0,1,5.57,5.14c-.28.92,1.16,1.31,1.45.39Z"/><line class="cls-6" x1="106.65" y1="151.88" x2="110.68" y2="151.88"/><path class="cls-1" d="M142.67,205c0-4.1-3-7.44-6.77-7.44H81.75C78,197.56,75,200.9,75,205v83.64a8,8,0,0,0,1,3.78,7.92,7.92,0,0,0-1,3.78v83.64c0,4.09,3,7.44,6.76,7.44H135.9c3.72,0,6.77-3.35,6.77-7.44V296.2a7.81,7.81,0,0,0-1-3.78,7.87,7.87,0,0,0,1-3.78Z"/><path class="cls-3" d="M84.69,476.27H94a6.79,6.79,0,0,1,2.63.53,6.94,6.94,0,0,1,2.15,1.46,6.68,6.68,0,0,1,2,4.78v6.77a6.7,6.7,0,0,1-.53,2.62,6.93,6.93,0,0,1-1.46,2.16,6.73,6.73,0,0,1-4.78,2H56.77a6.73,6.73,0,0,1-4.78-2,6.93,6.93,0,0,1-1.46-2.16,6.7,6.7,0,0,1-.53-2.62v-3.39Z"/><rect class="cls-4" x="58.94" y="315.76" width="13.54" height="22.45" rx="4" ry="4"/><rect class="cls-4" x="145.29" y="315.76" width="13.54" height="22.45" rx="4" ry="4"/><path class="cls-1" d="M158.66,293.49V207.4a5.64,5.64,0,0,0-5.68-5.57h-2.24a5.63,5.63,0,0,0-5.68,5.57V312.92a5.41,5.41,0,0,0,.39,2v3.56h13.61v-25Z"/><path class="cls-1" d="M72.31,293.49V207.4a5.63,5.63,0,0,0-5.68-5.57H64.39a5.64,5.64,0,0,0-5.68,5.57V312.92a5.42,5.42,0,0,0,.4,2v3.56h13.6v-25Z"/><rect class="cls-1" x="141.9" y="199.07" width="20.3" height="8.46" rx="2" ry="2"/><rect class="cls-1" x="55.56" y="199.07" width="20.3" height="8.46" rx="2" ry="2"/><rect class="cls-7" x="58.94" y="300.59" width="13.54" height="10.15"/><rect class="cls-7" x="145.29" y="300.59" width="13.54" height="10.15"/><rect class="cls-7" x="91.83" y="222.31" width="33.84" height="5.08" rx="1.33" ry="1.33"/><rect class="cls-7" x="91.83" y="241.31" width="33.84" height="5.08" rx="1.33" ry="1.33"/><rect class="cls-7" x="91.83" y="260.32" width="33.84" height="5.08" rx="1.33" ry="1.33"/><rect class="cls-7" x="91.83" y="279.33" width="33.84" height="5.08" rx="1.33" ry="1.33"/><rect class="cls-7" x="37.68" y="261.72" width="142.15" height="5.08" rx="1.33" ry="1.33" transform="translate(-155.5 373.01) rotate(-90)"/><rect class="cls-7" x="91.83" y="298.34" width="33.84" height="5.08" rx="1.33" ry="1.33"/><rect class="cls-8" x="278.25" y="295.81" width="16.92" height="186.12"/><rect class="cls-8" x="311.11" y="295.81" width="16.92" height="186.12"/><rect class="cls-9" x="293" y="187.67" width="20.3" height="10.15"/><path class="cls-3" d="M326.55,476.27h-9.31a6.79,6.79,0,0,0-2.63.53,6.94,6.94,0,0,0-2.15,1.46,6.74,6.74,0,0,0-1.45,2.15,6.62,6.62,0,0,0-.54,2.63v6.77a6.53,6.53,0,0,0,.54,2.62,6.9,6.9,0,0,0,1.45,2.16,6.73,6.73,0,0,0,4.78,2h37.22a6.76,6.76,0,0,0,6.77-6.76v-3.39Z"/><path class="cls-8" d="M337,205c0-4.1-3-7.44-6.77-7.44H276.08c-3.72,0-6.77,3.34-6.77,7.44v83.64a7.87,7.87,0,0,0,1,3.78,7.81,7.81,0,0,0-1,3.78v83.64c0,4.09,3.05,7.44,6.77,7.44h54.14c3.73,0,6.77-3.35,6.77-7.44V296.2a7.92,7.92,0,0,0-1-3.78,8,8,0,0,0,1-3.78Z"/><path class="cls-3" d="M279.07,476.27h9.31a6.7,6.7,0,0,1,2.62.53,7.1,7.1,0,0,1,2.16,1.46,6.73,6.73,0,0,1,2,4.78v6.77a6.7,6.7,0,0,1-.53,2.62A6.74,6.74,0,0,1,291,496a6.7,6.7,0,0,1-2.62.53H251.15a6.73,6.73,0,0,1-4.78-2,6.9,6.9,0,0,1-1.45-2.16,6.53,6.53,0,0,1-.54-2.62v-3.39Z"/><rect class="cls-4" x="253.33" y="315.76" width="13.54" height="22.45" rx="4" ry="4"/><rect class="cls-4" x="339.38" y="315.76" width="13.54" height="22.45" rx="4" ry="4"/><path class="cls-8" d="M352.75,293.49V207.4a5.64,5.64,0,0,0-5.68-5.57h-2.24a5.63,5.63,0,0,0-5.68,5.57V312.92a5.42,5.42,0,0,0,.4,2v3.56h13.6v-25Z"/><path class="cls-8" d="M266.7,293.49V207.4a5.64,5.64,0,0,0-5.68-5.57h-2.24a5.63,5.63,0,0,0-5.68,5.57V312.92a5.62,5.62,0,0,0,.39,2v3.56H267.1v-25Z"/><rect class="cls-8" x="336" y="199.07" width="20.3" height="8.46" rx="2" ry="2"/><rect class="cls-8" x="249.94" y="199.07" width="20.3" height="8.46" rx="2" ry="2"/><rect class="cls-7" x="253.33" y="300.59" width="13.54" height="10.15"/><rect class="cls-7" x="339.38" y="300.59" width="13.54" height="10.15"/><rect class="cls-7" x="286.23" y="222.31" width="33.84" height="5.08" rx="1.33" ry="1.33"/><rect class="cls-7" x="286.23" y="241.31" width="33.84" height="5.08" rx="1.33" ry="1.33"/><rect class="cls-7" x="286.23" y="260.32" width="33.84" height="5.08" rx="1.33" ry="1.33"/><rect class="cls-7" x="286.23" y="279.33" width="33.84" height="5.08" rx="1.33" ry="1.33"/><rect class="cls-7" x="233.15" y="261.92" width="140" height="4.67" rx="1.33" ry="1.33" transform="translate(38.9 567.41) rotate(-90)"/><rect class="cls-7" x="286.23" y="298.34" width="33.84" height="5.08" rx="1.33" ry="1.33"/><rect class="cls-10" x="487.37" y="187.67" width="20.3" height="10.15"/><path class="cls-4" d="M471.9,138.3a25.07,25.07,0,0,1,50.14,0h-.26q.39,4.83.66,9.69c.19,3.23.34,6.47.46,9.7a56.42,56.42,0,0,1,0,6,18.44,18.44,0,0,1-3.57,10.22,47.38,47.38,0,0,1-3.19,4,69.86,69.86,0,0,1-5.15,5.46,31.61,31.61,0,0,1-6,4.47,20.74,20.74,0,0,1-7.06,2.52h-1.32a20.74,20.74,0,0,1-7.06-2.52,32,32,0,0,1-6-4.47,71.67,71.67,0,0,1-5.14-5.46,47.38,47.38,0,0,1-3.19-4,20,20,0,0,1-2.42-4.45,20.62,20.62,0,0,1-1.16-5.77,56.42,56.42,0,0,1,0-6c.11-3.23.27-6.47.45-9.7Z"/><rect class="cls-10" x="472.63" y="295.81" width="16.92" height="186.12"/><rect class="cls-10" x="505.49" y="295.81" width="16.92" height="186.12"/><path class="cls-3" d="M520.93,476.27h-9.31a6.7,6.7,0,0,0-2.62.53,7.1,7.1,0,0,0-2.16,1.46,6.73,6.73,0,0,0-2,4.78v6.77a6.7,6.7,0,0,0,.53,2.62A6.74,6.74,0,0,0,509,496a6.7,6.7,0,0,0,2.62.53h37.23a6.73,6.73,0,0,0,4.78-2,6.9,6.9,0,0,0,1.45-2.16,6.53,6.53,0,0,0,.54-2.62v-3.39Z"/><path class="cls-10" d="M531.43,205c0-4.1-3-7.44-6.77-7.44H470.53c-3.72,0-6.77,3.34-6.77,7.44v83.62a7.87,7.87,0,0,0,1,3.78,7.81,7.81,0,0,0-1,3.78v83.62c0,4.09,3.05,7.44,6.77,7.44h54.13c3.72,0,6.77-3.35,6.77-7.44V296.2a7.81,7.81,0,0,0-1-3.78,7.87,7.87,0,0,0,1-3.78Z"/><path class="cls-3" d="M473.45,476.27h9.31a6.79,6.79,0,0,1,2.63.53,6.94,6.94,0,0,1,2.15,1.46,6.74,6.74,0,0,1,1.45,2.15,6.62,6.62,0,0,1,.54,2.63v6.77a6.53,6.53,0,0,1-.54,2.62,6.9,6.9,0,0,1-1.45,2.16,6.73,6.73,0,0,1-4.78,2H445.54a6.76,6.76,0,0,1-6.77-6.76v-3.39Z"/><rect class="cls-4" x="448.3" y="315.76" width="13.54" height="22.45" rx="4" ry="4"/><rect class="cls-4" x="534.05" y="315.76" width="13.54" height="22.45" rx="4" ry="4"/><path class="cls-10" d="M547.42,293.49V207.4a5.63,5.63,0,0,0-5.68-5.57H539.5a5.64,5.64,0,0,0-5.68,5.57V312.92a5.42,5.42,0,0,0,.4,2v3.56h13.6v-25Z"/><path class="cls-10" d="M461.67,293.49V207.4a5.64,5.64,0,0,0-5.69-5.57h-2.23a5.64,5.64,0,0,0-5.69,5.57V312.92a5.42,5.42,0,0,0,.4,2v3.56h13.6v-25Z"/><rect class="cls-10" x="530.67" y="199.07" width="20.3" height="8.46" rx="2" ry="2"/><rect class="cls-10" x="444.91" y="199.07" width="20.3" height="8.46" rx="2" ry="2"/><rect class="cls-7" x="448.3" y="300.59" width="13.54" height="10.15"/><rect class="cls-7" x="534.05" y="300.59" width="13.54" height="10.15"/><rect class="cls-7" x="480.6" y="222.31" width="33.84" height="5.08" rx="1.33" ry="1.33"/><rect class="cls-7" x="480.6" y="241.31" width="33.84" height="5.08" rx="1.33" ry="1.33"/><rect class="cls-7" x="480.6" y="260.32" width="33.84" height="5.08" rx="1.33" ry="1.33"/><rect class="cls-7" x="480.6" y="279.33" width="33.84" height="5.08" rx="1.33" ry="1.33"/><rect class="cls-7" x="426.45" y="261.72" width="142.15" height="5.08" rx="1.33" ry="1.33" transform="translate(233.27 761.78) rotate(-90)"/><rect class="cls-7" x="480.6" y="298.34" width="33.84" height="5.08" rx="1.33" ry="1.33"/><path d="M476.19,165.88c.76-1.09-.07-2.68-1.25-3.27a10.64,10.64,0,0,0-3.87-.6,12.91,12.91,0,0,1-4.85-1.37,5,5,0,0,1-2.57-2.5,2.3,2.3,0,0,1,1.26-3c-3-1.37-6.57-3.69-6.05-7,.23-1.46,1.24-2.65,2-3.91,2.59-4.38,2-9.86,2.68-14.92a30.7,30.7,0,0,1,12.14-20.72,30,30,0,0,1,23.24-5.16,64.43,64.43,0,0,1-2.83,28.25,8.2,8.2,0,0,1-2.15,3.81c-1.44,1.22-3.45,1.35-5.3,1.64a24.49,24.49,0,0,0-16.94,11.52,3.85,3.85,0,0,0-.67,1.86c0,1.47,1.45,2.43,2.57,3.38a10.29,10.29,0,0,1,3.34,9.54"/><path d="M476.92,166.08c.4-1.77.16-2.94-1.53-4.05a7,7,0,0,0-1.69-.56l-4.1-.43c-3.07-.17-4.51-1.93-4.31-5.26a.76.76,0,0,0,0-1.3c-1.35-.66-3.25-1.5-4.2-2.65-3-3.62-.1-5.9,1.1-8.57a19.54,19.54,0,0,0,1.39-5.48c.87-6.71.8-12.9,4.2-19A29.15,29.15,0,0,1,484.6,105a24,24,0,0,1,9.45-1.31c2.8.34,3.87.77,4.45,3.35a25.34,25.34,0,0,1,.13,5.37c-.09,5.63-.53,21.11-7.4,23.57-2.53.91-5.3.88-7.86,1.9a25.31,25.31,0,0,0-6.05,3.43c-2.28,1.75-6.93,5.75-7,9.05a3.91,3.91,0,0,0,1.05,2.62c2.88,3.71,5.4,5.18,4.83,10.5-.1,1,1.4.95,1.5,0a11.51,11.51,0,0,0-1.15-7c-1.68-3.17-5.51-4.53-3.37-8.71,1.68-3.27,5.57-6,8.73-7.62,3.45-1.78,6.88-1.7,10.4-3,4.69-1.68,5.5-7.93,6.4-12.18a67.8,67.8,0,0,0,1-21.55.76.76,0,0,0-.55-.72c-14.52-2.45-28.78,5-34.33,18.85a33.26,33.26,0,0,0-2.16,9.28c-.52,5.31-.91,9.37-3.21,14.26-2.52,5.33.07,8.21,5.12,10.68v-1.3a3.34,3.34,0,0,0-.86,5.16c1.49,2,12.31,3.78,11.8,6-.21.94,1.23,1.34,1.45.4Z"/><path d="M518.42,165.88c-.75-1.09.08-2.68,1.26-3.27a10.59,10.59,0,0,1,3.86-.6,12.86,12.86,0,0,0,4.85-1.37,5,5,0,0,0,2.58-2.5,2.31,2.31,0,0,0-1.27-3c3-1.37,6.57-3.69,6.06-7-.23-1.46-1.25-2.65-2-3.91-2.59-4.38-2-9.86-2.67-14.92a30.75,30.75,0,0,0-12.15-20.72,30,30,0,0,0-23.23-5.16,64.43,64.43,0,0,0,2.82,28.25,8.22,8.22,0,0,0,2.16,3.81c1.44,1.22,3.45,1.35,5.3,1.64a24.49,24.49,0,0,1,16.93,11.52,3.75,3.75,0,0,1,.67,1.86c0,1.47-1.45,2.43-2.56,3.38a10.32,10.32,0,0,0-3.35,9.54"/><path d="M519.15,165.68c-.54-2.36,10.31-4,11.79-6a3.33,3.33,0,0,0-.86-5.16v1.3c5.06-2.47,7.65-5.35,5.13-10.68-2.3-4.89-2.69-8.95-3.21-14.26a33.28,33.28,0,0,0-2.17-9.28c-5.54-13.82-19.8-21.3-34.32-18.85a.74.74,0,0,0-.55.72,67.22,67.22,0,0,0,1,21.55c.91,4.26,1.7,10.5,6.39,12.18,3.51,1.26,6.95,1.2,10.4,3,3,1.53,7.23,4.43,8.74,7.62,1.79,3.79-1.25,5.14-3,8a11.72,11.72,0,0,0-1.51,7.64c.11.95,1.61,1,1.5,0a10.55,10.55,0,0,1,1.3-6.88c1.12-1.78,2.39-2.15,3.53-3.62a3.7,3.7,0,0,0,1.07-2.52c0-3.35-4.63-7.29-7-9.09a25,25,0,0,0-5.43-3.21c-2.6-1.12-6.19-.93-8.56-2.18-6.85-3.62-7.28-17-7.4-23.57,0-1.49,0-3,.09-4.47.15-2.79.5-3.68,3.68-4.2S506.88,104,510,105a29.12,29.12,0,0,1,16.45,13.12c3.56,6.1,3.71,12.18,4.48,19a21.23,21.23,0,0,0,1.49,6.24c1.21,2.71,4,4.84,1.09,8.57-.95,1.2-2.86,2-4.2,2.65a.77.77,0,0,0,0,1.3c.2,3.33-1.23,5.09-4.31,5.26l-4.1.43a7.14,7.14,0,0,0-1.69.56c-1.68,1.11-1.92,2.28-1.52,4.05.21.94,1.66.54,1.45-.4Z"/><path d="M491,174.34a7.7,7.7,0,0,1,.52-3.71c.63-1.33,2.62-1.08,3.9-1.19,1-.08,1-1.58,0-1.5-1.63.14-3.78-.1-4.87,1.38a8,8,0,0,0-1,5c0,1,1.55,1,1.5,0Z"/><path d="M507.26,174.16a8.06,8.06,0,0,0-1.06-5c-1.08-1.48-3.23-1.24-4.87-1.37-1-.09-.95,1.41,0,1.5,1.29.1,3.27-.15,3.91,1.19a7.91,7.91,0,0,1,.52,3.71c-.05,1,1.45,1,1.5,0Z"/><circle cx="487.9" cy="151.31" r="2.33"/><circle cx="506.09" cy="151.31" r="2.33"/><path class="cls-4" d="M469.58,156a4.67,4.67,0,0,1,0-9.33"/><path class="cls-4" d="M525,146.64a4.66,4.66,0,0,1,4.66,4.67A4.64,4.64,0,0,1,525,156"/><rect class="cls-11" x="681.75" y="188.15" width="20.3" height="10.15"/><path class="cls-4" d="M669.74,139.42c0-12.89,9.92-23.35,22.17-23.35s22.16,10.46,22.16,23.35v0L713.88,152l-.2,12.63c0,1.14,0,2.3-.12,3.44a19.09,19.09,0,0,1-.54,3.37,18.36,18.36,0,0,1-1.73,4.11c-.73,1.3-1.56,2.55-2.4,3.78a55.4,55.4,0,0,1-5,6.64,18.56,18.56,0,0,1-6.43,4.77h-11A18.56,18.56,0,0,1,680,186a55.4,55.4,0,0,1-5-6.64c-.84-1.23-1.67-2.48-2.4-3.78a16.28,16.28,0,0,1-2.26-7.48c-.09-1.14-.11-2.3-.13-3.44l-.2-12.63-.19-12.63"/><rect class="cls-11" x="667.01" y="296.3" width="16.92" height="186.12"/><rect class="cls-11" x="699.88" y="296.3" width="16.92" height="186.12"/><path class="cls-3" d="M715.31,476.76H706a6.76,6.76,0,0,0-6.77,6.77v6.76a6.76,6.76,0,0,0,6.77,6.77h37.22a6.76,6.76,0,0,0,6.77-6.77v-3.38Z"/><path class="cls-11" d="M725.82,205.48c0-4.09-3.05-7.44-6.77-7.44H664.91c-3.73,0-6.77,3.35-6.77,7.44v83.64a7.92,7.92,0,0,0,1,3.78,8,8,0,0,0-1,3.79v83.63c0,4.1,3,7.45,6.77,7.45h54.14c3.72,0,6.77-3.35,6.77-7.45V296.69a7.88,7.88,0,0,0-1-3.79,7.81,7.81,0,0,0,1-3.78Z"/><path class="cls-3" d="M667.84,476.76h9.3a6.76,6.76,0,0,1,6.77,6.77v6.76a6.76,6.76,0,0,1-6.77,6.77H639.92a6.68,6.68,0,0,1-4.78-2,6.94,6.94,0,0,1-1.46-2.15,6.79,6.79,0,0,1-.53-2.63v-3.38Z"/><rect class="cls-4" x="642.1" y="316.25" width="13.54" height="22.45" rx="4" ry="4"/><rect class="cls-4" x="728.15" y="316.25" width="13.54" height="22.45" rx="4" ry="4"/><path class="cls-11" d="M741.52,294v-86.1a5.65,5.65,0,0,0-5.69-5.57H733.6a5.65,5.65,0,0,0-5.69,5.57V313.41a5.42,5.42,0,0,0,.4,2V319h13.6V294Z"/><path class="cls-11" d="M655.47,294v-86.1a5.65,5.65,0,0,0-5.69-5.57h-2.23a5.65,5.65,0,0,0-5.69,5.57V313.41a5.42,5.42,0,0,0,.4,2V319h13.6V294Z"/><rect class="cls-11" x="724.76" y="199.56" width="20.3" height="8.46" rx="2" ry="2"/><rect class="cls-11" x="638.71" y="199.56" width="20.3" height="8.46" rx="2" ry="2"/><rect class="cls-7" x="642.1" y="301.08" width="13.54" height="10.15"/><rect class="cls-7" x="728.15" y="301.08" width="13.54" height="10.15"/><rect class="cls-7" x="674.98" y="222.79" width="33.84" height="5.08" rx="1.33" ry="1.33"/><rect class="cls-7" x="674.98" y="241.8" width="33.84" height="5.08" rx="1.33" ry="1.33"/><rect class="cls-7" x="674.98" y="260.81" width="33.84" height="5.08" rx="1.33" ry="1.33"/><rect class="cls-7" x="674.98" y="279.82" width="33.84" height="5.08" rx="1.33" ry="1.33"/><rect class="cls-7" x="620.83" y="262.2" width="142.15" height="5.08" rx="1.33" ry="1.33" transform="translate(427.16 956.65) rotate(-90)"/><rect class="cls-7" x="674.98" y="298.83" width="33.84" height="5.08" rx="1.33" ry="1.33"/><path d="M716.91,148.39c.76-5,1.53-10.15.75-15.17s-10.39-17.76-17.8-17.85c-2,0-20.9,0-22.73.78a13.13,13.13,0,0,0-3.5,2.24A32.51,32.51,0,0,0,662,144.64c.09,1.69,5.36,9.39,6.84,10.3s-1.18-5.47.29-6.59-1.5,1.07,0,0c3.4-2.45,12.25-5.83,16.26-4.5s7.7,3.53,11.81,4.55c6.28,1.55,10.13,2.75,16.56,3.5"/><path class="cls-4" d="M670.54,160.55a4.67,4.67,0,1,1,0-9.33"/><path class="cls-4" d="M712.56,151.22a4.67,4.67,0,0,1,0,9.33"/><path d="M710.31,148.3a21.9,21.9,0,0,1-.23,9.76,59,59,0,0,1-3.1,9,19.58,19.58,0,0,0,6.58-1.09,6.17,6.17,0,0,0-1.51-2A8.82,8.82,0,0,0,714,162.4c-.25-.36-.66-.46-.92-.81a2.93,2.93,0,0,1-.14-2.12,36.48,36.48,0,0,0-.14-13.38"/><path d="M709.59,148.5c1.22,6.49-.94,12.46-3.34,18.39a.75.75,0,0,0,.73,1,24.12,24.12,0,0,0,6.78-1.12.76.76,0,0,0,.45-1.1,8.07,8.07,0,0,0-1.63-2.19l-.15,1.18a12.35,12.35,0,0,0,2.08-1.68.76.76,0,0,0,0-1.06c-1.56-1.41-.31-6.32-.29-8.35a40.66,40.66,0,0,0-.72-7.63c-.17-.94-1.61-.54-1.45.4.83,4.63.25,8.5.14,13.08,0,.12.17,2.28.15,2.42-.17,1.51,2.48-.66-.67,1.52a.77.77,0,0,0-.15,1.18l1.39,1.89.45-1.1a23.41,23.41,0,0,1-6.38,1.06l.72.95c2.52-6.24,4.61-12.41,3.33-19.19-.18-.95-1.62-.55-1.44.4Z"/><path d="M672.42,144.25c-.74,3.17-.09,10.64.64,13.81a59,59,0,0,0,3.1,9,19.58,19.58,0,0,1-6.58-1.09,6.17,6.17,0,0,1,1.51-2,8.82,8.82,0,0,1-1.93-1.56c.25-.36.66-.46.92-.81a2.93,2.93,0,0,0,.14-2.12c-.78-4.39-2.18-10.86-1.3-15.22"/><path d="M671.69,144.06c-1.44,7.89.82,16,3.75,23.23l.72-.95a25.12,25.12,0,0,1-6.38-1.06l.44,1.1,1.4-1.89a.77.77,0,0,0-.15-1.18c-1.73-1.2-.55-.45-.67-1.52s.2-2,0-3.15c-.75-4.71-1.9-9.39-1.19-14.19.14-.94-1.3-1.35-1.45-.39a30.86,30.86,0,0,0,.1,8.53c.31,2.3,2.17,7.62.34,9.28a.76.76,0,0,0,0,1.06,12.35,12.35,0,0,0,2.08,1.68l-.15-1.18a8.07,8.07,0,0,0-1.63,2.19.76.76,0,0,0,.45,1.1,25.58,25.58,0,0,0,6.78,1.12.76.76,0,0,0,.73-1c-2.82-7-5.14-14.83-3.75-22.44.17-.94-1.27-1.34-1.45-.39Z"/><circle cx="682.81" cy="155.88" r="2.33"/><circle cx="701" cy="155.88" r="2.33"/><path class="cls-12" d="M681.28,175.07c-.37-2,1-4,2.81-4.9a12.35,12.35,0,0,1,5.91-1,2.19,2.19,0,0,1-.26,3.32,4.49,4.49,0,0,1-2.19.41,13.48,13.48,0,0,0-7.07,2.46"/><path class="cls-12" d="M702.55,175.07c.37-2-1-4-2.81-4.9a12.35,12.35,0,0,0-5.91-1,2.19,2.19,0,0,0,.26,3.32,4.45,4.45,0,0,0,2.18.41,13.42,13.42,0,0,1,7.07,2.46"/><path class="cls-4" d="M277,136.31a26.21,26.21,0,1,1,52.41,0l-.8-5A91.57,91.57,0,0,1,330,154a41.41,41.41,0,0,1-9.17,24.66c-.93,1.16-1.92,2.29-2.92,3.4a42.9,42.9,0,0,1-5.74,5.37,19.58,19.58,0,0,1-6.88,3.46l-4.32-.21a19.75,19.75,0,0,1-6.88-3.46,42.34,42.34,0,0,1-5.74-5.38c-1-1.1-2-2.23-2.92-3.39s-1.81-2.38-2.62-3.63a44.86,44.86,0,0,1-6.55-21,92,92,0,0,1,1.46-22.65"/><path class="cls-4" d="M276.81,157.46a5.08,5.08,0,0,1,0-10.15"/><path class="cls-4" d="M329.53,147.31a5.08,5.08,0,0,1,0,10.15"/><path d="M297.29,170.19c-.88-1.62,1.16-2.6,2.43-2.86a7.33,7.33,0,0,1,3.63.19c.46.14.66-.59.2-.73a7.65,7.65,0,0,0-5.49.31c-1.34.69-2.19,2-1.42,3.47.23.42.88.05.65-.38Z"/><path d="M309.66,170.57c.77-1.43-.08-2.78-1.42-3.47a7.65,7.65,0,0,0-5.49-.31c-.46.14-.26.87.2.73a7.33,7.33,0,0,1,3.63-.19c1.27.26,3.31,1.24,2.43,2.86-.23.43.42.8.65.38Z"/><path d="M272.57,150.57c-1.45-9.9-2.63-21,3.34-29,6.51-8.78,18.8-10.35,29.71-11.19,4.55-.35,9.25-.68,13.57.78,6.66,2.25,11.35,8.5,13.53,15.18s2.2,13.85,2.18,20.88c0,1.33-.27,3-1.55,3.33-1.07.27-2-.64-2.79-1.44A37.56,37.56,0,0,0,314.11,139a14.7,14.7,0,0,0,4.87-7.37,18.73,18.73,0,0,0-18.57,5.78c.59-2.38.42-5.92-2-6.09-1.84-.14-2.92,1.91-4.13,3.29-4.67,5.29-15.76,2.87-18,9.56-.46,1.39-.37,2.93-.87,4.31s-2,2.61-3.38,2"/><path d="M273.29,150.37c-1.73-12.06-2.76-26.39,9.14-33.69,8.42-5.15,21.23-6.48,30.91-5.81,14.54,1,19.92,14.8,20.66,27.52.1,1.76,1.07,7.24.15,8.81-1.14,2-3.08.9-4.2.21a30.27,30.27,0,0,1-2.59-2.27,40.68,40.68,0,0,0-13.05-6.84l.33,1.25a17.53,17.53,0,0,0,5.07-7.7.76.76,0,0,0-.53-.92,20,20,0,0,0-19.3,6l1.25.73c.4-2.13.77-5.59-1.64-6.75-3.27-1.58-5.51,3.39-7.65,4.75-3.6,2.27-8.17,2.1-12,3.89a8.51,8.51,0,0,0-3.33,2.54c-1.31,1.77-1.5,8.11-4.32,7.7-.94-.14-1.35,1.31-.39,1.45a3.5,3.5,0,0,0,3.94-1.84c1-1.74.58-4,1.55-5.74,1.15-2.1,3.47-2.94,5.62-3.6,2.73-.84,5.62-1.18,8.24-2.37A11.3,11.3,0,0,0,294,135.9c.39-.34,1.34-1.89,1.83-2.08.51-.92,1.25-.77,2.23.47q2.9.35,1.59,2.94c-.13.69.71,1.32,1.26.73a18.28,18.28,0,0,1,10.9-5.88c1.86-.28,3.86-.93,4.83.89,1.14,2.17-1.49,4.09-3.09,5.52a.77.77,0,0,0,.33,1.26,38.16,38.16,0,0,1,13.78,7.62c1.31,1.15,2.79,3.54,4.63,3.83,4.55.72,3.36-6.83,3.3-9.28-.26-12-3.25-27.12-16.23-31.5-6.57-2.22-14.28-1-21-.09-6.19.81-12.63,2.21-17.86,5.8-11.54,7.91-10.43,22.41-8.68,34.64.14.95,1.59.54,1.45-.4Z"/><path d="M276.52,140.63c-.15,2.27-.14-.53,0,1.73s.44,9.59.87,11.79a50.16,50.16,0,0,0,1.7,6.43c.7,2.08-.26.19.7,2.08"/><path d="M275.77,140.63l-.08.74,1.48.2v-.14l-1.48.2c1.17,3.19.36,7.79.77,11.18A32.58,32.58,0,0,0,279.15,163c.43.86,1.72.1,1.29-.76-1.83-3.67-2.43-8.31-2.72-12.36-.19-2.58.32-6.24-.58-8.69a.75.75,0,0,0-1.47.2v.14a.75.75,0,0,0,1.47.2,5.78,5.78,0,0,0,.13-1.14c.07-1-1.43-.95-1.5,0Z"/><path d="M330.06,140.63c.14,2.27.14-.53,0,1.73s-.45,9.59-.88,11.79a50.14,50.14,0,0,1-1.69,6.43c-.7,2.08.25.19-.7,2.08"/><path d="M329.31,140.63a5.11,5.11,0,0,0,.13,1.14.75.75,0,0,0,1.47-.2v-.14a.76.76,0,0,0-1.48-.2c-.9,2.45-.39,6.1-.57,8.69-.29,4.05-.9,8.69-2.73,12.36-.43.86.86,1.62,1.3.76a32.5,32.5,0,0,0,2.68-10.23c.41-3.37-.39-8,.77-11.18l-1.47-.2v.14l1.47-.2-.07-.74c-.08-.95-1.58-1-1.5,0Z"/><circle cx="313.15" cy="154.17" r="3"/><circle cx="293.15" cy="154.17" r="3"/></svg>