<svg id="Layer_1" data-name="Layer 1" xmlns="http://www.w3.org/2000/svg" viewBox="0 0 800 600"><defs><style>.cls-1{fill:#f9e8d4;}.cls-2{fill:none;}.cls-2,.cls-4{stroke:#000;}.cls-2,.cls-4,.cls-5{stroke-miterlimit:10;}.cls-3,.cls-4{fill:#282d3c;}.cls-4{stroke-width:0.25px;}.cls-5{fill:#fff;stroke:#e6e7e8;}</style></defs><title>Artboard 2</title><path class="cls-1" d="M83.71,135.93c0-14.77,11.23-26.75,25.09-26.75s25.08,12,25.08,26.75l-.07-1.31c.82,8.42,0,17.53.07,25.51a61.6,61.6,0,0,1-.2,7.06,20.62,20.62,0,0,1-1.71,6.69,19.74,19.74,0,0,1-2.87,4.33c-1.12,1.32-2.35,2.55-3.58,3.75a48.42,48.42,0,0,1-7,6,14.72,14.72,0,0,1-8.16,2.8h-3.15a14.72,14.72,0,0,1-8.16-2.8,49,49,0,0,1-7-6c-1.22-1.2-2.46-2.43-3.58-3.75a19.74,19.74,0,0,1-2.87-4.33,20.62,20.62,0,0,1-1.71-6.69,64,64,0,0,1-.2-7.06c.08-8-.75-17.09.08-25.51"/><path class="cls-1" d="M83.9,156.57a5.08,5.08,0,0,1,0-10.15"/><path class="cls-1" d="M134,146.42a5.08,5.08,0,1,1,0,10.15"/><path class="cls-1" d="M471.9,138.32a25.07,25.07,0,0,1,50.14,0h-.26q.39,4.85.66,9.7t.46,9.7a56.42,56.42,0,0,1,0,6,18.44,18.44,0,0,1-3.57,10.22,49,49,0,0,1-3.19,4,68,68,0,0,1-5.15,5.45,31.24,31.24,0,0,1-6,4.48,21,21,0,0,1-7.06,2.52h-1.32a21,21,0,0,1-7.06-2.52,31.63,31.63,0,0,1-6-4.48,69.7,69.7,0,0,1-5.14-5.45,49,49,0,0,1-3.19-4,20,20,0,0,1-2.42-4.45,20.69,20.69,0,0,1-1.16-5.77,56.42,56.42,0,0,1,0-6c.11-3.24.27-6.47.45-9.7Z"/><circle cx="487.9" cy="151.33" r="2.33"/><circle cx="506.09" cy="151.33" r="2.33"/><path class="cls-1" d="M472.58,156a4.67,4.67,0,1,1,0-9.33"/><path class="cls-1" d="M522,146.67a4.67,4.67,0,0,1,0,9.33"/><path class="cls-1" d="M669.74,139.45c0-12.9,9.92-23.35,22.17-23.35s22.16,10.45,22.16,23.35v0L713.88,152l-.2,12.63c0,1.14,0,2.29-.12,3.44a19.09,19.09,0,0,1-.54,3.37,18.36,18.36,0,0,1-1.73,4.11c-.73,1.3-1.56,2.55-2.4,3.78a56.21,56.21,0,0,1-5,6.64,18.69,18.69,0,0,1-6.43,4.77h-11A18.69,18.69,0,0,1,680,186a56.21,56.21,0,0,1-5-6.64c-.84-1.23-1.67-2.48-2.4-3.78a16.28,16.28,0,0,1-2.26-7.48c-.09-1.15-.11-2.3-.13-3.44l-.2-12.63-.19-12.63"/><path d="M716.91,148.41c.76-5,1.53-10.14.75-15.17s-10.39-17.75-17.8-17.84c-2,0-20.9,0-22.73.78a12.89,12.89,0,0,0-3.5,2.24A32.51,32.51,0,0,0,662,144.67c.09,1.69,5.36,9.39,6.84,10.3s-1.18-5.48.29-6.6-1.5,1.08,0,0c3.4-2.44,12.25-5.83,16.26-4.49s7.7,3.53,11.81,4.55c6.28,1.55,10.13,2.75,16.56,3.5"/><path class="cls-1" d="M670.54,160.58a4.67,4.67,0,1,1,0-9.33"/><path class="cls-1" d="M712.56,151.25a4.67,4.67,0,0,1,0,9.33"/><circle cx="682.81" cy="155.91" r="2.33"/><circle cx="701" cy="155.91" r="2.33"/><path d="M82,148.46c-1.28-9.77-2.31-20.7,2.94-28.63,5.75-8.66,16.59-10.21,26.2-11,4-.34,8.16-.67,12,.77,5.88,2.22,10,8.38,11.93,15s1.94,13.66,1.93,20.6c0,1.3-.24,3-1.38,3.28-.94.26-1.78-.64-2.45-1.42a32.69,32.69,0,0,0-14.51-9.93c2-1.86-31.41-1.51-33.36,5.09-.41,1.38-.33,2.89-.77,4.25s-1.8,2.58-3,2"/><path d="M82.71,148.46c-1-7.55-2-15.67.38-23.06,2.64-8.21,9.66-12.62,17.73-14.43,7.18-1.61,17.66-3.47,24.28.42,8.12,4.77,10.38,15.67,10.9,24.26.11,1.9.15,3.8.17,5.7,0,2.36.06,5.91-3.09,4.5-1.32-.59-3-3-4.17-4a34.67,34.67,0,0,0-3.46-2.43,17.78,17.78,0,0,0-3.71-2,15.75,15.75,0,0,0-2.34-.34c-.05,0-.13-.89-.48-1.08-1.62-.88-4-.69-5.81-.72a94.77,94.77,0,0,0-12.6.61c-4,.45-8.24,1-12,2.58a8.38,8.38,0,0,0-3.19,2c-1.33,1.59-1.42,7.21-3.86,7.07-1-.05-1,1.45,0,1.5,5,.29,2.89-5.48,5.26-7.84s7.49-2.91,10.65-3.4a93,93,0,0,1,12.92-1c1.62,0,3.24,0,4.85.07.54,0,1.12.15,1.65.14,1.59,0,.49.48,1.14-.38-.32.42,0,.95.45,1.1a32.86,32.86,0,0,1,11.91,7.33c1.14,1.1,3.1,4.45,5.24,4,3.43-.64,2.14-7.58,2.09-9.72-.25-10.95-2.46-26.15-14.37-30.61-5.56-2.09-12.23-1-18-.18s-11.4,2.16-16.06,5.57c-10.82,7.93-9.55,22.47-8.05,34.23.12.94,1.62.95,1.5,0Z"/><path class="cls-1" d="M278.07,136.33a26.21,26.21,0,0,1,52.41,0l-.8-5A91.54,91.54,0,0,1,331.15,154a44.86,44.86,0,0,1-6.55,21c-.81,1.25-1.69,2.46-2.62,3.63s-1.92,2.29-2.93,3.39a42.26,42.26,0,0,1-5.73,5.38,19.79,19.79,0,0,1-6.89,3.46l-4.31-.22a19.69,19.69,0,0,1-6.89-3.45,43.52,43.52,0,0,1-5.73-5.38c-1-1.1-2-2.23-2.92-3.4a42.14,42.14,0,0,1-2.62-3.62c-4.06-6.32-6-13.54-6.56-21a92,92,0,0,1,1.47-22.64"/><path class="cls-1" d="M277.94,157.49a5.08,5.08,0,1,1,0-10.15"/><path class="cls-1" d="M330.66,147.34a5.08,5.08,0,0,1,0,10.15"/><path d="M276.58,149.72c-1.31-9-2.37-19,3-26.32,5.91-8,17.06-9.39,26.95-10.15,4.13-.32,8.39-.62,12.31.71,6,2,10.3,7.7,12.27,13.77s2,12.56,2,18.94c0,1.2-.24,2.72-1.41,3-1,.24-1.84-.58-2.52-1.3a34.09,34.09,0,0,0-14.92-9.13c2.1-1.71-34.66,7.34-35.12,8.59s-1.85,2.37-3.06,1.8"/><path d="M277.31,149.52c-1.46-10.19-2.63-22.44,6.69-29.38,7.55-5.62,19.63-6.8,28.79-6.39,14,.63,19,13.75,19.49,25.94.1,2.31,1,6.65-1.23,7.57s-3.26-1.37-5-2.72a36.87,36.87,0,0,0-11.6-6l.33,1.26a1,1,0,0,0,.3-.68.74.74,0,0,0-.37-.64c-1.21-.84-4.49.37-5.7.61-4.35.87-8.67,1.92-13,3s-8.49,2.14-12.68,3.4a31.56,31.56,0,0,0-3.81,1.28c-1.05.48-2.63,2.19-3.47,2.15s-1,1.45,0,1.5c2.42.12,2.07-1.07,3.62-2.06a12.35,12.35,0,0,1,2.83-1.05c3.65-1.16,7.38-2.11,11.09-3.06,4.24-1.09,8.49-2.12,12.77-3.06,1.64-.36,3.28-.72,4.93-1a6.2,6.2,0,0,0,1.52-.26c.29,0,.59-.08.88-.1.54.06.55-.3,0-1.07a.76.76,0,0,0,.33,1.25,34.69,34.69,0,0,1,12.26,6.72c1.28,1.11,3.21,4.12,5.28,3.73,3.82-.71,2.28-8.39,2.17-10.73-.49-10.9-4.31-24.09-16.41-26.93-5.75-1.35-12.42-.32-18.2.5-5.61.8-11.39,2.2-16,5.61-9.93,7.29-8.83,20.23-7.28,31,.14,1,1.58.54,1.45-.4Z"/><circle cx="314.28" cy="154.2" r="3"/><circle cx="294.28" cy="154.2" r="3"/><circle cx="304.03" cy="177.33" r="2.33"/><circle cx="99.83" cy="151.33" r="2.33"/><circle cx="118.02" cy="151.33" r="2.33"/><path d="M469.49,150c-1.28-9.79-2.32-20.74,2.95-28.68,5.75-8.68,16.61-10.23,26.24-11,4-.35,8.17-.68,12,.77,5.88,2.22,10,8.39,11.94,15s1.95,13.69,1.94,20.63c0,1.31-.24,3-1.38,3.29-.94.26-1.79-.63-2.46-1.42a32.79,32.79,0,0,0-14.53-9.95c2.05-1.86-31.46-1.51-33.42,5.1-.41,1.38-.33,2.9-.77,4.26s-1.81,2.58-3,2"/><path d="M470.24,150c-1-7.55-2-15.71.37-23.1,2.68-8.25,9.65-12.63,17.77-14.45,7.59-1.7,18.69-3.67,25.34,1.16,7.3,5.3,9.37,15,9.89,23.49.13,2.19,1.62,11.74-2.37,10.91-.87-.18-2.72-2.87-3.47-3.54a35.42,35.42,0,0,0-4-3.06,19.33,19.33,0,0,0-4.3-2.35,18.88,18.88,0,0,0-2.44-.38c-.1-.05,0-.87-.42-1-5.17-2-12.66-.77-18-.2-4.18.45-8.61,1-12.49,2.64a8.34,8.34,0,0,0-3.2,2c-1.33,1.59-1.42,7.23-3.86,7.08-1-.05-1,1.45,0,1.5,5,.29,2.89-5.49,5.26-7.85s7.51-2.92,10.67-3.4a93.42,93.42,0,0,1,12.95-1c1.61,0,3.24,0,4.86.07.53,0,1.11.15,1.65.14,1.58,0,.49.48,1.14-.38a.75.75,0,0,0,.44,1.1,33.15,33.15,0,0,1,11.94,7.34c1.1,1.07,3.09,4.56,5.25,4.06,3.32-.76,2.14-7.12,2.1-9.26-.22-11.09-2.27-26.5-14.31-31.1-5.61-2.14-12.3-1-18.07-.21-5.61.78-11.36,2.14-16,5.52-10.9,7.92-9.65,22.53-8.13,34.34.12.94,1.62.95,1.5,0Z"/><path class="cls-2" d="M116,173.93c0,1.64-3.36,3-7.5,3s-7.5-1.33-7.5-3"/><rect class="cls-3" x="83.86" y="296.3" width="16.92" height="186.12"/><rect class="cls-3" x="116.73" y="296.3" width="16.92" height="186.12"/><rect class="cls-1" x="98.64" y="188.15" width="20.3" height="10.15"/><path class="cls-4" d="M132.16,476.76h-9.3a6.76,6.76,0,0,0-6.77,6.77v6.76a6.76,6.76,0,0,0,6.77,6.77h37.22a6.68,6.68,0,0,0,4.78-2,6.94,6.94,0,0,0,1.46-2.15,6.79,6.79,0,0,0,.53-2.63v-3.38Z"/><path class="cls-4" d="M84.69,476.76H94a6.76,6.76,0,0,1,6.77,6.77v6.76A6.76,6.76,0,0,1,94,497.06H56.77A6.76,6.76,0,0,1,50,490.29v-3.38Z"/><rect class="cls-1" x="58.94" y="316.25" width="13.54" height="22.45" rx="4" ry="4"/><rect class="cls-1" x="145.29" y="316.25" width="13.54" height="22.45" rx="4" ry="4"/><path class="cls-3" d="M158.66,294v-86.1a5.65,5.65,0,0,0-5.68-5.57h-2.24a5.64,5.64,0,0,0-5.68,5.57V313.41a5.41,5.41,0,0,0,.39,2V319h13.61V294Z"/><path class="cls-3" d="M72.31,294v-86.1a5.64,5.64,0,0,0-5.68-5.57H64.39a5.65,5.65,0,0,0-5.68,5.57V313.41a5.42,5.42,0,0,0,.4,2V319h13.6V294Z"/><polygon class="cls-3" points="104.9 300.36 122.45 326.01 140 326.01 140 260.4 140 194.79 122.45 194.79 122.45 194.79 104.9 260.4 104.9 300.36"/><polygon class="cls-3" points="113 300.36 95.45 326.01 77.9 326.01 77.9 260.4 77.9 194.79 95.45 194.79 95.45 194.79 113 260.4 113 300.36"/><rect class="cls-3" x="106.3" y="193.46" width="5" height="52.5"/><polygon class="cls-5" points="104.8 198.96 94.8 198.96 94.8 192.96 108.8 192.96 104.8 198.96"/><polygon class="cls-5" points="112.8 198.96 122.8 198.96 122.8 192.96 108.8 192.96 112.8 198.96"/><rect class="cls-3" x="279.74" y="296.3" width="16.92" height="186.12"/><rect class="cls-3" x="312.6" y="296.3" width="16.92" height="186.12"/><rect class="cls-1" x="294.52" y="188.15" width="20.3" height="10.15"/><path class="cls-4" d="M328,476.76h-9.31a6.79,6.79,0,0,0-6.23,4.14,6.62,6.62,0,0,0-.54,2.63v6.76a6.62,6.62,0,0,0,.54,2.63,6.74,6.74,0,0,0,6.23,4.14H356a6.74,6.74,0,0,0,2.62-.53,6.93,6.93,0,0,0,2.16-1.46,6.73,6.73,0,0,0,2-4.78v-3.38Z"/><path class="cls-4" d="M280.56,476.76h9.31a6.7,6.7,0,0,1,2.62.53,6.93,6.93,0,0,1,2.16,1.46,6.73,6.73,0,0,1,2,4.78v6.76a6.73,6.73,0,0,1-2,4.78,6.93,6.93,0,0,1-2.16,1.46,6.7,6.7,0,0,1-2.62.53H252.64a6.79,6.79,0,0,1-2.63-.53,7,7,0,0,1-2.15-1.46,6.74,6.74,0,0,1-1.45-2.15,6.62,6.62,0,0,1-.54-2.63v-3.38Z"/><rect class="cls-1" x="254.82" y="316.25" width="13.54" height="22.45" rx="4" ry="4"/><rect class="cls-1" x="341.16" y="316.25" width="13.54" height="22.45" rx="4" ry="4"/><path class="cls-3" d="M354.53,294v-86.1a5.65,5.65,0,0,0-5.68-5.57h-2.24a5.65,5.65,0,0,0-5.68,5.57V313.41a5.42,5.42,0,0,0,.4,2V319h13.6V294Z"/><path class="cls-3" d="M268.19,294v-86.1a5.65,5.65,0,0,0-5.68-5.57h-2.24a5.64,5.64,0,0,0-5.68,5.57V313.41a5.42,5.42,0,0,0,.4,2V319h13.6V294Z"/><polygon class="cls-3" points="300.77 300.36 318.32 326.01 335.87 326.01 335.87 260.4 335.87 194.79 318.32 194.79 318.32 194.79 300.77 260.4 300.77 300.36"/><polygon class="cls-3" points="308.87 300.36 291.32 326.01 273.77 326.01 273.77 260.4 273.77 194.79 291.32 194.79 291.32 194.79 308.87 260.4 308.87 300.36"/><rect class="cls-3" x="302.17" y="193.46" width="5" height="52.5"/><polygon class="cls-5" points="300.67 198.96 290.67 198.96 290.67 192.96 304.67 192.96 300.67 198.96"/><polygon class="cls-5" points="308.67 198.96 318.67 198.96 318.67 192.96 304.67 192.96 308.67 198.96"/><rect class="cls-3" x="472.74" y="296.3" width="16.92" height="186.12"/><rect class="cls-3" x="505.6" y="296.3" width="16.92" height="186.12"/><rect class="cls-1" x="487.52" y="188.15" width="20.3" height="10.15"/><path class="cls-4" d="M521,476.76h-9.31a6.79,6.79,0,0,0-6.23,4.14,6.62,6.62,0,0,0-.54,2.63v6.76a6.62,6.62,0,0,0,.54,2.63,6.74,6.74,0,0,0,6.23,4.14H549a6.74,6.74,0,0,0,2.62-.53,6.93,6.93,0,0,0,2.16-1.46,6.73,6.73,0,0,0,2-4.78v-3.38Z"/><path class="cls-4" d="M473.56,476.76h9.31a6.7,6.7,0,0,1,2.62.53,6.93,6.93,0,0,1,2.16,1.46,6.73,6.73,0,0,1,2,4.78v6.76a6.73,6.73,0,0,1-2,4.78,6.93,6.93,0,0,1-2.16,1.46,6.7,6.7,0,0,1-2.62.53H445.64a6.79,6.79,0,0,1-2.63-.53,7,7,0,0,1-2.15-1.46,6.74,6.74,0,0,1-1.45-2.15,6.62,6.62,0,0,1-.54-2.63v-3.38Z"/><rect class="cls-1" x="447.82" y="316.25" width="13.54" height="22.45" rx="4" ry="4"/><rect class="cls-1" x="534.16" y="316.25" width="13.54" height="22.45" rx="4" ry="4"/><path class="cls-3" d="M547.53,294v-86.1a5.65,5.65,0,0,0-5.68-5.57h-2.24a5.65,5.65,0,0,0-5.68,5.57V313.41a5.42,5.42,0,0,0,.4,2V319h13.6V294Z"/><path class="cls-3" d="M461.19,294v-86.1a5.65,5.65,0,0,0-5.68-5.57h-2.24a5.64,5.64,0,0,0-5.68,5.57V313.41a5.42,5.42,0,0,0,.4,2V319h13.6V294Z"/><polygon class="cls-3" points="493.77 300.36 511.32 326.01 528.87 326.01 528.87 260.4 528.87 194.79 511.32 194.79 511.32 194.79 493.77 260.4 493.77 300.36"/><polygon class="cls-3" points="501.87 300.36 484.32 326.01 466.77 326.01 466.77 260.4 466.77 194.79 484.32 194.79 484.32 194.79 501.87 260.4 501.87 300.36"/><rect class="cls-3" x="495.17" y="193.46" width="5" height="52.5"/><polygon class="cls-5" points="493.67 198.96 483.67 198.96 483.67 192.96 497.67 192.96 493.67 198.96"/><polygon class="cls-5" points="501.67 198.96 511.67 198.96 511.67 192.96 497.67 192.96 501.67 198.96"/><rect class="cls-3" x="667.74" y="296.3" width="16.92" height="186.12"/><rect class="cls-3" x="700.6" y="296.3" width="16.92" height="186.12"/><rect class="cls-1" x="682.52" y="188.15" width="20.3" height="10.15"/><path class="cls-4" d="M716,476.76h-9.31a6.79,6.79,0,0,0-6.23,4.14,6.62,6.62,0,0,0-.54,2.63v6.76a6.62,6.62,0,0,0,.54,2.63,6.74,6.74,0,0,0,6.23,4.14H744a6.74,6.74,0,0,0,2.62-.53,6.93,6.93,0,0,0,2.16-1.46,6.73,6.73,0,0,0,2-4.78v-3.38Z"/><path class="cls-4" d="M668.56,476.76h9.31a6.7,6.7,0,0,1,2.62.53,6.93,6.93,0,0,1,2.16,1.46,6.73,6.73,0,0,1,2,4.78v6.76a6.73,6.73,0,0,1-2,4.78,6.93,6.93,0,0,1-2.16,1.46,6.7,6.7,0,0,1-2.62.53H640.64a6.79,6.79,0,0,1-2.63-.53,7,7,0,0,1-2.15-1.46,6.74,6.74,0,0,1-1.45-2.15,6.62,6.62,0,0,1-.54-2.63v-3.38Z"/><rect class="cls-1" x="642.82" y="316.25" width="13.54" height="22.45" rx="4" ry="4"/><rect class="cls-1" x="729.16" y="316.25" width="13.54" height="22.45" rx="4" ry="4"/><path class="cls-3" d="M742.53,294v-86.1a5.65,5.65,0,0,0-5.68-5.57h-2.24a5.65,5.65,0,0,0-5.68,5.57V313.41a5.42,5.42,0,0,0,.4,2V319h13.6V294Z"/><path class="cls-3" d="M656.19,294v-86.1a5.65,5.65,0,0,0-5.68-5.57h-2.24a5.64,5.64,0,0,0-5.68,5.57V313.41a5.42,5.42,0,0,0,.4,2V319h13.6V294Z"/><polygon class="cls-3" points="688.77 300.36 706.32 326.01 723.87 326.01 723.87 260.4 723.87 194.79 706.32 194.79 706.32 194.79 688.77 260.4 688.77 300.36"/><polygon class="cls-3" points="696.87 300.36 679.32 326.01 661.77 326.01 661.77 260.4 661.77 194.79 679.32 194.79 679.32 194.79 696.87 260.4 696.87 300.36"/><rect class="cls-3" x="690.17" y="193.46" width="5" height="52.5"/><polygon class="cls-5" points="688.67 198.96 678.67 198.96 678.67 192.96 692.67 192.96 688.67 198.96"/><polygon class="cls-5" points="696.67 198.96 706.67 198.96 706.67 192.96 692.67 192.96 696.67 198.96"/><line class="cls-2" x1="489" y1="176.5" x2="505" y2="176.5"/><path class="cls-2" d="M700,175.93c0,1.64-3.36,3-7.5,3s-7.5-1.33-7.5-3"/></svg>