<svg id="Layer_1" data-name="Layer 1" xmlns="http://www.w3.org/2000/svg" viewBox="0 0 800 600"><defs><style>.cls-1{fill:#f9e8d4;}.cls-15,.cls-2{fill:#282d3c;}.cls-3,.cls-4{fill:#eee;}.cls-19,.cls-4,.cls-9{stroke:#e6e7e8;}.cls-12,.cls-15,.cls-18,.cls-19,.cls-4,.cls-5,.cls-6,.cls-8,.cls-9{stroke-miterlimit:10;}.cls-15,.cls-18,.cls-19,.cls-4,.cls-9{stroke-width:0.25px;}.cls-5,.cls-9{fill:#fff;}.cls-12,.cls-15,.cls-5,.cls-6{stroke:#000;}.cls-12,.cls-5,.cls-6{stroke-width:0.5px;}.cls-18,.cls-19,.cls-6,.cls-8{fill:none;}.cls-7{fill:#9b4722;}.cls-8{stroke:#e8a798;}.cls-10,.cls-14{fill:#584f49;}.cls-11{fill:#00758f;}.cls-12{opacity:0.1;}.cls-13{fill:#798ea4;}.cls-14{opacity:0.05;}.cls-16{fill:#392d48;}.cls-17{fill:#e8a798;}.cls-18{stroke:#392d48;}</style></defs><title>whitealbum</title><path class="cls-1" d="M83,135.23c0-14.77,11.23-26.75,25.09-26.75s25.08,12,25.08,26.75l-.07-1.31c.82,8.42,0,17.53.07,25.51a61.6,61.6,0,0,1-.2,7.06,20.62,20.62,0,0,1-1.71,6.69,19.74,19.74,0,0,1-2.87,4.33c-1.12,1.32-2.35,2.55-3.58,3.75a49,49,0,0,1-7,6,14.72,14.72,0,0,1-8.16,2.8h-3.15a14.72,14.72,0,0,1-8.16-2.8,49,49,0,0,1-7-6c-1.22-1.2-2.46-2.43-3.58-3.75A19.74,19.74,0,0,1,85,173.18a20.62,20.62,0,0,1-1.71-6.69,64,64,0,0,1-.2-7.06c.08-8-.75-17.09.08-25.51"/><path class="cls-1" d="M83.54,155.87a5.05,5.05,0,0,1-5.07-5.07,5.07,5.07,0,0,1,5.07-5.08"/><path class="cls-1" d="M133.59,145.72a5.08,5.08,0,1,1,0,10.15"/><rect class="cls-2" x="83.5" y="295.6" width="16.92" height="186.12"/><polygon class="cls-1" points="116.64 197.3 108.64 210.3 100.64 197.3 100.64 192.3 100.64 187.3 108.64 187.3 116.64 187.3 116.64 192.3 116.64 197.3"/><path class="cls-3" d="M131.8,476.06h-9.31a6.74,6.74,0,0,0-2.62.53,6.74,6.74,0,0,0-3.61,3.61,6.74,6.74,0,0,0-.53,2.62v6.77a6.73,6.73,0,0,0,2,4.78,6.93,6.93,0,0,0,2.16,1.46,6.74,6.74,0,0,0,2.62.53h37.23a6.79,6.79,0,0,0,6.23-4.14,6.62,6.62,0,0,0,.54-2.63v-3.38Z"/><path class="cls-3" d="M84.32,476.06h9.31a6.73,6.73,0,0,1,4.78,2,7.1,7.1,0,0,1,1.46,2.16,6.74,6.74,0,0,1,.53,2.62v6.77a6.79,6.79,0,0,1-.53,2.63,6.94,6.94,0,0,1-1.46,2.15,6.68,6.68,0,0,1-4.78,2H56.41a6.76,6.76,0,0,1-6.77-6.77v-3.38Z"/><rect class="cls-1" x="58.58" y="315.55" width="13.54" height="22.45" rx="4" ry="4"/><rect class="cls-1" x="144.93" y="315.55" width="13.54" height="22.45" rx="4" ry="4"/><path class="cls-4" d="M158.3,293.28v-86.1a5.65,5.65,0,0,0-5.69-5.57h-2.23a5.65,5.65,0,0,0-5.69,5.57V312.71a5.42,5.42,0,0,0,.4,2v3.56h13.6v-25Z"/><path class="cls-4" d="M72,293.28v-86.1a5.64,5.64,0,0,0-5.68-5.57H64a5.65,5.65,0,0,0-5.68,5.57V312.71a5.42,5.42,0,0,0,.4,2v3.56h13.6v-25Z"/><polygon class="cls-4" points="138.28 488.72 111.36 488.72 116.36 302.6 133.28 302.6 138.28 488.72"/><polygon class="cls-4" points="105.28 488.72 78.36 488.72 83.36 302.6 100.28 302.6 105.28 488.72"/><polygon class="cls-4" points="112.64 299.65 95.09 325.31 77.54 325.31 77.54 259.7 77.54 199.09 95.14 193.8 112.64 259.7 112.64 299.65"/><circle class="cls-5" cx="99.34" cy="151.18" r="5.83"/><circle class="cls-5" cx="116.91" cy="151.18" r="5.83"/><line class="cls-6" x1="105.14" y1="150.8" x2="111.14" y2="150.8"/><path class="cls-7" d="M81,192.45c2.11,2.25,6.26,1,7.75-1.73s1-6.06.07-9-2.28-5.81-2.42-8.89c-.13-2.81.76-5.55,1.6-8.23s1.62-5.47,1.3-8.26-.67-7-.67-7c-.29-3.33,4.29-4.67,4-8-.14-1.62,2.4-4.49,3-6a14.21,14.21,0,0,1,6-7c2-1.14,1.62-6.86,3-9s7-6.64,6-9l-8-1a11,11,0,0,0-6.15-.36c-6.77,1.36-13.95,8.14-15.8,14.78-1.36,4.86-1.51,10-1.9,15-.42,5.29-1.15,10.71-3.73,15.34-1,1.81-2.29,3.49-2.83,5.48-1.47,5.39,2.84,10.63,3.35,16.19.43,4.76-2,9.37-2,14.16a3.82,3.82,0,0,0,.59,2.22c1.79,2.6,5.53.4,8.47.92"/><path class="cls-7" d="M129.1,150.81c1.53,1.83,1.83,9.3.89,11.49-2.68,6.26-6.28,13.86-3.35,20a19.85,19.85,0,0,1,1,4c.14.73-2.23,6.29-2,7,.63,2,7.58.52,9-1l3,1c2.11-.05,1.48-7.48,1.36-9.59s-.9-4.25-.33-6.28a30.6,30.6,0,0,1,1.52-3.23c1.7-4-.24-8.48-.39-12.8-.25-7,1.1-13.53-1.16-20.1-2-5.75-5.45-9.51-7.19-15.34-.61-2-.58-4.21-1-6.29a14.51,14.51,0,0,0-4.95-8.23,8.16,8.16,0,0,0-3.69-1.87c-1.3-.24-9.87-1.49-11.17-1.27-5.82,1-6,0-10.24,4.44l.85-.52c-1.58,3.4.11,13.23,3.39,15.08,2.71,1.53,3.56-.93,6,1,4.45,3.51,4.67,8.06,8,12.61,1.4,1.88,3.58,3,5.68,4"/><line class="cls-8" x1="100.13" y1="172.8" x2="116.13" y2="172.8"/><polygon class="cls-4" points="103.54 299.65 121.09 325.31 138.64 325.31 138.64 259.7 138.64 199.09 121.04 193.8 103.54 259.7 103.54 299.65"/><polygon class="cls-9" points="111.49 197.55 118.33 190.26 122.71 194.37 113.13 204.58 111.49 197.55"/><polygon class="cls-9" points="104.71 197.55 97.86 190.26 93.49 194.37 103.07 204.58 104.71 197.55"/><path class="cls-1" d="M276.57,132.63a26.21,26.21,0,0,1,52.41,0l-.8-5a92,92,0,0,1,1.47,22.65c-.59,7.49-2.5,14.71-6.56,21a43.91,43.91,0,0,1-2.62,3.63c-.93,1.16-1.91,2.29-2.92,3.39a42.34,42.34,0,0,1-5.74,5.38,19.56,19.56,0,0,1-6.88,3.45l-4.32-.21a19.41,19.41,0,0,1-6.88-3.46,41.61,41.61,0,0,1-5.73-5.37q-1.51-1.65-2.93-3.4a42.9,42.9,0,0,1-2.62-3.63c-4.05-6.31-6-13.53-6.55-21a92,92,0,0,1,1.46-22.64"/><path class="cls-1" d="M276.2,153.79a5.08,5.08,0,0,1,0-10.16"/><path class="cls-1" d="M328.92,143.63a5.08,5.08,0,0,1,0,10.16"/><circle class="cls-10" cx="311.54" cy="149.5" r="3"/><circle class="cls-10" cx="293.54" cy="149.5" r="3"/><rect class="cls-2" x="278.13" y="295.6" width="16.92" height="186.12"/><polygon class="cls-1" points="310.26 197.3 303.26 207.3 295.26 197.3 295.26 190.8 295.26 184.3 302.76 184.3 310.26 184.3 310.26 190.8 310.26 197.3"/><path class="cls-3" d="M326.43,476.06h-9.31a6.73,6.73,0,0,0-4.78,2,6.9,6.9,0,0,0-1.45,2.16,6.57,6.57,0,0,0-.54,2.62v6.77a6.62,6.62,0,0,0,.54,2.63,6.74,6.74,0,0,0,6.23,4.14h37.22a6.76,6.76,0,0,0,6.77-6.77v-3.38Z"/><path class="cls-3" d="M279,476.06h9.31a6.74,6.74,0,0,1,2.62.53,6.74,6.74,0,0,1,3.61,3.61,6.74,6.74,0,0,1,.53,2.62v6.77a6.73,6.73,0,0,1-2,4.78,6.93,6.93,0,0,1-2.16,1.46,6.74,6.74,0,0,1-2.62.53H251a6.79,6.79,0,0,1-6.23-4.14,6.62,6.62,0,0,1-.54-2.63v-3.38Z"/><rect class="cls-1" x="253.21" y="315.55" width="13.54" height="22.45" rx="4" ry="4"/><rect class="cls-1" x="339.55" y="315.55" width="13.54" height="22.45" rx="4" ry="4"/><path class="cls-11" d="M352.92,293.28v-86.1a5.65,5.65,0,0,0-5.68-5.57H345a5.65,5.65,0,0,0-5.68,5.57V312.71a5.42,5.42,0,0,0,.4,2v3.56h13.6v-25Z"/><path class="cls-11" d="M266.58,293.28v-86.1a5.65,5.65,0,0,0-5.68-5.57h-2.24a5.64,5.64,0,0,0-5.68,5.57V312.71a5.62,5.62,0,0,0,.39,2v3.56H267v-25Z"/><polygon class="cls-11" points="332.91 488.72 305.99 488.72 310.99 302.6 327.91 302.6 332.91 488.72"/><polygon class="cls-11" points="299.91 488.72 272.99 488.72 277.99 302.6 294.91 302.6 299.91 488.72"/><polygon class="cls-11" points="307.26 299.65 289.71 325.31 272.16 325.31 272.16 259.7 272.16 199.09 289.76 193.8 307.26 259.7 307.26 299.65"/><polygon class="cls-11" points="298.16 299.65 315.71 325.31 333.26 325.31 333.26 259.7 333.26 199.09 315.66 193.8 298.16 259.7 298.16 299.65"/><path d="M301.76,109.47c1.2,2-.61,18.45-3,19.47-3.68,1.58-15.64,3.29-16,6.78s-1.77,8.24-1,11.79-1.77,12-1,13.6.61,3.7,2,5.08c1.61,1.6,0,4,1,5.93,0,0-3.65.57-4.41-.32a5.41,5.41,0,0,1-.75-1.66,12.1,12.1,0,0,0-2.11-2.74c-2.51-3-3.23-6.73-3.32-10.37s.41-7.28,0-10.9-1.69-7.39-.94-11a21.35,21.35,0,0,1,2.25-5.46,139.07,139.07,0,0,1,9-13.79C286.76,111.17,298.76,104.39,301.76,109.47Z"/><path d="M301,109.67c1.67,4-.09,11.32-1.18,15.25-.92,3.31-2.44,3.76-5.56,4.6a71.5,71.5,0,0,0-7.61,2.26c-5.05,2-4.93,4.57-5.6,9.85-.39,3,.16,5.71.05,8.71s-1.11,5.91-1.22,8.89a16,16,0,0,0,1.4,6.2c.63,1.63,2.8,5.57.52,6.11-2.79.67-7.14-9-7.39-10-1.25-5,0-10.29-.51-15.38-.56-5.43-1.95-9.65.52-14.79a83.27,83.27,0,0,1,6.86-11.1c2.37-3.42,4.52-6.34,8.08-8.61,2.67-1.71,9-5.39,11.72-1.78.57.76,1.87,0,1.29-.76-3.48-4.61-10.57-.89-14.27,1.58a24.67,24.67,0,0,0-6.69,6.78c-3.22,4.59-6.71,9.28-8.92,14.48-1.82,4.27-.93,8.12-.32,12.55.8,5.77-.6,11.75.79,17.43a17.2,17.2,0,0,0,2.84,5.87c.88,1.27,1.71,3.59,2.92,4.47,1.51,1.11,3.42.84,5.2.59a.76.76,0,0,0,.53-.92c-.47-1.67,0-3.43-.45-5.06-.68-2.23-2.34-3.93-2.61-6.39-.34-3.1.94-6.45,1.16-9.57.34-4.58-.72-9,.72-13.59,1.36-4.34,5.84-4.86,9.76-5.91,5.21-1.41,7.19-1.56,8.45-7,1-4.14,2.67-11,1-15.14C302.12,108.39,300.67,108.78,301,109.67Z"/><path d="M300.76,109.57c0,1-.45,11.82.23,12.61s1.5,13.55,2.77,13.62c4.69.25,17.84-1.83,18.7-.17.64,1.25,1.75,2.27,2.41,3.51a11.64,11.64,0,0,1,1.08,4.18c.83,6.5-1.75,19.56-3.19,26-2.11,9.45,8,0,7.75-6.17-.06-1.43,1.23-2.65,1.58-4a20.45,20.45,0,0,0,.5-4.13l.53-10.13a12.84,12.84,0,0,0-.44-5.2A30.15,30.15,0,0,0,331,136.4c-1.34-2.61-1.65-5.54-2.05-8.4a29.63,29.63,0,0,0-2.71-9.72,14.25,14.25,0,0,0-7.72-7c-3.37-1.18-5.13-3.83-8.73-3.51-2.67.24-4.33-.24-7,0Z"/><path d="M300,109.57c-.1,4.15-.61,8.57.19,12.66.71,3.66.47,9.71,2.3,13,1.7,3,7.93,1,10.84.83,3.53-.27,7.13-1.24,9.67,1.74,3.08,3.6,2.49,9.13,2.07,13.52A132,132,0,0,1,323,164.55c-.42,2.11-2,5.76-1.18,7.9,1.12,3.09,4.13.78,5.61-.8,3.72-4,5.48-10.77,5.87-16,.33-4.51,1.21-9.84.54-14.32-.63-4.13-3.26-7.55-4-11.8-.78-4.74-1.35-9.48-4.2-13.5-2.48-3.5-5.76-4.64-9.39-6.64-4.83-2.65-11.62-4.29-16.06-.34-.72.65.34,1.7,1.06,1.06,4.67-4.16,12-.48,16.82,1.85,9.81,4.72,8.47,13.37,11.2,22.22,1.27,4.11,3.24,6.84,3,11.5-.2,4.12,0,8.52-1,12.53-.61,2.42-1.24,5.12-2,7.51-.55,1.8-5.35,9.23-6,4.79-.33-2.38,1.18-5.88,1.61-8.22.55-2.94,1-5.89,1.39-8.86.62-5.19,1.35-11.23-1.61-15.84-2.25-3.51-3.75-3.47-7.88-3.28-3.15.14-11.54,2.28-13.16-.39-1.09-1.81-.87-5.56-1.15-7.61-.19-1.45-.51-2.85-.79-4.28-.79-4-.35-8.33-.25-12.45C301.54,108.61,300,108.61,300,109.57Z"/><path class="cls-12" d="M303.52,169.8h3l7,3s4,1,6-1a4.16,4.16,0,0,0,3.51-1l-.39.64-.39.61-.38.59-.35.55-.33.5-.29.44-.25.36-.21.26a1.84,1.84,0,0,1-.17.22l-.18.22-.18.22-.17.21-.18.22-.18.21-.19.21-.18.22-.18.21-.19.21-.18.21-.19.21-.18.21-.19.21-.19.2-.19.21-.33.36-.33.36-.34.36-.34.35c-.12.12-.23.24-.35.35l-.34.35-.36.35-.35.34-.36.34-.36.33-.37.33-.37.32-.38.32-.38.31-.38.31-.39.29c-.13.1-.26.2-.4.29l-.39.29-.41.27-.4.26-.41.26-.42.25-.42.23-.43.23-.43.21-.44.21-.44.19-.45.18-.45.17-.46.15-.47.14-.47.13-.27,0h-.54l-.27,0h-2.1l-.27,0h-.54l-.27,0-.47-.13-.46-.14-.46-.15-.46-.17-.44-.18-.45-.19-.43-.21-.44-.21-.42-.23-.42-.23-.42-.25-.41-.26-.41-.26-.4-.27-.4-.29-.39-.29-.39-.29-.39-.31-.38-.31-.37-.32c-.13-.1-.25-.21-.37-.32l-.37-.33-.36-.33c-.13-.11-.24-.23-.36-.34l-.36-.34-.35-.35c-.12-.11-.23-.23-.35-.35s-.23-.23-.34-.35-.23-.24-.35-.35l-.33-.36-.34-.36-.33-.36-.19-.21-.18-.2-.19-.21-.19-.21-.18-.21-.19-.21-.18-.21-.19-.21-.18-.22-.18-.21-.18-.21-.18-.22-.18-.21-.18-.22-.17-.22-.18-.22-.2-.26-.25-.36-.3-.44-.32-.5c-.12-.17-.24-.36-.36-.55l-.37-.59-.39-.61-.4-.64a4.18,4.18,0,0,0,3.51,1c2,2,6,1,6,1l7-3h4.5Z"/><ellipse class="cls-1" cx="303.26" cy="174.3" rx="5" ry="1"/><polygon class="cls-9" points="306.12 197.55 312.96 190.26 317.33 194.37 307.75 204.58 306.12 197.55"/><polygon class="cls-9" points="299.33 197.55 292.49 190.26 288.12 194.37 297.7 204.58 299.33 197.55"/><path class="cls-10" d="M491.77,124.15c-.63,4,2.2,7.72,4.86,10.83,4,4.69,8.26,9.56,14,11.78,3.13,1.2,7,1.86,8.51,4.83,1.69,3.21-.34,7.41,1.28,10.66a2.85,2.85,0,0,1,.52,1.61,2.2,2.2,0,0,1-1.13,1.33,36,36,0,0,1-6.4,3.33c-.32,1.85-1.83,3.53-1.44,5.36.33,1.53,1.83,2.45,3.2,3.2a15,15,0,0,0,4.21,1.78,5.11,5.11,0,0,0,4.33-.92l.15-.21a11.6,11.6,0,0,0,7.34-3.06c1.84-1.7,3.13-4,5.27-5.31a3.42,3.42,0,0,0,1.37-1.11c.49-.92-.2-2-.82-2.83a44.1,44.1,0,0,1-4.82-8.09,4.19,4.19,0,0,1-.54-2.56,11.88,11.88,0,0,0,.38-1.29c.14-1.15-.91-2-1.67-2.93-3.7-4.25-1.55-11-3.65-16.25-.85-2.12-2.42-4.08-2.33-6.36.08-2,1.52-4,.9-6l.18.19c.14-1.24-1.18-2.06-2.07-2.94-2.57-2.53-2-6.91-4-9.91-1.78-2.7-5.19-3.73-8.34-4.43-5.36-1.17-11-1.89-16.25-.25a4.51,4.51,0,0,0-2.27,1.3,5.17,5.17,0,0,0-.76,3.32l0,15.66"/><path class="cls-1" d="M472.07,137.62a25.07,25.07,0,0,1,50.14,0H522q.38,4.84.66,9.69c.19,3.24.34,6.47.46,9.71a59,59,0,0,1,0,5.95,20.34,20.34,0,0,1-1.16,5.78,20,20,0,0,1-2.41,4.45c-1,1.4-2.08,2.71-3.19,4a71.77,71.77,0,0,1-5.15,5.45,31.24,31.24,0,0,1-5.95,4.48,21,21,0,0,1-7.06,2.52h-1.32a21,21,0,0,1-7.07-2.52,31.56,31.56,0,0,1-5.95-4.48,69.7,69.7,0,0,1-5.14-5.45,49.16,49.16,0,0,1-3.2-4,20,20,0,0,1-2.41-4.45,20.69,20.69,0,0,1-1.16-5.78,59,59,0,0,1,0-5.95c.12-3.24.27-6.47.46-9.71Z"/><circle class="cls-10" cx="487.92" cy="150.63" r="2.33"/><circle class="cls-10" cx="506.11" cy="150.63" r="2.33"/><path class="cls-1" d="M472.59,155.3a4.67,4.67,0,1,1,0-9.33"/><path class="cls-1" d="M522.05,146a4.67,4.67,0,0,1,0,9.33"/><polygon class="cls-1" points="510.98 194.3 496.98 210.3 483.98 194.3 489.98 194.3 489.98 187.3 497.48 187.3 504.98 187.3 504.98 194.3 510.98 194.3"/><path class="cls-3" d="M521.05,476.06h-9.31a6.74,6.74,0,0,0-2.62.53,6.74,6.74,0,0,0-3.61,3.61,6.74,6.74,0,0,0-.53,2.62v6.77a6.73,6.73,0,0,0,2,4.78,6.93,6.93,0,0,0,2.16,1.46,6.74,6.74,0,0,0,2.62.53H549a6.79,6.79,0,0,0,6.23-4.14,6.62,6.62,0,0,0,.54-2.63v-3.38Z"/><path class="cls-3" d="M473.57,476.06h9.31a6.73,6.73,0,0,1,4.78,2,6.9,6.9,0,0,1,1.45,2.16,6.57,6.57,0,0,1,.54,2.62v6.77a6.62,6.62,0,0,1-.54,2.63,6.74,6.74,0,0,1-6.23,4.14H445.66a6.76,6.76,0,0,1-6.77-6.77v-3.38Z"/><rect class="cls-1" x="447.83" y="315.55" width="13.54" height="22.45" rx="4" ry="4"/><rect class="cls-1" x="534.18" y="315.55" width="13.54" height="22.45" rx="4" ry="4"/><path class="cls-13" d="M547.55,293.28v-86.1a5.65,5.65,0,0,0-5.69-5.57h-2.24a5.65,5.65,0,0,0-5.68,5.57V312.71a5.42,5.42,0,0,0,.4,2v3.56h13.6v-25Z"/><path class="cls-13" d="M461.2,293.28v-86.1a5.64,5.64,0,0,0-5.68-5.57h-2.24a5.65,5.65,0,0,0-5.68,5.57V312.71a5.42,5.42,0,0,0,.4,2v3.56h13.6v-25Z"/><polygon class="cls-13" points="497.01 306.3 511.34 325.31 522.01 298.3 528.89 259.7 528.89 199.09 511.34 194.09 511.34 194.09 497.01 210.3 497.01 306.3"/><polygon class="cls-13" points="497.01 306.3 484.34 325.31 472.01 298.3 466.79 259.7 466.79 199.09 484.34 194.09 484.34 194.09 497.01 210.3 497.01 306.3"/><polygon class="cls-11" points="526.66 484.72 499.74 484.72 504.74 298.6 521.66 298.6 526.66 484.72"/><polygon class="cls-11" points="493.66 484.72 466.74 484.72 471.74 298.6 488.66 298.6 493.66 484.72"/><polygon class="cls-13" points="500.87 197.55 507.71 190.26 512.09 194.37 502.5 204.58 500.87 197.55"/><polygon class="cls-13" points="494.08 197.55 487.24 190.26 482.87 194.37 492.45 204.58 494.08 197.55"/><rect class="cls-11" x="472.01" y="298.3" width="50" height="20"/><path class="cls-10" d="M500.89,115.16c-4,6-2.32,14.2-4.42,21.16a6.52,6.52,0,0,1-1.16,2.38,8.28,8.28,0,0,1-3.09,1.92,55.05,55.05,0,0,0-7.44,4,12.73,12.73,0,0,0-4.77,4.67c-.54,1.07-.79,2.27-1.37,3.32-.93,1.71-2.63,2.9-3.59,4.59-1.42,2.48-1.05,5.63,0,8.28s2.77,5,4,7.56,2,5.57,1.11,8.28c-.53,1.55-1.86,3-3.49,3a5.29,5.29,0,0,1-1.63-.45l-12.61-5c-1.38-.55-3-1.37-3.11-2.84a7,7,0,0,0,2.94-1.31,2.44,2.44,0,0,0,.66-2.92c-.7-1.15-2.34-1.13-3.68-1-.43-1,.56-2,1.57-2.38a13,13,0,0,0,3.07-.92,4.3,4.3,0,0,0,1.6-2.41,10.3,10.3,0,0,0-.55-7.5,9.68,9.68,0,0,0-1.74,4c-.56-3.12,1.43-6.41.4-9.41a30.62,30.62,0,0,0-1.85-3.36,12.35,12.35,0,0,1-1-5.68c.14-9.32,4.42-18,8.61-26.34,1.45-2.88,3.09-6,6-7.36,1.61-.77,3.55-1,4.8-2.28.42-.43.74-1,1.2-1.36,1.88-1.61,4.84-.1,7.23-.78l-1.37,1.29a25.15,25.15,0,0,1,5.4-1.85,10.89,10.89,0,0,1,5.61,0,5.15,5.15,0,0,1,3.63,4c.3,2.54-1.82,4.77-2,7.32"/><path class="cls-10" d="M531.38,150.55c-3.7-4.25-1.55-11-3.65-16.25-.85-2.12-2.42-4.08-2.33-6.36.08-2,1.52-4,.9-6l.18.19c.14-1.24-1.18-2.06-2.07-2.94-2.57-2.53-2-6.91-4-9.91-1.78-2.7-5.19-3.73-8.34-4.43-5.36-1.17-11-1.89-16.25-.25a4.51,4.51,0,0,0-2.27,1.3,5.17,5.17,0,0,0-.76,3.32l0,15.66"/><path class="cls-10" d="M531.38,152.55c-3.7-4.25-1.56-11-3.65-16.25-.85-2.12-2.42-4.08-2.33-6.36.08-2,1.52-4,.9-6l.18.19c.14-1.24-1.18-2.06-2.07-2.94-2.57-2.53-2-6.91-4-9.91-1.78-2.7-5.19-3.73-8.34-4.43-5.35-1.17-11-1.89-16.25-.25a4.51,4.51,0,0,0-2.27,1.3,5.17,5.17,0,0,0-.76,3.32c0,5.22.26,10.85.25,16.07l-.22-.14c-.77,3.7,2.67,7.08,5.9,9.93,4.86,4.3,10,8.76,17,10.79,2.4.7,13,3.41,15.26,4.4Z"/><path class="cls-10" d="M499,168.26a.86.86,0,0,0,.22,1.06,2.5,2.5,0,0,0,1.08.46l2.39.58a6.3,6.3,0,0,1,1.48.5c.45.25.84.6,1.28.88a1.9,1.9,0,0,0,1.47.32,2.38,2.38,0,0,0-.2-1.93,2.3,2.3,0,0,0-.78-.55c-2.09-1.08-4.3-2.19-6.65-2.08-.24,0-.53.08-.59.31s.06.45-.12.52"/><path class="cls-10" d="M495.55,168.26a.84.84,0,0,1-.21,1.06,2.61,2.61,0,0,1-1.08.46l-2.39.58a6.37,6.37,0,0,0-1.49.5c-.45.25-.83.6-1.27.88a1.9,1.9,0,0,1-1.47.32,2.34,2.34,0,0,1,.19-1.93,2.4,2.4,0,0,1,.78-.55c2.09-1.08,4.3-2.19,6.65-2.08.24,0,.54.08.59.31s-.05.45.13.52"/><path class="cls-10" d="M520.07,145.2c.94,3.19.57,6.83.9,10.14.41,4.15.83,8.3,1,12.46.1,1.92,3.1,1.93,3,0-.23-4.55-.77-9.07-1.16-13.61-.27-3.24,0-6.65-.89-9.79-.54-1.85-3.44-1.06-2.89.8Z"/><path class="cls-14" d="M516.3,176.85l-.62.71-.62.7-.63.7-.64.69-.64.68-.66.67-.66.66-.68.65-.69.63-.7.61-.72.6-.74.57c-.24.19-.49.37-.75.55s-.51.36-.76.53-.52.34-.79.51l-.8.47c-.27.16-.55.31-.83.45l-.84.41c-.29.14-.58.26-.87.38l-.88.34-.9.3-.9.26c-.31.08-.61.15-.92.21s-.62.12-.92.17h-1.32c-.31-.05-.62-.1-.93-.17s-.61-.13-.91-.21l-.91-.26-.9-.3-.88-.34c-.29-.12-.58-.24-.86-.38l-.85-.41c-.28-.14-.56-.29-.83-.45l-.8-.47c-.27-.17-.53-.33-.79-.51s-.51-.34-.76-.53-.51-.36-.75-.55l-.74-.57-.71-.6c-.24-.2-.48-.4-.71-.61l-.69-.63-.68-.65-.66-.66-.66-.67-.64-.68-.64-.69-.63-.7-.62-.7-.61-.71L488,172.3l9.47,4.55L507,172.3Z"/><path class="cls-1" d="M669.38,142.8c0-11.87,9.92-21.5,22.16-21.5s22.17,9.63,22.17,21.5v0l-.2,11.63L713.32,166c0,1,0,2.11-.13,3.17a14.8,14.8,0,0,1-.54,3.1,15.78,15.78,0,0,1-1.72,3.79c-.73,1.2-1.57,2.35-2.4,3.48a54.33,54.33,0,0,1-5,6.12,18.69,18.69,0,0,1-6.43,4.39H686a18.69,18.69,0,0,1-6.43-4.39,54.42,54.42,0,0,1-5-6.12c-.83-1.13-1.66-2.28-2.39-3.48a14.34,14.34,0,0,1-2.27-6.89c-.08-1.06-.1-2.12-.12-3.17l-.2-11.63-.19-11.63"/><path class="cls-1" d="M670.17,159.88a4.67,4.67,0,0,1,0-9.34"/><path class="cls-1" d="M712.2,150.54a4.67,4.67,0,0,1,0,9.34"/><circle class="cls-13" cx="685.45" cy="157.21" r="2"/><circle class="cls-13" cx="697.64" cy="157.21" r="2"/><polygon class="cls-1" points="697.46 197.6 692.31 206.6 687.16 197.6 687.16 192.53 687.16 187.45 692.31 187.45 697.46 187.45 697.46 192.53 697.46 197.6"/><path class="cls-15" d="M715.68,476.06h-9.31a6.73,6.73,0,0,0-4.78,2,7.1,7.1,0,0,0-1.46,2.16,6.74,6.74,0,0,0-.53,2.62v6.77a6.79,6.79,0,0,0,.53,2.63,6.94,6.94,0,0,0,1.46,2.15,6.68,6.68,0,0,0,4.78,2h37.22a6.76,6.76,0,0,0,6.77-6.77v-3.38Z"/><path class="cls-15" d="M668.2,476.06h9.31a6.74,6.74,0,0,1,2.62.53,6.74,6.74,0,0,1,3.61,3.61,6.74,6.74,0,0,1,.53,2.62v6.77a6.73,6.73,0,0,1-2,4.78,6.93,6.93,0,0,1-2.16,1.46,6.74,6.74,0,0,1-2.62.53H640.28a6.79,6.79,0,0,1-6.23-4.14,6.62,6.62,0,0,1-.54-2.63v-3.38Z"/><rect class="cls-1" x="642.46" y="315.55" width="13.54" height="22.45" rx="4" ry="4"/><rect class="cls-1" x="728.8" y="315.55" width="13.54" height="22.45" rx="4" ry="4"/><path class="cls-2" d="M742.17,293.28v-86.1a5.65,5.65,0,0,0-5.68-5.57h-2.24a5.64,5.64,0,0,0-5.68,5.57V312.71a5.42,5.42,0,0,0,.4,2v3.56h13.6v-25Z"/><path class="cls-2" d="M655.83,293.28v-86.1a5.65,5.65,0,0,0-5.68-5.57h-2.24a5.64,5.64,0,0,0-5.68,5.57V312.71a5.41,5.41,0,0,0,.39,2v3.56h13.61v-25Z"/><polygon class="cls-2" points="688.41 343.89 705.96 380.3 723.51 380.3 723.51 287.19 723.51 199.09 705.96 194.09 705.96 194.09 688.41 287.19 688.41 343.89"/><polygon class="cls-2" points="696.51 343.89 678.96 380.3 661.41 380.3 661.41 287.19 661.41 199.09 678.96 194.09 678.96 194.09 696.51 287.19 696.51 343.89"/><path class="cls-16" d="M672,190.36a12.25,12.25,0,0,1,.58-6,45.74,45.74,0,0,1,2.53-5.9,35.46,35.46,0,0,0,2.36-5.85,10.53,10.53,0,0,0,0-5.89,10.3,10.3,0,0,0-1.06-2.34,22,22,0,0,0-1.48-2.14c-.53-.69-1.07-1.38-1.59-2.08A18,18,0,0,1,672,158a7.1,7.1,0,0,1-.76-2.36,7.9,7.9,0,0,1,0-2.52,7.71,7.71,0,0,1,.83-2.36,6,6,0,0,1,1.58-1.86,11.7,11.7,0,0,1,2.93-1.66,12.27,12.27,0,0,1,3.28-.79,8.69,8.69,0,0,1,3.16.27,5.8,5.8,0,0,1,2.57,1.49c1.25,1.28,2.39,1.42,3.35.84a6.61,6.61,0,0,0,2.32-3.52,18.21,18.21,0,0,0,.93-5.37,10.56,10.56,0,0,0-.83-4.75c.37,1.12.74,2.51,1.09,4s.65,3.2.89,4.87a42.74,42.74,0,0,1,.45,4.89,18.07,18.07,0,0,1-.27,4.12,11.8,11.8,0,0,0,3.17-3.61,26.19,26.19,0,0,0,2.22-5,47.66,47.66,0,0,0,1.45-5.48c.37-1.8.64-3.54.84-5.05a9.33,9.33,0,0,1,.54,3.57,42.89,42.89,0,0,1-.31,4.87c-.18,1.71-.42,3.42-.62,4.94s-.38,2.84-.43,3.76c.39-.68,1-1.76,1.6-3.05s1.39-2.76,2.12-4.24,1.48-3,2.13-4.25,1.21-2.37,1.59-3l1,11.74-2,11.73,2.93,11.73-1,11.74c0,.46,3.38-.28,4-1.77s1.37-3.72,2.14-6.25,1.54-5.34,2.12-8a36.28,36.28,0,0,0,1-7c0-1.07,0-2.14,0-3.21s-.1-2.14-.19-3.21-.21-2.13-.37-3.19-.34-2.11-.56-3.16c-.14-.65-.24-1.37-.35-2.13s-.2-1.53-.31-2.3-.25-1.53-.43-2.24a8.32,8.32,0,0,0-.68-1.9c-.78-1.51-1.38-2.94-1.94-4.31s-1-2.68-1.63-3.93a19.65,19.65,0,0,0-2-3.55,15.66,15.66,0,0,0-3.2-3.21,18.07,18.07,0,0,0-5-2.53,35.06,35.06,0,0,0-6.31-1.49,43.19,43.19,0,0,0-6.53-.47,28.18,28.18,0,0,0-5.68.57,19.74,19.74,0,0,0-6.85,3,27.13,27.13,0,0,0-5.61,5.12,40.47,40.47,0,0,0-4.39,6.55,55.53,55.53,0,0,0-3.25,7.24,49,49,0,0,0-1.59,5.16,33.65,33.65,0,0,0-.92,5.32,23.78,23.78,0,0,0,.11,5.27,17.49,17.49,0,0,0,1.48,5,25.41,25.41,0,0,0,2.55,4.13c1,1.33,2,2.62,3,3.93a22.71,22.71,0,0,1,2.43,4.06,10.8,10.8,0,0,1,1,4.49"/><path class="cls-16" d="M685.12,172a14.51,14.51,0,0,1,6.24-.77c1.93.05,1.93-2.95,0-3a17.55,17.55,0,0,0-7.76,1.18c-1.75.8-.23,3.39,1.52,2.59Z"/><path class="cls-16" d="M699.12,169.37a17.51,17.51,0,0,0-7.76-1.18c-1.92.05-1.93,3.05,0,3a14.47,14.47,0,0,1,6.24.77c1.75.8,3.28-1.79,1.52-2.59Z"/><ellipse class="cls-17" cx="691.64" cy="173.8" rx="5.5" ry="0.5"/><line class="cls-18" x1="680.64" y1="154.3" x2="686.64" y2="151.3"/><line class="cls-18" x1="701.64" y1="154.3" x2="695.64" y2="151.3"/><polygon class="cls-9" points="695.49 197.55 702.34 190.26 706.71 194.37 697.13 204.58 695.49 197.55"/><polygon class="cls-9" points="688.71 197.55 681.87 190.26 677.49 194.37 687.07 204.58 688.71 197.55"/><line class="cls-19" x1="692.64" y1="206.3" x2="693.64" y2="259.3"/><polygon class="cls-2" points="722.28 484.72 695.36 484.72 700.36 298.6 717.28 298.6 722.28 484.72"/><polygon class="cls-2" points="689.28 484.72 662.36 484.72 667.36 298.6 684.28 298.6 689.28 484.72"/></svg>