<svg id="Layer_1" data-name="Layer 1" xmlns="http://www.w3.org/2000/svg" viewBox="0 0 800 500"><defs><style>.cls-1{fill:#43241d;}.cls-2{fill:#1d1416;}.cls-3{fill:#201517;}.cls-10,.cls-15,.cls-4{fill:#282d3c;}.cls-5{fill:#798ea4;}.cls-6{fill:#f9e8d4;}.cls-7{fill:#9b4722;}.cls-8{fill:#584f49;}.cls-9{fill:#fff;stroke:#e6e7e8;}.cls-10,.cls-13,.cls-15,.cls-9{stroke-miterlimit:10;}.cls-10,.cls-9{stroke-width:0.25px;}.cls-10{stroke:#000;}.cls-11{fill:#00758f;}.cls-12{fill:#e8a798;}.cls-13{fill:none;stroke:#e8a798;}.cls-14{fill:#59362d;}.cls-15{stroke:#edd59e;}</style></defs><title>experimentation</title><path class="cls-1" d="M131.83,113.89a11.65,11.65,0,0,0,7.72,5.72l-8.42-.93,1,9.46a3.67,3.67,0,0,1-.35,2.58,3.21,3.21,0,0,1-2.2,1.06,11.45,11.45,0,0,1-9.43-2.4c-2.5-2.24-3.61-6.1-2.17-9.13,2.54-5.33,10.07-5.12,15.87-4.09"/><path class="cls-1" d="M74,126.79a12.88,12.88,0,0,0-3,5l10.74-3.16A8.75,8.75,0,0,0,78,134l9.9-3.14-1.81,5.92a49.15,49.15,0,0,0,7.46-3.58,3.56,3.56,0,0,0,1.57-1.45,3.74,3.74,0,0,0-.43-2.94l-5.22-11.58a2.37,2.37,0,0,0-1.14-1.4c-.87-.32-1.75.44-2.34,1.16-3,3.62-6.35,8.53-10.93,7.52"/><path class="cls-2" d="M530.42,107.09c1.43,4.72,3.14,8.19-1.31,10.3-1.16.55-3.51,3.66-4.61,4.32-3.74,2.22-2.36,8.82-6,11.21-1.9,1.24-4.38.79-6.66.86s-5,1.3-5,3.57a72.58,72.58,0,0,1-3-13.35,6.12,6.12,0,0,1,.46-4,6.35,6.35,0,0,1,2.82-2.07l21.3-10.19"/><path class="cls-2" d="M472,114.14a3.66,3.66,0,0,0-1.42,7.11l-3.49,4.29,9,.47a23.41,23.41,0,0,1-4.95,7.26,19.66,19.66,0,0,0,20.23-4.22,15.35,15.35,0,0,0-23.78-15.42"/><path class="cls-3" d="M326.39,112.82a8,8,0,0,1-9.33,11.62Z"/><path class="cls-3" d="M279,111.82a8,8,0,0,0,9.33,11.62Z"/><polygon class="cls-4" points="511.98 215.79 504.48 215.79 496.98 215.79 489.48 215.79 481.98 215.79 481.98 197.79 481.98 179.79 481.98 161.79 481.98 144.79 489.48 143.79 496.98 156.79 504.48 143.79 511.98 144.79 511.98 161.79 511.98 179.79 511.98 197.79 511.98 215.79"/><polygon class="cls-4" points="123.98 218.79 116.48 218.79 108.98 218.79 101.48 218.79 93.98 218.79 93.98 200.79 93.98 182.79 93.98 164.79 93.98 147.79 101.48 146.79 108.98 159.79 116.48 146.79 123.98 147.79 123.98 164.79 123.98 182.79 123.98 200.79 123.98 218.79"/><polygon class="cls-5" points="706.9 214.79 699.4 214.79 691.9 214.79 684.4 214.79 676.9 214.79 676.9 196.79 676.9 178.79 676.9 160.79 676.9 143.79 684.4 142.79 691.9 155.79 699.4 142.79 706.9 143.79 706.9 160.79 706.9 178.79 706.9 196.79 706.9 214.79"/><path class="cls-6" d="M83,84c0-14.77,11.23-26.75,25.08-26.75s25.08,12,25.08,26.75l-.07-1.31c.83,8.42,0,17.53.08,25.51a64,64,0,0,1-.21,7.06,20.12,20.12,0,0,1-1.71,6.69,19.35,19.35,0,0,1-2.86,4.33c-1.12,1.32-2.36,2.55-3.59,3.75a48.89,48.89,0,0,1-7,6,14.75,14.75,0,0,1-8.16,2.8h-3.16a14.75,14.75,0,0,1-8.16-2.8,49,49,0,0,1-7-6c-1.22-1.2-2.46-2.43-3.58-3.75A19.35,19.35,0,0,1,84.94,122a20.38,20.38,0,0,1-1.72-6.69,66.51,66.51,0,0,1-.2-7.06c.08-8-.75-17.09.08-25.51"/><path class="cls-6" d="M83.53,104.66a5.08,5.08,0,0,1,0-10.15"/><path class="cls-6" d="M133.58,94.51a5.08,5.08,0,0,1,0,10.15"/><rect class="cls-4" x="83.49" y="244.39" width="16.92" height="186.12"/><polygon class="cls-6" points="116.62 146.09 108.62 159.09 100.62 146.09 100.62 141.09 100.62 136.09 108.62 136.09 116.62 136.09 116.62 141.09 116.62 146.09"/><path class="cls-4" d="M131.79,424.85h-9.31a6.79,6.79,0,0,0-6.23,4.14,6.62,6.62,0,0,0-.54,2.63v6.76a6.62,6.62,0,0,0,.54,2.63,6.74,6.74,0,0,0,6.23,4.14H159.7a6.76,6.76,0,0,0,6.77-6.77V435Z"/><path class="cls-4" d="M84.31,424.85h9.31a6.74,6.74,0,0,1,2.62.53,6.93,6.93,0,0,1,2.16,1.46,6.73,6.73,0,0,1,2,4.78v6.76a6.73,6.73,0,0,1-2,4.78,6.93,6.93,0,0,1-2.16,1.46,6.74,6.74,0,0,1-2.62.53H56.39A6.79,6.79,0,0,1,50.16,441a6.62,6.62,0,0,1-.54-2.63V435Z"/><rect class="cls-6" x="60.57" y="264.34" width="13.54" height="22.45" rx="4"/><rect class="cls-6" x="141.91" y="264.34" width="13.54" height="22.45" rx="4"/><path class="cls-7" d="M155.28,242.07V156a5.65,5.65,0,0,0-5.68-5.57h-2.24a5.64,5.64,0,0,0-5.68,5.57V261.5a5.42,5.42,0,0,0,.4,2v3.56h13.6v-25Z"/><path class="cls-7" d="M73.94,242.07V156a5.65,5.65,0,0,0-5.68-5.57H66A5.64,5.64,0,0,0,60.34,156V261.5a5.62,5.62,0,0,0,.39,2v3.56H74.34v-25Z"/><polygon class="cls-4" points="111.47 147.34 118.32 140.05 122.69 144.16 113.11 154.37 111.47 147.34"/><polygon class="cls-4" points="104.69 147.34 97.85 140.05 93.47 144.16 103.06 154.37 104.69 147.34"/><path class="cls-6" d="M276.55,81.42a26.21,26.21,0,0,1,52.41,0l-.8-5a91.54,91.54,0,0,1,1.47,22.65,44.86,44.86,0,0,1-6.55,21,44,44,0,0,1-2.63,3.63c-.93,1.16-1.91,2.29-2.92,3.39a42.26,42.26,0,0,1-5.73,5.38,19.79,19.79,0,0,1-6.89,3.46l-4.31-.22a19.69,19.69,0,0,1-6.89-3.45A43.52,43.52,0,0,1,288,127c-1-1.1-2-2.23-2.92-3.4a42.14,42.14,0,0,1-2.62-3.62c-4.06-6.32-6-13.54-6.56-21a92,92,0,0,1,1.47-22.64"/><path class="cls-6" d="M276.19,102.58a5.08,5.08,0,1,1,0-10.15"/><path class="cls-6" d="M328.9,92.43a5.08,5.08,0,0,1,0,10.15"/><circle class="cls-8" cx="311.52" cy="98.29" r="3"/><circle class="cls-8" cx="293.52" cy="98.29" r="3"/><rect class="cls-4" x="278.11" y="244.39" width="16.92" height="186.12"/><polygon class="cls-6" points="310.25 146.09 303.25 156.09 295.25 146.09 295.25 139.59 295.25 133.09 302.75 133.09 310.25 133.09 310.25 139.59 310.25 146.09"/><path class="cls-4" d="M326.41,424.85H317.1a6.7,6.7,0,0,0-2.62.53,6.93,6.93,0,0,0-2.16,1.46,6.73,6.73,0,0,0-2,4.78v6.76a6.73,6.73,0,0,0,2,4.78,6.93,6.93,0,0,0,2.16,1.46,6.7,6.7,0,0,0,2.62.53h37.23a6.79,6.79,0,0,0,2.63-.53,6.88,6.88,0,0,0,2.15-1.46,6.74,6.74,0,0,0,1.45-2.15,6.62,6.62,0,0,0,.54-2.63V435Z"/><path class="cls-4" d="M278.93,424.85h9.31a6.79,6.79,0,0,1,6.23,4.14,6.62,6.62,0,0,1,.54,2.63v6.76a6.62,6.62,0,0,1-.54,2.63,6.74,6.74,0,0,1-6.23,4.14H251a6.76,6.76,0,0,1-6.77-6.77V435Z"/><rect class="cls-6" x="255.19" y="264.34" width="13.54" height="22.45" rx="4"/><rect class="cls-6" x="336.53" y="264.34" width="13.54" height="22.45" rx="4"/><path class="cls-4" d="M349.9,242.07V156a5.64,5.64,0,0,0-5.68-5.57H342A5.65,5.65,0,0,0,336.3,156V261.5a5.42,5.42,0,0,0,.4,2v3.56h13.6v-25Z"/><path class="cls-4" d="M268.56,242.07V156a5.64,5.64,0,0,0-5.68-5.57h-2.24A5.65,5.65,0,0,0,255,156V261.5a5.42,5.42,0,0,0,.4,2v3.56H269v-25Z"/><polygon class="cls-4" points="332.89 437.51 305.97 437.51 310.97 251.39 327.89 251.39 332.89 437.51"/><polygon class="cls-4" points="299.89 437.51 272.97 437.51 277.97 251.39 294.89 251.39 299.89 437.51"/><polygon class="cls-4" points="307.25 248.45 289.7 274.11 272.15 274.11 272.15 208.49 272.15 147.88 289.75 142.59 307.25 208.49 307.25 248.45"/><polygon class="cls-4" points="298.15 248.45 315.7 274.11 333.25 274.11 333.25 208.49 333.25 147.88 315.65 142.59 298.15 208.49 298.15 248.45"/><polygon class="cls-9" points="306.1 146.34 312.94 139.05 317.32 143.16 307.74 153.37 306.1 146.34"/><polygon class="cls-9" points="299.32 146.34 292.47 139.05 288.1 143.16 297.68 153.37 299.32 146.34"/><path class="cls-6" d="M472.05,86.41a25.07,25.07,0,0,1,50.14,0h-.26q.39,4.84.66,9.7t.46,9.7a56.42,56.42,0,0,1,0,6,20.33,20.33,0,0,1-1.15,5.77,20,20,0,0,1-2.42,4.45,49,49,0,0,1-3.19,4,68,68,0,0,1-5.15,5.45,31.24,31.24,0,0,1-5.95,4.48,21,21,0,0,1-7.06,2.52H496.8a21,21,0,0,1-7.06-2.52,31.24,31.24,0,0,1-5.95-4.48,68,68,0,0,1-5.15-5.45,49,49,0,0,1-3.19-4,20,20,0,0,1-2.42-4.45,20.33,20.33,0,0,1-1.15-5.77,56.42,56.42,0,0,1,0-6q.18-4.86.46-9.7Z"/><circle class="cls-8" cx="487.9" cy="99.42" r="2.33"/><circle class="cls-8" cx="506.09" cy="99.42" r="2.33"/><path class="cls-6" d="M472.58,104.09a4.67,4.67,0,1,1,0-9.33"/><path class="cls-6" d="M522,94.76a4.67,4.67,0,0,1,0,9.33"/><polygon class="cls-6" points="510.96 143.09 496.96 159.09 483.96 143.09 489.96 143.09 489.96 136.09 497.46 136.09 504.96 136.09 504.96 143.09 510.96 143.09"/><path class="cls-10" d="M521,424.85h-9.3a6.68,6.68,0,0,0-4.78,2,6.94,6.94,0,0,0-1.46,2.15,6.79,6.79,0,0,0-.53,2.63v6.76a6.79,6.79,0,0,0,.53,2.63,6.94,6.94,0,0,0,1.46,2.15,6.68,6.68,0,0,0,4.78,2H549a6.76,6.76,0,0,0,6.77-6.77V435Z"/><path class="cls-10" d="M473.56,424.85h9.3a6.68,6.68,0,0,1,4.78,2A6.61,6.61,0,0,1,489.1,429a6.79,6.79,0,0,1,.53,2.63v6.76a6.79,6.79,0,0,1-.53,2.63,6.61,6.61,0,0,1-1.46,2.15,6.68,6.68,0,0,1-4.78,2H445.64a6.79,6.79,0,0,1-6.23-4.14,6.62,6.62,0,0,1-.54-2.63V435Z"/><rect class="cls-6" x="448.82" y="264.34" width="13.54" height="22.45" rx="4"/><rect class="cls-6" x="531.16" y="264.34" width="13.54" height="22.45" rx="4"/><path class="cls-4" d="M544.53,242.07V156a5.65,5.65,0,0,0-5.68-5.57h-2.24a5.64,5.64,0,0,0-5.68,5.57V261.5a5.42,5.42,0,0,0,.4,2v3.56h13.6v-25Z"/><path class="cls-4" d="M462.19,242.07V156a5.65,5.65,0,0,0-5.68-5.57h-2.24a5.64,5.64,0,0,0-5.68,5.57V261.5a5.41,5.41,0,0,0,.39,2v3.56h13.61v-25Z"/><polygon class="cls-4" points="526.64 433.51 499.72 433.51 504.72 247.39 521.64 247.39 526.64 433.51"/><polygon class="cls-4" points="493.64 433.51 466.72 433.51 471.72 247.39 488.64 247.39 493.64 433.51"/><rect class="cls-4" x="472" y="247.09" width="50" height="20"/><path class="cls-6" d="M669.73,91.59c0-11.87,9.93-21.5,22.17-21.5s22.17,9.63,22.17,21.5v0l-.2,11.63-.2,11.63c0,1.06,0,2.12-.12,3.17a16.23,16.23,0,0,1-.54,3.1,15.81,15.81,0,0,1-1.73,3.79c-.72,1.2-1.56,2.35-2.39,3.48a55.44,55.44,0,0,1-5,6.12,18.69,18.69,0,0,1-6.43,4.39H686.37a18.69,18.69,0,0,1-6.43-4.39,54.33,54.33,0,0,1-5-6.12c-.83-1.13-1.67-2.28-2.39-3.48a15.81,15.81,0,0,1-1.73-3.79,15.48,15.48,0,0,1-.54-3.1c-.09-1-.11-2.11-.13-3.17l-.19-11.63-.2-11.63"/><path class="cls-6" d="M670.19,108.67a4.68,4.68,0,0,1-4.67-4.67,4.66,4.66,0,0,1,4.67-4.66"/><path class="cls-6" d="M712.22,99.34a4.67,4.67,0,0,1,0,9.33"/><circle class="cls-5" cx="685.46" cy="108" r="2"/><circle class="cls-5" cx="697.65" cy="108" r="2"/><polygon class="cls-6" points="697.05 146.4 691.9 155.4 686.75 146.4 686.75 141.32 686.75 136.24 691.9 136.24 697.05 136.24 697.05 141.32 697.05 146.4"/><path class="cls-10" d="M715.69,424.85h-9.31a6.74,6.74,0,0,0-2.62.53,6.93,6.93,0,0,0-2.16,1.46,6.73,6.73,0,0,0-2,4.78v6.76a6.73,6.73,0,0,0,2,4.78,6.93,6.93,0,0,0,2.16,1.46,6.74,6.74,0,0,0,2.62.53h37.23a6.79,6.79,0,0,0,6.23-4.14,6.62,6.62,0,0,0,.54-2.63V435Z"/><path class="cls-10" d="M668.21,424.85h9.31a6.79,6.79,0,0,1,6.23,4.14,6.62,6.62,0,0,1,.54,2.63v6.76a6.62,6.62,0,0,1-.54,2.63,6.74,6.74,0,0,1-6.23,4.14H640.3a6.76,6.76,0,0,1-6.77-6.77V435Z"/><rect class="cls-6" x="644.47" y="264.34" width="13.54" height="22.45" rx="4"/><rect class="cls-6" x="726.82" y="264.34" width="13.54" height="22.45" rx="4"/><path class="cls-4" d="M740.19,242.07V156a5.65,5.65,0,0,0-5.69-5.57h-2.23a5.65,5.65,0,0,0-5.69,5.57V261.5a5.42,5.42,0,0,0,.4,2v3.56h13.6v-25Z"/><path class="cls-4" d="M657.84,242.07V156a5.64,5.64,0,0,0-5.68-5.57h-2.24a5.65,5.65,0,0,0-5.68,5.57V261.5a5.42,5.42,0,0,0,.4,2v3.56h13.6v-25Z"/><polygon class="cls-5" points="695.51 146.34 702.35 139.05 706.73 143.16 697.14 153.37 695.51 146.34"/><polygon class="cls-5" points="688.73 146.34 681.88 139.05 677.51 143.16 687.09 153.37 688.73 146.34"/><polygon class="cls-11" points="722.3 433.51 695.38 433.51 700.38 247.39 717.3 247.39 722.3 433.51"/><polygon class="cls-11" points="689.3 433.51 662.38 433.51 667.38 247.39 684.3 247.39 689.3 433.51"/><circle class="cls-12" cx="302.9" cy="119.42" r="2.33"/><line class="cls-13" x1="488.98" y1="122.29" x2="504.98" y2="122.29"/><rect class="cls-4" x="83" y="243.79" width="50" height="20"/><rect class="cls-4" x="115.49" y="244.39" width="16.92" height="186.12"/><polygon class="cls-7" points="112.62 234.51 95.07 256.79 77.52 256.79 77.52 199.82 77.52 147.18 95.12 142.59 112.62 199.82 112.62 234.51"/><polygon class="cls-7" points="104 255.79 121.07 256.79 138.62 256.79 138.62 199.82 138.62 147.18 121.02 142.59 103.52 199.82 104 255.79"/><path class="cls-1" d="M71.54,122.63c3.38,1.65,7.15-2.42,7.1-6.19s-2.28-7.09-3.59-10.62a22.76,22.76,0,0,1,.51-17c2.25-5.07,6.28-9.13,9-14,2.23-3.95,3.71-8.57,7.3-11.35,3.36-2.6,7.86-3,12.09-3.35,5.26-.4,10.65-.78,15.73.63,6.74,1.88,12.36,6.82,16,12.76s5.63,12.83,6.72,19.74c.81,5.06,1.08,10.63-1.73,14.91-1.58,2.4-4,4.19-5.32,6.73-2,3.94.3,10,4.73,10l-8.4.49c-.31-6.35,1.11-12.74.4-19.07s-4.44-13.07-10.7-14.24c-3-.55-6,.23-8.93,1L93.1,98.31a14.17,14.17,0,0,0-4.78,1.92c-3.72,2.71-3.89,8-4.6,12.6-.57,3.71-1.82,7.46-4.45,10.12s-6.92,3.94-10.27,2.26a3.15,3.15,0,0,0,2-2.43"/><path class="cls-3" d="M279.87,110.66c-6.18-6.19-8.85-15.26-8-23.87S276.78,70,282.47,63.34a25.13,25.13,0,0,1,7.87-6.56A20.9,20.9,0,0,1,298,54.9c8.78-.6,23.58,4.06,30,9.89s4.5,9.69,6.4,18c.64,2.78,0,8.65-.4,11.47-.93,5.88-4.34,10.6-8.54,14.94,3.3-6.47-1.14-14.6-7.61-18.08s-14.26-3.56-21.68-3.55c-5.55,0-12,.48-15.15,5-3.56,5.14-.44,12.34-2.77,18.1"/><path class="cls-14" d="M668.67,111.64c.55-2,.06-4-.06-6s.29-4.34,2-5.41a6.8,6.8,0,0,1,3.46-.74q15.23-.49,30.46-.22a4.2,4.2,0,0,1,1.8.31,3.93,3.93,0,0,1,1.56,2,43.84,43.84,0,0,1,4,13.63c5.22-.39,9.13-5.44,9.93-10.61s-.77-10.38-2.5-15.31C717.7,84.69,715.8,80,712,77.05c-2.71-2.08-6.11-3-9.42-3.85-9.37-2.37-19.93-4.14-28.18.88-4.51,2.75-7.72,7.23-10,12C662,91,660.44,96.5,661.19,101.91s4.18,10.67,9.33,12.51"/><polygon class="cls-4" points="688.43 249.8 705.98 275.79 723.53 275.79 723.53 209.34 723.53 146.45 705.98 142.88 705.98 142.88 688.43 209.34 688.43 249.8"/><polygon class="cls-4" points="696.53 249.8 678.98 275.79 661.43 275.79 661.43 209.34 661.43 146.45 678.98 142.88 678.98 142.88 696.53 209.34 696.53 249.8"/><path class="cls-13" d="M699,124.72c0,1.64-3.36,3-7.5,3s-7.5-1.33-7.5-3"/><polygon class="cls-4" points="500.62 235.51 483.07 257.79 465.52 257.79 465.52 200.82 465.52 148.18 483.12 143.59 500.62 200.82 500.62 235.51"/><polygon class="cls-4" points="492 256.79 509.07 257.79 526.62 257.79 526.62 200.82 526.62 148.18 509.02 143.59 491.52 200.82 492 256.79"/><path class="cls-2" d="M472.54,113.62c-2-3.34,2-5,1-8.7-.73-2.62-1.19-5.51-.1-8,1.48-3.39,5.3-4.94,8.8-6,8.21-2.45,17.08-3.91,25.26-1.37s15.36,10,15.26,18.72c0,3-.47,6.93,2.22,8.21,1.83.88,4.11-.31,5.14-2.08a11.43,11.43,0,0,0,1-6,68,68,0,0,0-14.42-40.17,23.15,23.15,0,0,0-7.16-6.51c-3.62-1.88-7.84-2.06-11.9-1.95a33.72,33.72,0,0,0-10.39,1.55c-7.71,2.71-13.17,9.83-16.51,17.39s-5,15.76-7.77,23.54c-1,2.66-2.05,5.38-1.81,8.2.28,3.24,2.3,6,4.42,8.48a2.28,2.28,0,0,0,1,.76c.8.24,1.55-.4,2.2-.92a10,10,0,0,1,8.06-2"/><circle class="cls-8" cx="98.83" cy="104.12" r="2.33"/><circle class="cls-8" cx="117.02" cy="104.12" r="2.33"/><path class="cls-13" d="M116,123.72c0,1.64-3.36,3-7.5,3s-7.5-1.33-7.5-3"/><rect class="cls-15" x="92" y="100.79" width="14" height="10" rx="4"/><rect class="cls-15" x="110" y="100.79" width="14" height="10" rx="4"/></svg>