<svg id="Layer_1" data-name="Layer 1" xmlns="http://www.w3.org/2000/svg" viewBox="0 0 800 600"><defs><style>.cls-1{fill:#f9e8d4;}.cls-2{fill:#584f49;}.cls-3,.cls-7{fill:#282d3c;}.cls-4{fill:#798ea4;}.cls-5{fill:#fff;stroke:#e6e7e8;}.cls-5,.cls-6,.cls-7{stroke-miterlimit:10;}.cls-6{fill:none;stroke:#282d3c;}.cls-7{stroke:#fff;}</style></defs><title>mania main</title><path class="cls-1" d="M470.9,144.32a25.07,25.07,0,0,1,50.14,0h-.26q.39,4.85.66,9.7t.46,9.7a56.42,56.42,0,0,1,0,6,18.44,18.44,0,0,1-3.57,10.22,49,49,0,0,1-3.19,4,68,68,0,0,1-5.15,5.45,31.24,31.24,0,0,1-6,4.48,21,21,0,0,1-7.06,2.52h-1.32a21,21,0,0,1-7.06-2.52,31.63,31.63,0,0,1-6-4.48,69.7,69.7,0,0,1-5.14-5.45,49,49,0,0,1-3.19-4,20,20,0,0,1-2.42-4.45,20.69,20.69,0,0,1-1.16-5.77,56.42,56.42,0,0,1,0-6c.11-3.24.27-6.47.45-9.7Z"/><circle class="cls-2" cx="486.9" cy="157.33" r="2.33"/><circle class="cls-2" cx="505.09" cy="157.33" r="2.33"/><path class="cls-1" d="M471.58,162a4.67,4.67,0,1,1,0-9.33"/><path class="cls-1" d="M521,152.67a4.67,4.67,0,0,1,0,9.33"/><path class="cls-1" d="M668.74,145.45c0-12.9,9.92-23.35,22.17-23.35s22.16,10.45,22.16,23.35v0L712.88,158l-.2,12.63c0,1.14,0,2.29-.12,3.44a19.09,19.09,0,0,1-.54,3.37,18.36,18.36,0,0,1-1.73,4.11c-.73,1.3-1.56,2.55-2.4,3.78a56.21,56.21,0,0,1-5,6.64,18.69,18.69,0,0,1-6.43,4.77h-11A18.69,18.69,0,0,1,679,192a56.21,56.21,0,0,1-5-6.64c-.84-1.23-1.67-2.48-2.4-3.78a16.28,16.28,0,0,1-2.26-7.48c-.09-1.15-.11-2.3-.13-3.44l-.2-12.63-.19-12.63"/><path class="cls-3" d="M715.91,154.41c.76-5,1.53-10.14.75-15.17s-10.39-17.75-17.8-17.84c-2,0-20.9,0-22.73.78a12.89,12.89,0,0,0-3.5,2.24A32.51,32.51,0,0,0,661,150.67c.09,1.69,5.36,9.39,6.84,10.3s-1.18-5.48.29-6.6-1.5,1.08,0,0c3.4-2.44,12.25-5.83,16.26-4.49s7.7,3.53,11.81,4.55c6.28,1.55,10.13,2.75,16.56,3.5"/><path class="cls-1" d="M669.54,166.58a4.67,4.67,0,1,1,0-9.33"/><path class="cls-1" d="M711.56,157.25a4.67,4.67,0,0,1,0,9.33"/><circle class="cls-4" cx="681.81" cy="161.91" r="2.33"/><circle class="cls-4" cx="700" cy="161.91" r="2.33"/><path class="cls-1" d="M277.07,142.33a26.21,26.21,0,0,1,52.41,0l-.8-5A91.54,91.54,0,0,1,330.15,160a44.86,44.86,0,0,1-6.55,21c-.81,1.25-1.69,2.46-2.62,3.63s-1.92,2.29-2.93,3.39a42.26,42.26,0,0,1-5.73,5.38,19.79,19.79,0,0,1-6.89,3.46l-4.31-.22a19.69,19.69,0,0,1-6.89-3.45,43.52,43.52,0,0,1-5.73-5.38c-1-1.1-2-2.23-2.92-3.4a42.14,42.14,0,0,1-2.62-3.62c-4.06-6.32-6-13.54-6.56-21a92,92,0,0,1,1.47-22.64"/><path class="cls-1" d="M276.94,163.49a5.08,5.08,0,1,1,0-10.15"/><path class="cls-1" d="M329.66,153.34a5.08,5.08,0,0,1,0,10.15"/><path class="cls-3" d="M275.58,155.71c-1.31-10-2.37-21.09,3-29.17,5.91-8.82,17.06-10.4,26.95-11.24,4.13-.35,8.39-.68,12.31.78,6,2.26,10.3,8.54,12.27,15.26s2,13.92,2,21c0,1.33-.24,3-1.41,3.34-1,.27-1.84-.65-2.52-1.45a33.8,33.8,0,0,0-14.92-10.11c2.1-1.9-34.66,8.13-35.12,9.52s-1.85,2.62-3.06,2"/><circle class="cls-2" cx="313.28" cy="160.2" r="3"/><circle class="cls-2" cx="293.28" cy="160.2" r="3"/><circle class="cls-3" cx="303.03" cy="183.33" r="2.33"/><path class="cls-3" d="M468.49,156c-1.28-9.79-2.32-20.74,2.95-28.68,5.75-8.68,16.61-10.23,26.24-11,4-.35,8.17-.68,12,.77,5.88,2.22,10,8.39,11.94,15s1.95,13.69,1.94,20.63c0,1.31-.24,3-1.38,3.29-.94.26-1.79-.63-2.46-1.42a32.79,32.79,0,0,0-14.53-9.95c2.05-1.86-31.46-1.51-33.42,5.1-.41,1.38-.33,2.9-.77,4.26s-1.81,2.58-3,2"/><rect class="cls-3" x="278.74" y="302.3" width="16.92" height="186.12"/><rect class="cls-3" x="311.6" y="302.3" width="16.92" height="186.12"/><rect class="cls-1" x="293.52" y="194.15" width="20.3" height="10.15"/><rect class="cls-1" x="253.82" y="322.25" width="13.54" height="22.45" rx="4"/><rect class="cls-1" x="340.16" y="322.25" width="13.54" height="22.45" rx="4"/><path class="cls-3" d="M353.53,300v-86.1a5.65,5.65,0,0,0-5.68-5.57h-2.24a5.65,5.65,0,0,0-5.68,5.57V319.41a5.42,5.42,0,0,0,.4,2V325h13.6V300Z"/><path class="cls-3" d="M267.19,300v-86.1a5.65,5.65,0,0,0-5.68-5.57h-2.24a5.64,5.64,0,0,0-5.68,5.57V319.41a5.42,5.42,0,0,0,.4,2V325h13.6V300Z"/><polygon class="cls-3" points="299.77 306.36 317.32 332.01 334.87 332.01 334.87 266.4 334.87 200.79 317.32 200.79 317.32 200.79 299.77 266.4 299.77 306.36"/><polygon class="cls-3" points="307.87 306.36 290.32 332.01 272.77 332.01 272.77 266.4 272.77 200.79 290.32 200.79 290.32 200.79 307.87 266.4 307.87 306.36"/><rect class="cls-3" x="301.17" y="199.46" width="5" height="52.5"/><polygon class="cls-5" points="299.67 204.96 289.67 204.96 289.67 198.96 303.67 198.96 299.67 204.96"/><polygon class="cls-5" points="307.67 204.96 317.67 204.96 317.67 198.96 303.67 198.96 307.67 204.96"/><rect class="cls-3" x="471.74" y="302.3" width="16.92" height="186.12"/><rect class="cls-3" x="504.6" y="302.3" width="16.92" height="186.12"/><rect class="cls-1" x="486.52" y="194.15" width="20.3" height="10.15"/><rect class="cls-1" x="446.82" y="322.25" width="13.54" height="22.45" rx="4"/><rect class="cls-1" x="533.16" y="322.25" width="13.54" height="22.45" rx="4"/><path class="cls-3" d="M546.53,300v-86.1a5.65,5.65,0,0,0-5.68-5.57h-2.24a5.65,5.65,0,0,0-5.68,5.57V319.41a5.42,5.42,0,0,0,.4,2V325h13.6V300Z"/><path class="cls-3" d="M460.19,300v-86.1a5.65,5.65,0,0,0-5.68-5.57h-2.24a5.64,5.64,0,0,0-5.68,5.57V319.41a5.42,5.42,0,0,0,.4,2V325h13.6V300Z"/><polygon class="cls-3" points="492.77 306.36 510.32 332.01 527.87 332.01 527.87 266.4 527.87 200.79 510.32 200.79 510.32 200.79 492.77 266.4 492.77 306.36"/><polygon class="cls-3" points="500.87 306.36 483.32 332.01 465.77 332.01 465.77 266.4 465.77 200.79 483.32 200.79 483.32 200.79 500.87 266.4 500.87 306.36"/><rect class="cls-3" x="494.17" y="199.46" width="5" height="52.5"/><polygon class="cls-5" points="492.67 204.96 482.67 204.96 482.67 198.96 496.67 198.96 492.67 204.96"/><polygon class="cls-5" points="500.67 204.96 510.67 204.96 510.67 198.96 496.67 198.96 500.67 204.96"/><rect class="cls-3" x="666.74" y="302.3" width="16.92" height="186.12"/><rect class="cls-3" x="699.6" y="302.3" width="16.92" height="186.12"/><rect class="cls-1" x="681.52" y="194.15" width="20.3" height="10.15"/><rect class="cls-1" x="641.82" y="322.25" width="13.54" height="22.45" rx="4"/><rect class="cls-1" x="728.16" y="322.25" width="13.54" height="22.45" rx="4"/><path class="cls-3" d="M741.53,300v-86.1a5.65,5.65,0,0,0-5.68-5.57h-2.24a5.65,5.65,0,0,0-5.68,5.57V319.41a5.42,5.42,0,0,0,.4,2V325h13.6V300Z"/><path class="cls-3" d="M655.19,300v-86.1a5.65,5.65,0,0,0-5.68-5.57h-2.24a5.64,5.64,0,0,0-5.68,5.57V319.41a5.42,5.42,0,0,0,.4,2V325h13.6V300Z"/><polygon class="cls-3" points="687.77 306.36 705.32 332.01 722.87 332.01 722.87 266.4 722.87 200.79 705.32 200.79 705.32 200.79 687.77 266.4 687.77 306.36"/><polygon class="cls-3" points="695.87 306.36 678.32 332.01 660.77 332.01 660.77 266.4 660.77 200.79 678.32 200.79 678.32 200.79 695.87 266.4 695.87 306.36"/><rect class="cls-3" x="689.17" y="199.46" width="5" height="52.5"/><polygon class="cls-5" points="687.67 204.96 677.67 204.96 677.67 198.96 691.67 198.96 687.67 204.96"/><polygon class="cls-5" points="695.67 204.96 705.67 204.96 705.67 198.96 691.67 198.96 695.67 204.96"/><line class="cls-6" x1="488" y1="182.5" x2="504" y2="182.5"/><path class="cls-6" d="M699,181.93c0,1.64-3.36,3-7.5,3s-7.5-1.33-7.5-3"/><path class="cls-1" d="M82.71,141.93c0-14.77,11.23-26.75,25.09-26.75s25.08,12,25.08,26.75l-.07-1.31c.82,8.42,0,17.53.07,25.51a61.6,61.6,0,0,1-.2,7.06,20.62,20.62,0,0,1-1.71,6.69,19.74,19.74,0,0,1-2.87,4.33c-1.12,1.32-2.35,2.55-3.58,3.75a48.42,48.42,0,0,1-7,6,14.72,14.72,0,0,1-8.16,2.8h-3.15a14.72,14.72,0,0,1-8.16-2.8,49,49,0,0,1-7-6c-1.22-1.2-2.46-2.43-3.58-3.75a19.74,19.74,0,0,1-2.87-4.33,20.62,20.62,0,0,1-1.71-6.69,64,64,0,0,1-.2-7.06c.08-8-.75-17.09.08-25.51"/><path class="cls-1" d="M82.9,162.57a5.08,5.08,0,0,1,0-10.15"/><path class="cls-1" d="M133,152.42a5.08,5.08,0,1,1,0,10.15"/><path class="cls-3" d="M81,154.46c-1.28-9.77-2.31-20.7,2.94-28.63,5.75-8.66,16.59-10.21,26.2-11,4-.34,8.16-.67,12,.77,5.88,2.22,10,8.38,11.93,15s1.94,13.66,1.93,20.6c0,1.3-.24,3-1.38,3.28-.94.26-1.78-.64-2.45-1.42a32.69,32.69,0,0,0-14.51-9.93c2-1.86-31.41-1.51-33.36,5.09-.41,1.38-.33,2.89-.77,4.25s-1.8,2.58-3,2"/><circle class="cls-2" cx="98.83" cy="157.33" r="2.33"/><circle class="cls-2" cx="117.02" cy="157.33" r="2.33"/><path class="cls-6" d="M115,179.93c0,1.64-3.36,3-7.5,3s-7.5-1.33-7.5-3"/><rect class="cls-3" x="82.86" y="302.3" width="16.92" height="186.12"/><rect class="cls-3" x="115.73" y="302.3" width="16.92" height="186.12"/><rect class="cls-1" x="97.64" y="194.15" width="20.3" height="10.15"/><polygon class="cls-3" points="103.9 306.36 121.45 332.01 139 332.01 139 266.4 139 200.79 121.45 200.79 121.45 200.79 103.9 266.4 103.9 306.36"/><polygon class="cls-3" points="112 306.36 94.45 332.01 76.9 332.01 76.9 266.4 76.9 200.79 94.45 200.79 94.45 200.79 112 266.4 112 306.36"/><rect class="cls-3" x="105.3" y="199.46" width="5" height="52.5"/><polygon class="cls-5" points="103.8 204.96 93.8 204.96 93.8 198.96 107.8 198.96 103.8 204.96"/><polygon class="cls-5" points="111.8 204.96 121.8 204.96 121.8 198.96 107.8 198.96 111.8 204.96"/><rect class="cls-1" x="142.29" y="321.25" width="13.54" height="22.45" rx="4"/><path class="cls-3" d="M152,208h-6a4,4,0,0,0-4,4V324h14V212A4,4,0,0,0,152,208Z"/><rect class="cls-1" x="60.29" y="321.25" width="13.54" height="22.45" rx="4"/><path class="cls-3" d="M70,208H64a4,4,0,0,0-4,4V324H74V212A4,4,0,0,0,70,208Z"/><path class="cls-7" d="M108.58,494.65a17.06,17.06,0,1,1,34.12,0"/><path class="cls-7" d="M107.62,494.65a17.06,17.06,0,1,0-34.12,0"/><path class="cls-3" d="M74.29,491.6a17.2,17.2,0,0,0-.74,5.26l34.12-.62a17.09,17.09,0,0,0-.92-5.23Z"/><path class="cls-3" d="M109.36,491a17.2,17.2,0,0,0-.73,5.26l34.11-.62a17.09,17.09,0,0,0-.92-5.23Z"/><path class="cls-7" d="M304.58,495.27a17.06,17.06,0,0,1,34.12,0"/><path class="cls-7" d="M303.62,495.27a17.06,17.06,0,0,0-34.12,0"/><path class="cls-3" d="M270.33,491.61a17.12,17.12,0,0,0-.83,5.25h34.12a16.83,16.83,0,0,0-.83-5.25Z"/><path class="cls-3" d="M305.41,491.61a17.12,17.12,0,0,0-.83,5.25H338.7a16.83,16.83,0,0,0-.83-5.25Z"/><path class="cls-7" d="M497.58,495.27a17.06,17.06,0,0,1,34.12,0"/><path class="cls-7" d="M496.62,495.27a17.06,17.06,0,0,0-34.12,0"/><path class="cls-3" d="M463.33,491.61a17.12,17.12,0,0,0-.83,5.25h34.12a16.83,16.83,0,0,0-.83-5.25Z"/><path class="cls-3" d="M498.41,491.61a17.12,17.12,0,0,0-.83,5.25H531.7a16.83,16.83,0,0,0-.83-5.25Z"/><path class="cls-7" d="M692.58,495.27a17.06,17.06,0,0,1,34.12,0"/><path class="cls-7" d="M691.62,495.27a17.06,17.06,0,0,0-34.12,0"/><path class="cls-3" d="M658.33,491.61a17.12,17.12,0,0,0-.83,5.25h34.12a16.83,16.83,0,0,0-.83-5.25Z"/><path class="cls-3" d="M693.41,491.61a17.12,17.12,0,0,0-.83,5.25H726.7a16.83,16.83,0,0,0-.83-5.25Z"/></svg>