<svg id="Layer_1" data-name="Layer 1" xmlns="http://www.w3.org/2000/svg" viewBox="0 0 800 600"><defs><style>.cls-1,.cls-2{fill:#55c6a9;}.cls-1,.cls-10,.cls-11,.cls-9{stroke:#edd59e;stroke-width:0.25px;}.cls-1,.cls-10,.cls-11,.cls-13,.cls-5,.cls-6,.cls-9{stroke-miterlimit:10;}.cls-13,.cls-3{fill:#282d3c;}.cls-4{fill:#f9e8d4;}.cls-5{fill:#fff;stroke:#282d3c;}.cls-5,.cls-6{stroke-width:0.5px;}.cls-6{fill:none;stroke:#000;}.cls-7{fill:#edd59e;}.cls-8{fill:#b89b72;}.cls-9{fill:#00758f;}.cls-10{fill:#fa7a35;}.cls-11{fill:#cd212a;}.cls-12{fill:#4e4a65;}.cls-13{stroke:#fff;}</style></defs><title>psychedelia main</title><rect class="cls-1" x="83.86" y="293.81" width="16.92" height="186.12"/><rect class="cls-1" x="116.73" y="293.81" width="16.92" height="186.12"/><polygon class="cls-1" points="148 384 126 384 109 384 92 384 70 384 75 337 75 290 75 243 75 201 92 196 109 196 126 196 143 201 143 243 143 290 143 337 148 384"/><rect class="cls-2" x="98.6" y="185.67" width="20.3" height="10.15"/><path class="cls-3" d="M80,145.23c-2.34,3.68-.18,8.6,1.77,12.51s3.45,7,6.59,10c1.25,1.2,3.07,2.48,4.54,1.57,1.14-.71,1.25-2.29,1.24-3.63l-.18-24c0-1.4-.11-3-1.21-3.85a4.21,4.21,0,0,0-2.8-.62"/><path class="cls-3" d="M137.54,145.23c2.34,3.68.18,8.6-1.76,12.51s-3.45,7-6.59,10c-1.25,1.2-3.08,2.48-4.55,1.57-1.14-.71-1.25-2.29-1.24-3.63l.18-24c0-1.4.11-3,1.21-3.85a4.21,4.21,0,0,1,2.8-.62"/><path class="cls-4" d="M84.31,133.91c0-14.78,11.23-26.76,25.08-26.76s25.08,12,25.08,26.76l-.07-1.32c.83,8.42,0,17.53.08,25.51a64,64,0,0,1-.21,7.06,20.24,20.24,0,0,1-1.71,6.7,19.29,19.29,0,0,1-2.86,4.32c-1.12,1.32-2.36,2.55-3.59,3.75a49,49,0,0,1-7,6,14.91,14.91,0,0,1-8.17,2.8h-3.15a14.91,14.91,0,0,1-8.16-2.8,49,49,0,0,1-7-6c-1.22-1.2-2.46-2.43-3.58-3.75a19.29,19.29,0,0,1-2.86-4.32,20.5,20.5,0,0,1-1.72-6.7,66.51,66.51,0,0,1-.2-7.06c.08-8-.75-17.09.08-25.51"/><path class="cls-3" d="M79.64,150.63c-.72-12.69-1.2-26.81,4.67-37.91a17.6,17.6,0,0,1,3-4.39,16.11,16.11,0,0,1,5.43-3.3,49.54,49.54,0,0,1,17.56-3.76,16.62,16.62,0,0,1,8,1.34c2.46,1.23,3.69,7.11,3.79,10,.26-2.38,3.93-7,6.1-6.3s9.24,7.09,10,9.35c2.28,7,.52,34.11-1.58,34-3.93-.26-5.15-5.56-7.13-9.15-3.3-6-10.85-8.8-13-15.35-.76,2.78-3.35,4.58-6,5.4s-5.41.9-8.07,1.57"/><path class="cls-4" d="M81.23,154.55a5.08,5.08,0,0,1,0-10.16"/><path class="cls-4" d="M136.28,144.39a5.08,5.08,0,0,1,0,10.16"/><path class="cls-3" d="M84,142.79a155.5,155.5,0,0,0-.37,16.86c.28,5.6,1.25,11.22,3,14.44.42-12.82.43-25.73,0-38.55-1.12.08-2.22,1.33-3,3.41"/><path class="cls-3" d="M135.08,142.79a155.51,155.51,0,0,1,.38,16.86c-.28,5.6-1.25,11.22-3,14.44-.42-12.82-.43-25.73,0-38.55,1.12.08,2.23,1.33,3,3.41"/><circle class="cls-5" cx="99.88" cy="149.88" r="5.83"/><circle class="cls-5" cx="117.45" cy="149.88" r="5.83"/><path class="cls-3" d="M101.05,172.67a4.1,4.1,0,0,1,5.4-5.22.77.77,0,0,0,1-.27.74.74,0,0,0-.27-1,5.58,5.58,0,0,0-7.6,6.9.77.77,0,0,0,.92.53.76.76,0,0,0,.53-.92Z"/><path class="cls-3" d="M118.45,173.06a5.58,5.58,0,0,0-7.6-6.9.75.75,0,0,0-.27,1,.77.77,0,0,0,1,.27,4.09,4.09,0,0,1,5.39,5.22.76.76,0,0,0,.53.92.76.76,0,0,0,.92-.53Z"/><line class="cls-6" x1="106.65" y1="149.88" x2="110.68" y2="149.88"/><rect class="cls-7" x="106.4" y="191" width="4" height="140"/><rect class="cls-4" x="59.29" y="309.76" width="13.54" height="22.45" rx="4"/><polygon class="cls-1" points="75 317 72.13 317 71.25 317 70.38 317 69.5 317 68.63 317 67.75 317 66.88 317 66 317 65.13 317 64.25 317 63.38 317 62.5 317 61.63 317 60.75 317 59.88 317 57 317 59 309.75 59 302.5 59 295.25 59 288 59 280.75 59 273.5 59 266.25 59 259 59 251.75 59 244.5 59 237.25 59 230 59 222.75 59 215.5 59 208.25 59 201 59.88 201 60.75 201 61.63 201 62.5 201 63.38 201 64.25 201 65.13 201 66 201 66.88 201 67.75 201 68.63 201 69.5 201 70.38 201 71.25 201 72.13 201 73 201 73 208.25 73 215.5 73 222.75 73 230 73 237.25 73 244.5 73 251.75 73 259 73 266.25 73 273.5 73 280.75 73 288 73 295.25 73 302.5 73 309.75 75 317"/><rect class="cls-1" x="55.9" y="197.07" width="20.3" height="8.46" rx="2"/><rect class="cls-7" x="59.29" y="297.59" width="13.54" height="10.15"/><rect class="cls-7" x="85.32" y="210" width="46" height="4"/><circle class="cls-8" cx="129.9" cy="212" r="3"/><circle class="cls-8" cx="86.9" cy="212" r="3"/><rect class="cls-7" x="89.32" y="243" width="38" height="4"/><circle class="cls-8" cx="126.9" cy="245" r="3"/><circle class="cls-8" cx="89.9" cy="245" r="3"/><rect class="cls-7" x="91.32" y="259.5" width="34" height="4"/><circle class="cls-8" cx="124.9" cy="261.5" r="3"/><circle class="cls-8" cx="91.9" cy="261.5" r="3"/><rect class="cls-7" x="93.32" y="276" width="30" height="4"/><circle class="cls-8" cx="122.9" cy="278" r="3"/><circle class="cls-8" cx="93.9" cy="278" r="3"/><rect class="cls-7" x="87.82" y="226.5" width="42" height="4"/><circle class="cls-8" cx="87.4" cy="228.5" r="3"/><circle class="cls-8" cx="129.4" cy="228.5" r="3"/><rect class="cls-4" x="145.29" y="309.76" width="13.54" height="22.45" rx="4"/><polygon class="cls-1" points="161 317 158.13 317 157.25 317 156.38 317 155.5 317 154.63 317 153.75 317 152.88 317 152 317 151.13 317 150.25 317 149.38 317 148.5 317 147.63 317 146.75 317 145.88 317 143 317 145 309.75 145 302.5 145 295.25 145 288 145 280.75 145 273.5 145 266.25 145 259 145 251.75 145 244.5 145 237.25 145 230 145 222.75 145 215.5 145 208.25 145 201 145.88 201 146.75 201 147.63 201 148.5 201 149.38 201 150.25 201 151.13 201 152 201 152.88 201 153.75 201 154.63 201 155.5 201 156.38 201 157.25 201 158.13 201 159 201 159 208.25 159 215.5 159 222.75 159 230 159 237.25 159 244.5 159 251.75 159 259 159 266.25 159 273.5 159 280.75 159 288 159 295.25 159 302.5 159 309.75 161 317"/><rect class="cls-1" x="141.9" y="197.07" width="20.3" height="8.46" rx="2"/><rect class="cls-7" x="145.29" y="297.59" width="13.54" height="10.15"/><rect class="cls-9" x="278.86" y="293.81" width="16.92" height="186.12"/><rect class="cls-9" x="311.73" y="293.81" width="16.92" height="186.12"/><polygon class="cls-9" points="343 384 321 384 304 384 287 384 265 384 270 337 270 290 270 243 270 201 287 196 304 196 321 196 338 201 338 243 338 290 338 337 343 384"/><rect class="cls-9" x="293.6" y="185.67" width="20.3" height="10.15"/><rect class="cls-7" x="301.4" y="191" width="4" height="140"/><rect class="cls-4" x="254.29" y="309.76" width="13.54" height="22.45" rx="4"/><polygon class="cls-9" points="270 317 267.13 317 266.25 317 265.38 317 264.5 317 263.63 317 262.75 317 261.88 317 261 317 260.13 317 259.25 317 258.38 317 257.5 317 256.63 317 255.75 317 254.88 317 252 317 254 309.75 254 302.5 254 295.25 254 288 254 280.75 254 273.5 254 266.25 254 259 254 251.75 254 244.5 254 237.25 254 230 254 222.75 254 215.5 254 208.25 254 201 254.88 201 255.75 201 256.63 201 257.5 201 258.38 201 259.25 201 260.13 201 261 201 261.88 201 262.75 201 263.63 201 264.5 201 265.38 201 266.25 201 267.13 201 268 201 268 208.25 268 215.5 268 222.75 268 230 268 237.25 268 244.5 268 251.75 268 259 268 266.25 268 273.5 268 280.75 268 288 268 295.25 268 302.5 268 309.75 270 317"/><rect class="cls-9" x="250.9" y="197.07" width="20.3" height="8.46" rx="2"/><rect class="cls-7" x="254.29" y="297.59" width="13.54" height="10.15"/><rect class="cls-7" x="280.32" y="210" width="46" height="4"/><circle class="cls-8" cx="324.9" cy="212" r="3"/><circle class="cls-8" cx="281.9" cy="212" r="3"/><rect class="cls-7" x="284.32" y="243" width="38" height="4"/><circle class="cls-8" cx="321.9" cy="245" r="3"/><circle class="cls-8" cx="284.9" cy="245" r="3"/><rect class="cls-7" x="286.32" y="259.5" width="34" height="4"/><circle class="cls-8" cx="319.9" cy="261.5" r="3"/><circle class="cls-8" cx="286.9" cy="261.5" r="3"/><rect class="cls-7" x="288.32" y="276" width="30" height="4"/><circle class="cls-8" cx="317.9" cy="278" r="3"/><circle class="cls-8" cx="288.9" cy="278" r="3"/><rect class="cls-7" x="282.82" y="226.5" width="42" height="4"/><circle class="cls-8" cx="282.4" cy="228.5" r="3"/><circle class="cls-8" cx="324.4" cy="228.5" r="3"/><rect class="cls-4" x="340.29" y="309.76" width="13.54" height="22.45" rx="4"/><polygon class="cls-9" points="356 317 353.13 317 352.25 317 351.38 317 350.5 317 349.63 317 348.75 317 347.88 317 347 317 346.13 317 345.25 317 344.38 317 343.5 317 342.63 317 341.75 317 340.88 317 338 317 340 309.75 340 302.5 340 295.25 340 288 340 280.75 340 273.5 340 266.25 340 259 340 251.75 340 244.5 340 237.25 340 230 340 222.75 340 215.5 340 208.25 340 201 340.88 201 341.75 201 342.63 201 343.5 201 344.38 201 345.25 201 346.13 201 347 201 347.88 201 348.75 201 349.63 201 350.5 201 351.38 201 352.25 201 353.13 201 354 201 354 208.25 354 215.5 354 222.75 354 230 354 237.25 354 244.5 354 251.75 354 259 354 266.25 354 273.5 354 280.75 354 288 354 295.25 354 302.5 354 309.75 356 317"/><rect class="cls-9" x="336.9" y="197.07" width="20.3" height="8.46" rx="2"/><rect class="cls-7" x="340.29" y="297.59" width="13.54" height="10.15"/><path class="cls-4" d="M277,134.31a26.21,26.21,0,1,1,52.41,0l-.8-5A91.57,91.57,0,0,1,330,152a41.41,41.41,0,0,1-9.17,24.66c-.93,1.16-1.92,2.29-2.92,3.4a42.9,42.9,0,0,1-5.74,5.37,19.58,19.58,0,0,1-6.88,3.46l-4.32-.21a19.75,19.75,0,0,1-6.88-3.46,42.34,42.34,0,0,1-5.74-5.38c-1-1.1-2-2.23-2.92-3.39s-1.81-2.38-2.62-3.63a44.86,44.86,0,0,1-6.55-21,92,92,0,0,1,1.46-22.65"/><path class="cls-4" d="M276.81,155.46a5.08,5.08,0,0,1,0-10.15"/><path class="cls-4" d="M329.53,145.31a5.08,5.08,0,0,1,0,10.15"/><path class="cls-3" d="M297.29,168.19c-.78-1.25.63-2.3,1.69-2.66a7,7,0,0,1,4.37,0c.46.15.66-.57.2-.73a7.62,7.62,0,0,0-5.2.18c-1.39.59-2.66,2.09-1.71,3.6.26.41.91,0,.65-.38Z"/><path class="cls-3" d="M309.66,168.57c.95-1.51-.32-3-1.71-3.6a7.62,7.62,0,0,0-5.2-.18c-.45.15-.26.88.2.73a7,7,0,0,1,4.37,0c1.07.36,2.48,1.41,1.69,2.66-.26.41.39.79.65.38Z"/><path class="cls-3" d="M272.33,148.72c-1.46-10-2.64-21.14,3.37-29.24,6.56-8.85,18.95-10.43,29.93-11.27,4.59-.35,9.33-.69,13.68.78,6.72,2.27,11.44,8.56,13.63,15.3s2.23,14,2.21,21c0,1.34-.28,3-1.57,3.36-1.07.26-2-.65-2.81-1.45a37.77,37.77,0,0,0-16.57-10.15,14.94,14.94,0,0,0,4.91-7.43,18.87,18.87,0,0,0-18.72,5.83c.59-2.41.42-6-2.05-6.15-1.85-.13-2.94,1.94-4.16,3.33-4.7,5.32-15.88,2.88-18.11,9.62-.47,1.41-.38,3-.89,4.35s-2.06,2.63-3.4,2"/><path class="cls-3" d="M275.4,138.17c-.15,2.36-.15-.55,0,1.81s.46,10,.91,12.28a54.9,54.9,0,0,0,1.76,6.7c.73,2.16-.26.19.73,2.16"/><path class="cls-3" d="M331.18,138.17c.15,2.36.14-.55,0,1.81s-.46,10-.91,12.28a53.17,53.17,0,0,1-1.77,6.7c-.73,2.16.27.19-.73,2.16"/><circle class="cls-3" cx="313.56" cy="152.28" r="3.13"/><circle class="cls-3" cx="292.73" cy="152.28" r="3.13"/><rect class="cls-10" x="472.86" y="292.81" width="16.92" height="186.12"/><rect class="cls-10" x="505.73" y="292.81" width="16.92" height="186.12"/><polygon class="cls-10" points="537 383 515 383 498 383 481 383 459 383 464 336 464 289 464 242 464 200 481 195 498 195 515 195 532 200 532 242 532 289 532 336 537 383"/><rect class="cls-10" x="487.6" y="184.67" width="20.3" height="10.15"/><rect class="cls-7" x="495.4" y="190" width="4" height="140"/><rect class="cls-4" x="448.29" y="308.76" width="13.54" height="22.45" rx="4"/><polygon class="cls-10" points="464 316 461.13 316 460.25 316 459.38 316 458.5 316 457.63 316 456.75 316 455.88 316 455 316 454.13 316 453.25 316 452.38 316 451.5 316 450.63 316 449.75 316 448.88 316 446 316 448 308.75 448 301.5 448 294.25 448 287 448 279.75 448 272.5 448 265.25 448 258 448 250.75 448 243.5 448 236.25 448 229 448 221.75 448 214.5 448 207.25 448 200 448.88 200 449.75 200 450.63 200 451.5 200 452.38 200 453.25 200 454.13 200 455 200 455.88 200 456.75 200 457.63 200 458.5 200 459.38 200 460.25 200 461.13 200 462 200 462 207.25 462 214.5 462 221.75 462 229 462 236.25 462 243.5 462 250.75 462 258 462 265.25 462 272.5 462 279.75 462 287 462 294.25 462 301.5 462 308.75 464 316"/><rect class="cls-10" x="444.9" y="196.07" width="20.3" height="8.46" rx="2"/><rect class="cls-7" x="448.29" y="296.59" width="13.54" height="10.15"/><rect class="cls-7" x="474.32" y="209" width="46" height="4"/><circle class="cls-8" cx="518.9" cy="211" r="3"/><circle class="cls-8" cx="475.9" cy="211" r="3"/><rect class="cls-7" x="478.32" y="242" width="38" height="4"/><circle class="cls-8" cx="515.9" cy="244" r="3"/><circle class="cls-8" cx="478.9" cy="244" r="3"/><rect class="cls-7" x="480.32" y="258.5" width="34" height="4"/><circle class="cls-8" cx="513.9" cy="260.5" r="3"/><circle class="cls-8" cx="480.9" cy="260.5" r="3"/><rect class="cls-7" x="482.32" y="275" width="30" height="4"/><circle class="cls-8" cx="511.9" cy="277" r="3"/><circle class="cls-8" cx="482.9" cy="277" r="3"/><rect class="cls-7" x="476.82" y="225.5" width="42" height="4"/><circle class="cls-8" cx="476.4" cy="227.5" r="3"/><circle class="cls-8" cx="518.4" cy="227.5" r="3"/><rect class="cls-4" x="534.29" y="308.76" width="13.54" height="22.45" rx="4"/><polygon class="cls-10" points="550 316 547.13 316 546.25 316 545.38 316 544.5 316 543.63 316 542.75 316 541.88 316 541 316 540.13 316 539.25 316 538.38 316 537.5 316 536.63 316 535.75 316 534.88 316 532 316 534 308.75 534 301.5 534 294.25 534 287 534 279.75 534 272.5 534 265.25 534 258 534 250.75 534 243.5 534 236.25 534 229 534 221.75 534 214.5 534 207.25 534 200 534.88 200 535.75 200 536.63 200 537.5 200 538.38 200 539.25 200 540.13 200 541 200 541.88 200 542.75 200 543.63 200 544.5 200 545.38 200 546.25 200 547.13 200 548 200 548 207.25 548 214.5 548 221.75 548 229 548 236.25 548 243.5 548 250.75 548 258 548 265.25 548 272.5 548 279.75 548 287 548 294.25 548 301.5 548 308.75 550 316"/><rect class="cls-10" x="530.9" y="196.07" width="20.3" height="8.46" rx="2"/><rect class="cls-7" x="534.29" y="296.59" width="13.54" height="10.15"/><path class="cls-4" d="M471.9,136.3a25.07,25.07,0,0,1,50.14,0h-.26q.39,4.83.66,9.69c.19,3.23.34,6.47.46,9.7a56.42,56.42,0,0,1,0,6,18.44,18.44,0,0,1-3.57,10.22,47.38,47.38,0,0,1-3.19,4,69.86,69.86,0,0,1-5.15,5.46,31.61,31.61,0,0,1-6,4.47,20.74,20.74,0,0,1-7.06,2.52h-1.32a20.74,20.74,0,0,1-7.06-2.52,32,32,0,0,1-6-4.47,71.67,71.67,0,0,1-5.14-5.46,47.38,47.38,0,0,1-3.19-4,20,20,0,0,1-2.42-4.45,20.62,20.62,0,0,1-1.16-5.77,56.42,56.42,0,0,1,0-6c.11-3.23.27-6.47.45-9.7Z"/><path class="cls-3" d="M476.19,163.88c.76-1.09-.07-2.68-1.25-3.27a10.64,10.64,0,0,0-3.87-.6,12.91,12.91,0,0,1-4.85-1.37,5,5,0,0,1-2.57-2.5,2.3,2.3,0,0,1,1.26-3c-3-1.37-6.57-3.69-6.05-7,.23-1.46,1.24-2.65,2-3.91,2.59-4.38,2-9.86,2.68-14.92a30.7,30.7,0,0,1,12.14-20.72,30,30,0,0,1,23.24-5.16,64.43,64.43,0,0,1-2.83,28.25,8.2,8.2,0,0,1-2.15,3.81c-1.44,1.22-3.45,1.35-5.3,1.64a24.49,24.49,0,0,0-16.94,11.52,3.85,3.85,0,0,0-.67,1.86c0,1.47,1.45,2.43,2.57,3.38a10.29,10.29,0,0,1,3.34,9.54"/><path class="cls-3" d="M518.42,163.88c-.75-1.09.08-2.68,1.26-3.27a10.59,10.59,0,0,1,3.86-.6,12.86,12.86,0,0,0,4.85-1.37,5,5,0,0,0,2.58-2.5,2.31,2.31,0,0,0-1.27-3c3-1.37,6.57-3.69,6.06-7-.23-1.46-1.25-2.65-2-3.91-2.59-4.38-2-9.86-2.67-14.92a30.75,30.75,0,0,0-12.15-20.72,30,30,0,0,0-23.23-5.16,64.43,64.43,0,0,0,2.82,28.25,8.22,8.22,0,0,0,2.16,3.81c1.44,1.22,3.45,1.35,5.3,1.64a24.49,24.49,0,0,1,16.93,11.52,3.75,3.75,0,0,1,.67,1.86c0,1.47-1.45,2.43-2.56,3.38a10.32,10.32,0,0,0-3.35,9.54"/><path class="cls-3" d="M491,172.34a9.25,9.25,0,0,1,.1-2.23,4.77,4.77,0,0,1,.61-1.84,1.16,1.16,0,0,1,.47-.46,2.11,2.11,0,0,1,.87-.17l2.37-.2a.77.77,0,0,0,.75-.75.75.75,0,0,0-.75-.75c-.89.07-1.78.14-2.67.23a3.28,3.28,0,0,0-1.37.36,3.06,3.06,0,0,0-.88.84,5.74,5.74,0,0,0-.83,2.23,11,11,0,0,0-.17,2.74.75.75,0,1,0,1.5,0Z"/><path class="cls-3" d="M507.26,172.16a10.93,10.93,0,0,0-.17-2.74,5.76,5.76,0,0,0-.84-2.23,2.89,2.89,0,0,0-.85-.82A3.18,3.18,0,0,0,504,166c-.89-.09-1.78-.15-2.68-.22a.75.75,0,0,0-.75.75.78.78,0,0,0,.75.75l2.38.2a2.35,2.35,0,0,1,.87.16,1.32,1.32,0,0,1,.47.47,5.14,5.14,0,0,1,.61,1.83,9.33,9.33,0,0,1,.1,2.24.76.76,0,0,0,.75.75.77.77,0,0,0,.75-.75Z"/><circle class="cls-3" cx="487.9" cy="149.31" r="2.33"/><circle class="cls-3" cx="506.09" cy="149.31" r="2.33"/><path class="cls-4" d="M469.58,154a4.67,4.67,0,0,1,0-9.33"/><path class="cls-4" d="M525,144.64a4.66,4.66,0,0,1,4.66,4.67A4.64,4.64,0,0,1,525,154"/><rect class="cls-11" x="666.86" y="294.81" width="16.92" height="186.12"/><rect class="cls-11" x="699.73" y="294.81" width="16.92" height="186.12"/><polygon class="cls-11" points="731 385 709 385 692 385 675 385 653 385 658 338 658 291 658 244 658 202 675 197 692 197 709 197 726 202 726 244 726 291 726 338 731 385"/><rect class="cls-11" x="681.6" y="186.67" width="20.3" height="10.15"/><rect class="cls-7" x="689.4" y="192" width="4" height="140"/><rect class="cls-4" x="642.29" y="310.76" width="13.54" height="22.45" rx="4"/><polygon class="cls-11" points="658 318 655.13 318 654.25 318 653.38 318 652.5 318 651.63 318 650.75 318 649.88 318 649 318 648.13 318 647.25 318 646.38 318 645.5 318 644.63 318 643.75 318 642.88 318 640 318 642 310.75 642 303.5 642 296.25 642 289 642 281.75 642 274.5 642 267.25 642 260 642 252.75 642 245.5 642 238.25 642 231 642 223.75 642 216.5 642 209.25 642 202 642.88 202 643.75 202 644.63 202 645.5 202 646.38 202 647.25 202 648.13 202 649 202 649.88 202 650.75 202 651.63 202 652.5 202 653.38 202 654.25 202 655.13 202 656 202 656 209.25 656 216.5 656 223.75 656 231 656 238.25 656 245.5 656 252.75 656 260 656 267.25 656 274.5 656 281.75 656 289 656 296.25 656 303.5 656 310.75 658 318"/><rect class="cls-11" x="638.9" y="198.07" width="20.3" height="8.46" rx="2"/><rect class="cls-7" x="642.29" y="298.59" width="13.54" height="10.15"/><rect class="cls-7" x="668.32" y="211" width="46" height="4"/><circle class="cls-8" cx="712.9" cy="213" r="3"/><circle class="cls-8" cx="669.9" cy="213" r="3"/><rect class="cls-7" x="672.32" y="244" width="38" height="4"/><circle class="cls-8" cx="709.9" cy="246" r="3"/><circle class="cls-8" cx="672.9" cy="246" r="3"/><rect class="cls-7" x="674.32" y="260.5" width="34" height="4"/><circle class="cls-8" cx="707.9" cy="262.5" r="3"/><circle class="cls-8" cx="674.9" cy="262.5" r="3"/><rect class="cls-7" x="676.32" y="277" width="30" height="4"/><circle class="cls-8" cx="705.9" cy="279" r="3"/><circle class="cls-8" cx="676.9" cy="279" r="3"/><rect class="cls-7" x="670.82" y="227.5" width="42" height="4"/><circle class="cls-8" cx="670.4" cy="229.5" r="3"/><circle class="cls-8" cx="712.4" cy="229.5" r="3"/><rect class="cls-4" x="728.29" y="310.76" width="13.54" height="22.45" rx="4"/><polygon class="cls-11" points="744 318 741.13 318 740.25 318 739.38 318 738.5 318 737.63 318 736.75 318 735.88 318 735 318 734.13 318 733.25 318 732.38 318 731.5 318 730.63 318 729.75 318 728.88 318 726 318 728 310.75 728 303.5 728 296.25 728 289 728 281.75 728 274.5 728 267.25 728 260 728 252.75 728 245.5 728 238.25 728 231 728 223.75 728 216.5 728 209.25 728 202 728.88 202 729.75 202 730.63 202 731.5 202 732.38 202 733.25 202 734.13 202 735 202 735.88 202 736.75 202 737.63 202 738.5 202 739.38 202 740.25 202 741.13 202 742 202 742 209.25 742 216.5 742 223.75 742 231 742 238.25 742 245.5 742 252.75 742 260 742 267.25 742 274.5 742 281.75 742 289 742 296.25 742 303.5 742 310.75 744 318"/><rect class="cls-11" x="724.9" y="198.07" width="20.3" height="8.46" rx="2"/><rect class="cls-7" x="728.29" y="298.59" width="13.54" height="10.15"/><path class="cls-4" d="M669.74,137.42c0-12.89,9.92-23.35,22.17-23.35s22.16,10.46,22.16,23.35v0L713.88,150l-.2,12.63c0,1.14,0,2.3-.12,3.44a19.09,19.09,0,0,1-.54,3.37,18.36,18.36,0,0,1-1.73,4.11c-.73,1.3-1.56,2.55-2.4,3.78a55.4,55.4,0,0,1-5,6.64,18.56,18.56,0,0,1-6.43,4.77h-11A18.56,18.56,0,0,1,680,184a55.4,55.4,0,0,1-5-6.64c-.84-1.23-1.67-2.48-2.4-3.78a16.28,16.28,0,0,1-2.26-7.48c-.09-1.14-.11-2.3-.13-3.44l-.2-12.63-.19-12.63"/><path d="M716.91,146.39c.76-5,1.53-10.15.75-15.17s-10.39-17.76-17.8-17.85c-2,0-20.9,0-22.73.78a13.13,13.13,0,0,0-3.5,2.24A32.51,32.51,0,0,0,662,142.64c.09,1.69,5.36,9.39,6.84,10.3s-1.18-5.47.29-6.59-1.5,1.07,0,0c3.4-2.45,12.25-5.83,16.26-4.5s7.7,3.53,11.81,4.55c6.28,1.55,10.13,2.75,16.56,3.5"/><path class="cls-4" d="M670.54,158.55a4.67,4.67,0,1,1,0-9.33"/><path class="cls-4" d="M712.56,149.22a4.67,4.67,0,0,1,0,9.33"/><path d="M710.31,146.3a21.9,21.9,0,0,1-.23,9.76,59,59,0,0,1-3.1,9,19.58,19.58,0,0,0,6.58-1.09,6.17,6.17,0,0,0-1.51-2A8.82,8.82,0,0,0,714,160.4c-.25-.36-.66-.46-.92-.81a2.93,2.93,0,0,1-.14-2.12,36.48,36.48,0,0,0-.14-13.38"/><path d="M709.59,146.5c1.4,6.35-1,12.59-3.34,18.39a.76.76,0,0,0,.73,1,21.18,21.18,0,0,0,6.78-1.12.76.76,0,0,0,.45-1.1,7.29,7.29,0,0,0-1.63-2.19l-.15,1.18a10.86,10.86,0,0,0,2.08-1.68.77.77,0,0,0,0-1.06c-.48-.52-1-.8-1-1.6s.23-1.44.33-2.16c.17-1.31.28-2.63.32-4a38.26,38.26,0,0,0-.71-8.27c-.18-.94-1.63-.54-1.45.4a36.12,36.12,0,0,1,.58,9.45c-.1,1.47-.42,2.91-.55,4.37a2.94,2.94,0,0,0,.2,1.61c.26.55.77.78,1.17,1.21v-1.06a9.13,9.13,0,0,1-1.78,1.44.77.77,0,0,0-.15,1.18,6.17,6.17,0,0,1,1.39,1.89l.45-1.1a20,20,0,0,1-6.38,1.06l.72.95c2.47-6.09,4.81-12.54,3.33-19.19-.21-.95-1.65-.55-1.44.4Z"/><path d="M672.42,142.25c-.74,3.17-.09,10.64.64,13.81a59,59,0,0,0,3.1,9,19.58,19.58,0,0,1-6.58-1.09,6.17,6.17,0,0,1,1.51-2,8.82,8.82,0,0,1-1.93-1.56c.25-.36.66-.46.92-.81a2.93,2.93,0,0,0,.14-2.12c-.78-4.39-2.18-10.86-1.3-15.22"/><path d="M671.69,142.06c-.75,3.42-.35,7.22.07,10.66a49.43,49.43,0,0,0,3.68,12.57l.72-.95a20.09,20.09,0,0,1-6.38-1.06l.44,1.1a6.5,6.5,0,0,1,1.4-1.89.77.77,0,0,0-.15-1.18,9.13,9.13,0,0,1-1.78-1.44v1.06c.45-.48,1-.73,1.25-1.39a3.94,3.94,0,0,0,0-2c-.24-1.61-.59-3.21-.86-4.82-.56-3.35-1.12-6.93-.49-10.31.18-.94-1.27-1.34-1.45-.39a27.48,27.48,0,0,0,.16,8.91c.21,1.55.49,3.09.77,4.63.12.69.27,1.37.37,2.06a3.14,3.14,0,0,1,.1,1.1c-.14.53-.62.74-1,1.11a.77.77,0,0,0,0,1.06,10.86,10.86,0,0,0,2.08,1.68l-.15-1.18a7.46,7.46,0,0,0-1.63,2.19.76.76,0,0,0,.45,1.1,21.18,21.18,0,0,0,6.78,1.12.75.75,0,0,0,.73-1,47.66,47.66,0,0,1-3.63-12.17c-.4-3.29-.84-7-.12-10.27.21-.94-1.24-1.34-1.45-.39Z"/><circle cx="682.81" cy="153.88" r="2.33"/><circle cx="701" cy="153.88" r="2.33"/><path class="cls-12" d="M681.28,173.07c-.37-2,1-4,2.81-4.9a12.35,12.35,0,0,1,5.91-1,2.19,2.19,0,0,1-.26,3.32,4.49,4.49,0,0,1-2.19.41,13.48,13.48,0,0,0-7.07,2.46"/><path class="cls-12" d="M702.55,173.07c.37-2-1-4-2.81-4.9a12.35,12.35,0,0,0-5.91-1,2.19,2.19,0,0,0,.26,3.32,4.45,4.45,0,0,0,2.18.41,13.42,13.42,0,0,1,7.07,2.46"/><path class="cls-13" d="M109.9,495.27a17.06,17.06,0,0,1,34.12,0"/><path class="cls-13" d="M108.94,495.27a17.06,17.06,0,0,0-34.12,0"/><path class="cls-3" d="M75.65,491.61a16.83,16.83,0,0,0-.83,5.25h34.12a17.12,17.12,0,0,0-.83-5.25Z"/><path class="cls-3" d="M110.73,491.61a16.83,16.83,0,0,0-.83,5.25H144a17.12,17.12,0,0,0-.83-5.25Z"/><path class="cls-13" d="M304.9,495.27a17.06,17.06,0,0,1,34.12,0"/><path class="cls-13" d="M303.94,495.27a17.06,17.06,0,0,0-34.12,0"/><path class="cls-3" d="M270.65,491.61a16.83,16.83,0,0,0-.83,5.25h34.12a17.12,17.12,0,0,0-.83-5.25Z"/><path class="cls-3" d="M305.73,491.61a16.83,16.83,0,0,0-.83,5.25H339a17.12,17.12,0,0,0-.83-5.25Z"/><path class="cls-13" d="M498.9,495.27a17.06,17.06,0,1,1,34.12,0"/><path class="cls-13" d="M497.94,495.27a17.06,17.06,0,0,0-34.12,0"/><path class="cls-3" d="M464.65,491.61a16.83,16.83,0,0,0-.83,5.25h34.12a17.12,17.12,0,0,0-.83-5.25Z"/><path class="cls-3" d="M499.73,491.61a16.83,16.83,0,0,0-.83,5.25H533a17.12,17.12,0,0,0-.83-5.25Z"/><path class="cls-13" d="M691.9,495.27a17.06,17.06,0,1,1,34.12,0"/><path class="cls-13" d="M690.94,495.27a17.06,17.06,0,0,0-34.12,0"/><path class="cls-3" d="M657.65,491.61a16.83,16.83,0,0,0-.83,5.25h34.12a17.12,17.12,0,0,0-.83-5.25Z"/><path class="cls-3" d="M692.73,491.61a16.83,16.83,0,0,0-.83,5.25H726a17.12,17.12,0,0,0-.83-5.25Z"/></svg>