<svg id="Layer_1" data-name="Layer 1" xmlns="http://www.w3.org/2000/svg" viewBox="0 0 800 600"><defs><style>.cls-1{fill:#43241d;}.cls-2{fill:#1d1416;}.cls-3{fill:#201517;}.cls-10,.cls-15,.cls-4{fill:#282d3c;}.cls-5{fill:#798ea4;}.cls-6{fill:#f9e8d4;}.cls-7{fill:#9b4722;}.cls-8{fill:#584f49;}.cls-9{fill:#fff;stroke:#e6e7e8;}.cls-10,.cls-13,.cls-15,.cls-9{stroke-miterlimit:10;}.cls-10,.cls-9{stroke-width:0.25px;}.cls-10{stroke:#000;}.cls-11{fill:#00758f;}.cls-12{fill:#e8a798;}.cls-13{fill:none;stroke:#e8a798;}.cls-14{fill:#59362d;}.cls-15{stroke:#edd59e;}</style></defs><title>experimentation</title><path class="cls-1" d="M131.83,163.09a11.63,11.63,0,0,0,7.72,5.73l-8.42-.93,1,9.46a3.67,3.67,0,0,1-.35,2.58,3.21,3.21,0,0,1-2.2,1.06,11.45,11.45,0,0,1-9.43-2.4c-2.5-2.24-3.61-6.11-2.17-9.13,2.54-5.33,10.07-5.12,15.87-4.09"/><path class="cls-1" d="M74,176a12.8,12.8,0,0,0-3,5l10.74-3.16A8.75,8.75,0,0,0,78,183.19l9.9-3.14L86.06,186a48.17,48.17,0,0,0,7.46-3.57,3.62,3.62,0,0,0,1.57-1.45,3.73,3.73,0,0,0-.43-2.94l-5.22-11.58A2.34,2.34,0,0,0,88.3,165c-.87-.33-1.75.44-2.34,1.16-3,3.62-6.35,8.53-10.93,7.52"/><path class="cls-2" d="M530.42,156.3c1.43,4.72,3.14,8.19-1.31,10.3-1.16.55-3.51,3.66-4.61,4.32-3.74,2.22-2.36,8.82-6,11.21-1.9,1.24-4.38.79-6.66.85s-5,1.31-5,3.58a72.58,72.58,0,0,1-3-13.35,6.12,6.12,0,0,1,.46-4,6.35,6.35,0,0,1,2.82-2.07l21.3-10.19"/><path class="cls-2" d="M472,163.35a3.66,3.66,0,0,0-1.42,7.11l-3.49,4.29,9,.46a23.33,23.33,0,0,1-4.95,7.27,19.66,19.66,0,0,0,20.23-4.22,15.35,15.35,0,0,0-23.78-15.42"/><path class="cls-3" d="M326.39,162a8,8,0,0,1-9.33,11.62Z"/><path class="cls-3" d="M279,161a8,8,0,0,0,9.33,11.62Z"/><polygon class="cls-4" points="511.98 265 504.48 265 496.98 265 489.48 265 481.98 265 481.98 247 481.98 229 481.98 211 481.98 194 489.48 193 496.98 206 504.48 193 511.98 194 511.98 211 511.98 229 511.98 247 511.98 265"/><polygon class="cls-4" points="123.98 268 116.48 268 108.98 268 101.48 268 93.98 268 93.98 250 93.98 232 93.98 214 93.98 197 101.48 196 108.98 209 116.48 196 123.98 197 123.98 214 123.98 232 123.98 250 123.98 268"/><polygon class="cls-5" points="706.9 264 699.4 264 691.9 264 684.4 264 676.9 264 676.9 246 676.9 228 676.9 210 676.9 193 684.4 192 691.9 205 699.4 192 706.9 193 706.9 210 706.9 228 706.9 246 706.9 264"/><path class="cls-6" d="M83,133.23c0-14.77,11.23-26.75,25.08-26.75s25.08,12,25.08,26.75l-.07-1.31c.83,8.42,0,17.53.08,25.51a64,64,0,0,1-.21,7.06,20.12,20.12,0,0,1-1.71,6.69,19.35,19.35,0,0,1-2.86,4.33c-1.12,1.32-2.36,2.55-3.59,3.75a48.89,48.89,0,0,1-7,6,14.75,14.75,0,0,1-8.16,2.8h-3.16a14.75,14.75,0,0,1-8.16-2.8,49,49,0,0,1-7-6c-1.22-1.2-2.46-2.43-3.58-3.75a19.35,19.35,0,0,1-2.86-4.33,20.38,20.38,0,0,1-1.72-6.69,66.51,66.51,0,0,1-.2-7.06c.08-8-.75-17.09.08-25.51"/><path class="cls-6" d="M83.53,153.87a5.08,5.08,0,0,1,0-10.15"/><path class="cls-6" d="M133.58,143.72a5.08,5.08,0,0,1,0,10.15"/><rect class="cls-4" x="83.49" y="293.6" width="16.92" height="186.12"/><polygon class="cls-6" points="116.62 195.3 108.62 208.3 100.62 195.3 100.62 190.3 100.62 185.3 108.62 185.3 116.62 185.3 116.62 190.3 116.62 195.3"/><path class="cls-4" d="M131.79,474.06h-9.31a6.73,6.73,0,0,0-4.78,2,6.9,6.9,0,0,0-1.45,2.16,6.57,6.57,0,0,0-.54,2.62v6.77a6.62,6.62,0,0,0,.54,2.63,6.74,6.74,0,0,0,6.23,4.14H159.7a6.76,6.76,0,0,0,6.77-6.77v-3.38Z"/><path class="cls-4" d="M84.31,474.06h9.31a6.74,6.74,0,0,1,2.62.53,6.74,6.74,0,0,1,3.61,3.61,6.74,6.74,0,0,1,.53,2.62v6.77a6.73,6.73,0,0,1-2,4.78,6.93,6.93,0,0,1-2.16,1.46,6.74,6.74,0,0,1-2.62.53H56.39a6.79,6.79,0,0,1-6.23-4.14,6.62,6.62,0,0,1-.54-2.63v-3.38Z"/><rect class="cls-6" x="60.57" y="313.55" width="13.54" height="22.45" rx="4" ry="4"/><rect class="cls-6" x="141.91" y="313.55" width="13.54" height="22.45" rx="4" ry="4"/><path class="cls-7" d="M155.28,291.28v-86.1a5.65,5.65,0,0,0-5.68-5.57h-2.24a5.64,5.64,0,0,0-5.68,5.57V310.71a5.42,5.42,0,0,0,.4,2v3.56h13.6v-25Z"/><path class="cls-7" d="M73.94,291.28v-86.1a5.65,5.65,0,0,0-5.68-5.57H66a5.64,5.64,0,0,0-5.68,5.57V310.71a5.62,5.62,0,0,0,.39,2v3.56H74.34v-25Z"/><polygon class="cls-4" points="111.47 196.55 118.32 189.26 122.69 193.37 113.11 203.58 111.47 196.55"/><polygon class="cls-4" points="104.69 196.55 97.85 189.26 93.47 193.37 103.06 203.58 104.69 196.55"/><path class="cls-6" d="M276.55,130.63a26.21,26.21,0,0,1,52.41,0l-.8-5a91.54,91.54,0,0,1,1.47,22.65,44.86,44.86,0,0,1-6.55,21,44,44,0,0,1-2.63,3.63c-.93,1.16-1.91,2.29-2.92,3.39a42.26,42.26,0,0,1-5.73,5.38,19.6,19.6,0,0,1-6.89,3.45L300.6,185a19.54,19.54,0,0,1-6.89-3.46,42.78,42.78,0,0,1-5.73-5.37c-1-1.1-2-2.23-2.92-3.4a40.78,40.78,0,0,1-2.62-3.63c-4.06-6.31-6-13.53-6.56-21a92,92,0,0,1,1.47-22.64"/><path class="cls-6" d="M276.19,151.79a5.08,5.08,0,0,1,0-10.16"/><path class="cls-6" d="M328.9,141.63a5.08,5.08,0,0,1,0,10.16"/><circle class="cls-8" cx="311.52" cy="147.5" r="3"/><circle class="cls-8" cx="293.52" cy="147.5" r="3"/><rect class="cls-4" x="278.11" y="293.6" width="16.92" height="186.12"/><polygon class="cls-6" points="310.25 195.3 303.25 205.3 295.25 195.3 295.25 188.8 295.25 182.3 302.75 182.3 310.25 182.3 310.25 188.8 310.25 195.3"/><path class="cls-4" d="M326.41,474.06H317.1a6.7,6.7,0,0,0-2.62.53,6.74,6.74,0,0,0-3.61,3.61,6.74,6.74,0,0,0-.53,2.62v6.77a6.73,6.73,0,0,0,2,4.78,6.93,6.93,0,0,0,2.16,1.46,6.7,6.7,0,0,0,2.62.53h37.23a6.79,6.79,0,0,0,2.63-.53,6.88,6.88,0,0,0,2.15-1.46,6.74,6.74,0,0,0,1.45-2.15,6.62,6.62,0,0,0,.54-2.63v-3.38Z"/><path class="cls-4" d="M278.93,474.06h9.31a6.73,6.73,0,0,1,4.78,2,6.9,6.9,0,0,1,1.45,2.16,6.57,6.57,0,0,1,.54,2.62v6.77a6.62,6.62,0,0,1-.54,2.63,6.74,6.74,0,0,1-6.23,4.14H251a6.76,6.76,0,0,1-6.77-6.77v-3.38Z"/><rect class="cls-6" x="255.19" y="313.55" width="13.54" height="22.45" rx="4" ry="4"/><rect class="cls-6" x="336.53" y="313.55" width="13.54" height="22.45" rx="4" ry="4"/><path class="cls-4" d="M349.9,291.28v-86.1a5.64,5.64,0,0,0-5.68-5.57H342a5.65,5.65,0,0,0-5.68,5.57V310.71a5.42,5.42,0,0,0,.4,2v3.56h13.6v-25Z"/><path class="cls-4" d="M268.56,291.28v-86.1a5.64,5.64,0,0,0-5.68-5.57h-2.24a5.65,5.65,0,0,0-5.68,5.57V310.71a5.42,5.42,0,0,0,.4,2v3.56H269v-25Z"/><polygon class="cls-4" points="332.89 486.72 305.97 486.72 310.97 300.6 327.89 300.6 332.89 486.72"/><polygon class="cls-4" points="299.89 486.72 272.97 486.72 277.97 300.6 294.89 300.6 299.89 486.72"/><polygon class="cls-4" points="307.25 297.65 289.7 323.31 272.15 323.31 272.15 257.7 272.15 197.09 289.75 191.8 307.25 257.7 307.25 297.65"/><polygon class="cls-4" points="298.15 297.65 315.7 323.31 333.25 323.31 333.25 257.7 333.25 197.09 315.65 191.8 298.15 257.7 298.15 297.65"/><polygon class="cls-9" points="306.1 195.55 312.94 188.26 317.32 192.37 307.74 202.58 306.1 195.55"/><polygon class="cls-9" points="299.32 195.55 292.47 188.26 288.1 192.37 297.68 202.58 299.32 195.55"/><path class="cls-6" d="M472.05,135.62a25.07,25.07,0,0,1,50.14,0h-.26q.39,4.84.66,9.69c.19,3.24.34,6.47.46,9.71a56.23,56.23,0,0,1,0,5.95,20.32,20.32,0,0,1-1.15,5.78,20,20,0,0,1-2.42,4.45,49,49,0,0,1-3.19,4,68,68,0,0,1-5.15,5.45,31.24,31.24,0,0,1-5.95,4.48,21,21,0,0,1-7.06,2.52H496.8a21,21,0,0,1-7.06-2.52,31.24,31.24,0,0,1-5.95-4.48,68,68,0,0,1-5.15-5.45,49,49,0,0,1-3.19-4,20,20,0,0,1-2.42-4.45,20.32,20.32,0,0,1-1.15-5.78,56.23,56.23,0,0,1,0-5.95c.12-3.24.27-6.47.46-9.71Z"/><circle class="cls-8" cx="487.9" cy="148.63" r="2.33"/><circle class="cls-8" cx="506.09" cy="148.63" r="2.33"/><path class="cls-6" d="M472.58,153.3a4.67,4.67,0,1,1,0-9.33"/><path class="cls-6" d="M522,144a4.67,4.67,0,0,1,0,9.33"/><polygon class="cls-6" points="510.96 192.3 496.96 208.3 483.96 192.3 489.96 192.3 489.96 185.3 497.46 185.3 504.96 185.3 504.96 192.3 510.96 192.3"/><path class="cls-10" d="M521,474.06h-9.3a6.73,6.73,0,0,0-4.78,2,7.1,7.1,0,0,0-1.46,2.16,6.74,6.74,0,0,0-.53,2.62v6.77a6.79,6.79,0,0,0,.53,2.63,6.94,6.94,0,0,0,1.46,2.15,6.68,6.68,0,0,0,4.78,2H549a6.76,6.76,0,0,0,6.77-6.77v-3.38Z"/><path class="cls-10" d="M473.56,474.06h9.3a6.76,6.76,0,0,1,6.77,6.76v6.77a6.79,6.79,0,0,1-.53,2.63,6.61,6.61,0,0,1-1.46,2.15,6.68,6.68,0,0,1-4.78,2H445.64a6.79,6.79,0,0,1-6.23-4.14,6.62,6.62,0,0,1-.54-2.63v-3.38Z"/><rect class="cls-6" x="448.82" y="313.55" width="13.54" height="22.45" rx="4" ry="4"/><rect class="cls-6" x="531.16" y="313.55" width="13.54" height="22.45" rx="4" ry="4"/><path class="cls-4" d="M544.53,291.28v-86.1a5.65,5.65,0,0,0-5.68-5.57h-2.24a5.64,5.64,0,0,0-5.68,5.57V310.71a5.42,5.42,0,0,0,.4,2v3.56h13.6v-25Z"/><path class="cls-4" d="M462.19,291.28v-86.1a5.65,5.65,0,0,0-5.68-5.57h-2.24a5.64,5.64,0,0,0-5.68,5.57V310.71a5.41,5.41,0,0,0,.39,2v3.56h13.61v-25Z"/><polygon class="cls-4" points="526.64 482.72 499.72 482.72 504.72 296.6 521.64 296.6 526.64 482.72"/><polygon class="cls-4" points="493.64 482.72 466.72 482.72 471.72 296.6 488.64 296.6 493.64 482.72"/><rect class="cls-4" x="472" y="296.3" width="50" height="20"/><path class="cls-6" d="M669.73,140.8c0-11.87,9.93-21.5,22.17-21.5s22.17,9.63,22.17,21.5v0l-.2,11.63-.2,11.63c0,1,0,2.11-.12,3.17a16.23,16.23,0,0,1-.54,3.1,15.81,15.81,0,0,1-1.73,3.79c-.72,1.2-1.56,2.35-2.39,3.48a55.44,55.44,0,0,1-5,6.12,18.69,18.69,0,0,1-6.43,4.39H686.37a18.69,18.69,0,0,1-6.43-4.39,54.33,54.33,0,0,1-5-6.12c-.83-1.13-1.67-2.28-2.39-3.48a15.81,15.81,0,0,1-1.73-3.79,15.48,15.48,0,0,1-.54-3.1c-.09-1.06-.11-2.12-.13-3.17l-.19-11.63-.2-11.63"/><path class="cls-6" d="M670.19,157.88a4.68,4.68,0,0,1-4.67-4.67,4.68,4.68,0,0,1,4.67-4.67"/><path class="cls-6" d="M712.22,148.54a4.67,4.67,0,0,1,0,9.34"/><circle class="cls-5" cx="685.46" cy="157.21" r="2"/><circle class="cls-5" cx="697.65" cy="157.21" r="2"/><polygon class="cls-6" points="697.05 195.6 691.9 204.6 686.75 195.6 686.75 190.53 686.75 185.45 691.9 185.45 697.05 185.45 697.05 190.53 697.05 195.6"/><path class="cls-10" d="M715.69,474.06h-9.31a6.74,6.74,0,0,0-2.62.53,6.74,6.74,0,0,0-3.61,3.61,6.74,6.74,0,0,0-.53,2.62v6.77a6.73,6.73,0,0,0,2,4.78,6.93,6.93,0,0,0,2.16,1.46,6.74,6.74,0,0,0,2.62.53h37.23a6.79,6.79,0,0,0,6.23-4.14,6.62,6.62,0,0,0,.54-2.63v-3.38Z"/><path class="cls-10" d="M668.21,474.06h9.31a6.73,6.73,0,0,1,4.78,2,6.9,6.9,0,0,1,1.45,2.16,6.57,6.57,0,0,1,.54,2.62v6.77a6.62,6.62,0,0,1-.54,2.63,6.74,6.74,0,0,1-6.23,4.14H640.3a6.76,6.76,0,0,1-6.77-6.77v-3.38Z"/><rect class="cls-6" x="644.47" y="313.55" width="13.54" height="22.45" rx="4" ry="4"/><rect class="cls-6" x="726.82" y="313.55" width="13.54" height="22.45" rx="4" ry="4"/><path class="cls-4" d="M740.19,291.28v-86.1a5.65,5.65,0,0,0-5.69-5.57h-2.23a5.65,5.65,0,0,0-5.69,5.57V310.71a5.42,5.42,0,0,0,.4,2v3.56h13.6v-25Z"/><path class="cls-4" d="M657.84,291.28v-86.1a5.64,5.64,0,0,0-5.68-5.57h-2.24a5.65,5.65,0,0,0-5.68,5.57V310.71a5.42,5.42,0,0,0,.4,2v3.56h13.6v-25Z"/><polygon class="cls-5" points="695.51 195.55 702.35 188.26 706.73 192.37 697.14 202.58 695.51 195.55"/><polygon class="cls-5" points="688.73 195.55 681.88 188.26 677.51 192.37 687.09 202.58 688.73 195.55"/><polygon class="cls-11" points="722.3 482.72 695.38 482.72 700.38 296.6 717.3 296.6 722.3 482.72"/><polygon class="cls-11" points="689.3 482.72 662.38 482.72 667.38 296.6 684.3 296.6 689.3 482.72"/><circle class="cls-12" cx="302.9" cy="168.63" r="2.33"/><line class="cls-13" x1="488.98" y1="171.5" x2="504.98" y2="171.5"/><rect class="cls-4" x="83" y="293" width="50" height="20"/><rect class="cls-4" x="115.49" y="293.6" width="16.92" height="186.12"/><polygon class="cls-7" points="112.62 283.72 95.07 306 77.52 306 77.52 249.03 77.52 196.39 95.12 191.8 112.62 249.03 112.62 283.72"/><polygon class="cls-7" points="104 305 121.07 306 138.62 306 138.62 249.03 138.62 196.39 121.02 191.8 103.52 249.03 104 305"/><path class="cls-1" d="M71.54,171.84c3.38,1.65,7.15-2.42,7.1-6.19s-2.28-7.09-3.59-10.62a22.75,22.75,0,0,1,.51-17c2.25-5.07,6.28-9.13,9-14,2.23-4,3.71-8.57,7.3-11.35,3.36-2.61,7.86-3,12.09-3.36,5.26-.4,10.65-.77,15.73.64,6.74,1.88,12.36,6.82,16,12.76s5.63,12.83,6.72,19.74c.81,5.06,1.08,10.63-1.73,14.91-1.58,2.4-4,4.19-5.32,6.73-2,3.94.3,10,4.73,10l-8.4.49c-.31-6.35,1.11-12.74.4-19.07s-4.44-13.07-10.7-14.24c-3-.55-6,.23-8.93,1l-19.4,5.19a14.17,14.17,0,0,0-4.78,1.92c-3.72,2.71-3.89,8.05-4.6,12.6-.57,3.71-1.82,7.46-4.45,10.12S72.35,176.1,69,174.42A3.15,3.15,0,0,0,71,172"/><path class="cls-3" d="M279.87,159.87c-6.18-6.19-8.85-15.26-8-23.87s4.93-16.77,10.62-23.45a25,25,0,0,1,7.87-6.56,20.9,20.9,0,0,1,7.68-1.88c8.78-.6,23.58,4.06,30,9.89s4.5,9.69,6.4,18c.64,2.78,0,8.65-.4,11.47-.93,5.88-4.34,10.6-8.54,14.94,3.3-6.47-1.14-14.6-7.61-18.08s-14.26-3.56-21.68-3.55c-5.55,0-12,.48-15.15,5-3.56,5.14-.44,12.34-2.77,18.1"/><path class="cls-14" d="M668.67,160.85c.55-1.95.06-4-.06-6s.29-4.34,2-5.42a6.9,6.9,0,0,1,3.46-.73q15.23-.49,30.46-.22a4.05,4.05,0,0,1,1.8.31,3.93,3.93,0,0,1,1.56,2,43.84,43.84,0,0,1,4,13.63c5.22-.39,9.13-5.44,9.93-10.61s-.77-10.38-2.5-15.32c-1.58-4.52-3.48-9.24-7.28-12.16-2.71-2.08-6.11-3-9.42-3.85-9.37-2.37-19.93-4.14-28.18.88-4.51,2.75-7.72,7.23-10,12-2.38,4.92-3.93,10.43-3.18,15.85s4.18,10.67,9.33,12.5"/><polygon class="cls-4" points="688.43 299.01 705.98 325 723.53 325 723.53 258.54 723.53 195.66 705.98 192.09 705.98 192.09 688.43 258.54 688.43 299.01"/><polygon class="cls-4" points="696.53 299.01 678.98 325 661.43 325 661.43 258.54 661.43 195.66 678.98 192.09 678.98 192.09 696.53 258.54 696.53 299.01"/><path class="cls-13" d="M699,173.93c0,1.64-3.36,3-7.5,3s-7.5-1.33-7.5-3"/><polygon class="cls-4" points="500.62 284.72 483.07 307 465.52 307 465.52 250.03 465.52 197.39 483.12 192.8 500.62 250.03 500.62 284.72"/><polygon class="cls-4" points="492 306 509.07 307 526.62 307 526.62 250.03 526.62 197.39 509.02 192.8 491.52 250.03 492 306"/><path class="cls-2" d="M472.54,162.83c-2-3.34,2-5,1-8.7-.73-2.62-1.19-5.51-.1-8,1.48-3.39,5.3-4.94,8.8-6,8.21-2.45,17.08-3.92,25.26-1.37s15.36,10,15.26,18.72c0,3-.47,6.93,2.22,8.21,1.83.88,4.11-.31,5.14-2.08a11.43,11.43,0,0,0,1-6,68,68,0,0,0-14.42-40.17,23.15,23.15,0,0,0-7.16-6.51c-3.62-1.88-7.84-2.06-11.9-2a33.72,33.72,0,0,0-10.39,1.55c-7.71,2.71-13.17,9.83-16.51,17.39s-5,15.76-7.77,23.54c-1,2.66-2.05,5.38-1.81,8.2.28,3.24,2.3,6,4.42,8.48a2.36,2.36,0,0,0,1,.76c.8.24,1.55-.4,2.2-.92a10,10,0,0,1,8.06-2"/><circle class="cls-8" cx="98.83" cy="153.33" r="2.33"/><circle class="cls-8" cx="117.02" cy="153.33" r="2.33"/><path class="cls-13" d="M116,172.93c0,1.64-3.36,3-7.5,3s-7.5-1.33-7.5-3"/><rect class="cls-15" x="92" y="150" width="14" height="10" rx="4" ry="4"/><rect class="cls-15" x="110" y="150" width="14" height="10" rx="4" ry="4"/></svg>